<?xml version="1.0" encoding="UTF-8" standalone="no"?>
<!-- Created with Inkscape (http://www.inkscape.org/) -->

<svg
   xmlns:dc="http://purl.org/dc/elements/1.1/"
   xmlns:cc="http://creativecommons.org/ns#"
   xmlns:rdf="http://www.w3.org/1999/02/22-rdf-syntax-ns#"
   xmlns:svg="http://www.w3.org/2000/svg"
   xmlns="http://www.w3.org/2000/svg"
   xmlns:sodipodi="http://sodipodi.sourceforge.net/DTD/sodipodi-0.dtd"
   xmlns:inkscape="http://www.inkscape.org/namespaces/inkscape"
   width="30"
   height="30"
   id="svg2"
   sodipodi:version="0.32"
   inkscape:version="0.46+devel"
   version="1.0"
   sodipodi:docname="show_menu_icon.svg"
   inkscape:output_extension="org.inkscape.output.svg.inkscape">
  <defs
     id="defs4">
    <inkscape:perspective
       sodipodi:type="inkscape:persp3d"
       inkscape:vp_x="0 : 526.18109 : 1"
       inkscape:vp_y="0 : 1000 : 0"
       inkscape:vp_z="744.09448 : 526.18109 : 1"
       inkscape:persp3d-origin="372.04724 : 350.78739 : 1"
       id="perspective10" />
    <inkscape:perspective
       id="perspective798"
       inkscape:persp3d-origin="0.5 : 0.33333333 : 1"
       inkscape:vp_z="1 : 0.5 : 1"
       inkscape:vp_y="0 : 1000 : 0"
       inkscape:vp_x="0 : 0.5 : 1"
       sodipodi:type="inkscape:persp3d" />
    <inkscape:perspective
       id="perspective820"
       inkscape:persp3d-origin="0.5 : 0.33333333 : 1"
       inkscape:vp_z="1 : 0.5 : 1"
       inkscape:vp_y="0 : 1000 : 0"
       inkscape:vp_x="0 : 0.5 : 1"
       sodipodi:type="inkscape:persp3d" />
    <inkscape:perspective
       id="perspective842"
       inkscape:persp3d-origin="0.5 : 0.33333333 : 1"
       inkscape:vp_z="1 : 0.5 : 1"
       inkscape:vp_y="0 : 1000 : 0"
       inkscape:vp_x="0 : 0.5 : 1"
       sodipodi:type="inkscape:persp3d" />
  </defs>
  <sodipodi:namedview
     id="base"
     pagecolor="#ffffff"
     bordercolor="#666666"
     borderopacity="1.0"
     inkscape:pageopacity="0.0"
     inkscape:pageshadow="2"
     inkscape:zoom="5.1311844"
     inkscape:cx="-2.7150018"
     inkscape:cy="0.44728185"
     inkscape:document-units="px"
     inkscape:current-layer="layer1"
     showgrid="false"
     inkscape:window-width="1072"
     inkscape:window-height="614"
     inkscape:window-x="423"
     inkscape:window-y="277" />
  <metadata
     id="metadata7">
    <rdf:RDF>
      <cc:Work
         rdf:about="">
        <dc:format>image/svg+xml</dc:format>
        <dc:type
           rdf:resource="http://purl.org/dc/dcmitype/StillImage" />
      </cc:Work>
    </rdf:RDF>
  </metadata>
  <g
     inkscape:label="Layer 1"
     inkscape:groupmode="layer"
     id="layer1">
    <rect
       style="fill:#ffffff;fill-opacity:1;fill-rule:evenodd;stroke:none"
       id="rect786"
       width="25.752895"
       height="25.081081"
       x="1.9984972"
       y="3.0880737"
       ry="4.9937615" />
    <path
       style="fill:#4d4d4d;fill-opacity:1;fill-rule:evenodd;stroke:none"
       d="m 11.211938,7.0212291 c -0.682339,0 -1.2499996,0.53641 -1.2499996,1.21875 0,0.68234 0.5676606,1.25 1.2499996,1.25 l 13.1875,0 c 0.68234,0 1.25,-0.56766 1.25,-1.25 0,-0.68234 -0.56766,-1.21875 -1.25,-1.21875 l -13.1875,0 z m 0,5.0624999 c -0.682339,0 -1.2499996,0.56766 -1.2499996,1.25 0,0.68234 0.5676606,1.21875 1.2499996,1.21875 l 13.1875,0 c 0.68234,0 1.25,-0.53641 1.25,-1.21875 0,-0.68234 -0.56766,-1.25 -1.25,-1.25 l -13.1875,0 z m -0.25,5.09375 c -0.562257,0.114472 -0.9999996,0.621703 -0.9999996,1.21875 0,0.68234 0.5676606,1.21875 1.2499996,1.21875 l 13.1875,0 c 0.68234,0 1.25,-0.53641 1.25,-1.21875 0,-0.68234 -0.56766,-1.21875 -1.25,-1.21875 l -13.1875,0 c -0.08529,0 -0.169677,-0.01635 -0.25,0 z m 0.25,5.0625 c -0.682339,0 -1.2499996,0.53641 -1.2499996,1.21875 0,0.68234 0.5676606,1.25 1.2499996,1.25 l 13.1875,0 c 0.68234,0 1.25,-0.56766 1.25,-1.25 0,-0.68234 -0.56766,-1.21875 -1.25,-1.21875 l -13.1875,0 z"
       id="rect788" />
  </g>
</svg>
