<?xml version="1.0" encoding="UTF-8" standalone="no"?>
<!-- Generator: Adobe Illustrator 13.0.0, SVG Export Plug-In . SVG Version: 6.00 Build 14948)  -->
<svg
   xmlns:dc="http://purl.org/dc/elements/1.1/"
   xmlns:cc="http://creativecommons.org/ns#"
   xmlns:rdf="http://www.w3.org/1999/02/22-rdf-syntax-ns#"
   xmlns:svg="http://www.w3.org/2000/svg"
   xmlns="http://www.w3.org/2000/svg"
   xmlns:sodipodi="http://sodipodi.sourceforge.net/DTD/sodipodi-0.dtd"
   xmlns:inkscape="http://www.inkscape.org/namespaces/inkscape"
   version="1.0"
   id="Слой_1"
   x="0px"
   y="0px"
   width="319.10999"
   height="295.28"
   viewBox="0 0 361.071 329.157"
   enable-background="new 0 0 361.071 329.157"
   xml:space="preserve"
   sodipodi:version="0.32"
   inkscape:version="0.46"
   sodipodi:docname="Trtl3.svg"
   inkscape:output_extension="org.inkscape.output.svg.inkscape"><metadata
   id="metadata3212"><rdf:RDF><cc:Work
       rdf:about=""><dc:format>image/svg+xml</dc:format><dc:type
         rdf:resource="http://purl.org/dc/dcmitype/StillImage" /></cc:Work></rdf:RDF></metadata><defs
   id="defs3210"><inkscape:perspective
     sodipodi:type="inkscape:persp3d"
     inkscape:vp_x="0 : 164.57851 : 1"
     inkscape:vp_y="0 : 1000 : 0"
     inkscape:vp_z="361.07101 : 164.57851 : 1"
     inkscape:persp3d-origin="180.53551 : 109.719 : 1"
     id="perspective3214" /></defs><sodipodi:namedview
   inkscape:window-height="731"
   inkscape:window-width="758"
   inkscape:pageshadow="2"
   inkscape:pageopacity="0.0"
   guidetolerance="10.0"
   gridtolerance="10.0"
   objecttolerance="10.0"
   borderopacity="1.0"
   bordercolor="#666666"
   pagecolor="#ffffff"
   id="base"
   showgrid="false"
   inkscape:zoom="1.72"
   inkscape:cx="170.86774"
   inkscape:cy="159.26244"
   inkscape:window-x="46"
   inkscape:window-y="29"
   inkscape:current-layer="Слой_1"
   borderlayer="true" />
<g
   id="XMLID_1_">
	<g
   id="g2987">
		<path
   d="M 10.57,307.27 C 7.89,307.911 0.25,311.05 0.25,311.05 C 0.25,311.05 8.6,309.95 11.39,309.95 C 13.32,309.94 18.37,310.54 20.04,310.74 C 19.06,309.42 18.11,307.96 17.37,306.429 C 16.16,306.53 12.06,306.9 10.57,307.27 z"
   id="path2989" />
		<path
   d="M 18,318.72 C 16.47,319.67 12.79,323.34 12.49,323.651 C 12.85,323.501 18.68,321.02 20.77,320.531 C 22.42,320.151 27.52,319.831 27.52,319.831 C 26.36,318.511 25.34,317.27 24.47,316.171 C 23.78,316.4 19.37,317.88 18,318.72 z"
   id="path2991" />
		<path
   d="M 13.51,294.62 C 14.43,295.69 15.91,299.64 15.91,299.64 L 15.95,299.64 C 16.04,298.81 16.24,297.97 16.59,297.14 C 17.11,295.87 19.31,294.93 22.24,294.14 C 20.75,293.5 17.08,291.93 15.61,291.42 C 12.95,290.49 4.9,288.36 4.4,288.231 C 4.84,288.49 11.8,292.6 13.51,294.62 z"
   id="path2993" />
		<path
   d="M 17.37,306.43 C 18.11,307.96 19.06,309.42 20.04,310.741 C 21.67,312.941 23.38,314.781 24.39,316.06 C 24.42,316.1 24.45,316.13 24.47,316.17 C 25.34,317.27 26.36,318.51 27.52,319.83 C 29.95,322.58 32.98,325.62 36.4,328.13 L 36.52,327.97 C 41.82,331.58 63.17,319.89 67.43,317.97 C 74.79,314.651 96.76,298.46 98.36,296.21 C 103.59,288.84 104.44,287.08 98.69,279.83 C 95.52,275.83 90.34,268.98 87.69,265.58 C 84.05,262.67 75.19,245.33 72.44,242.08 C 68.08,236.93 59.03,260.64 54.34,268.309 C 51.26,273.339 47.11,280.82 43.04,287.98 C 41.27,291.08 29.5,292.169 22.24,294.139 C 19.31,294.929 17.11,295.869 16.59,297.139 C 16.24,297.969 16.04,298.809 15.95,299.639 C 15.69,301.98 16.33,304.28 17.37,306.43 z"
   id="path2995" />
		<path
   d="M 35,69.79 C 33.62,70.72 30.39,74.36 30.13,74.67 C 30.45,74.52 35.7,72.08 37.61,71.6 C 38.86,71.28 42.34,71.03 43.44,70.96 C 42.48,69.78 41.54,68.58 40.65,67.35 C 39.66,67.72 36.14,69.02 35,69.79 z"
   id="path2997" />
		<path
   d="M 35.03,56.41 C 35.03,56.41 30.84,56.68 29.25,57.09 C 26.82,57.72 19.91,60.8 19.91,60.8 C 19.91,60.8 27.55,59.76 30.11,59.77 C 32.11,59.77 35.96,60.42 36.43,60.5 C 36.01,59.56 35.66,58.58 35.39,57.56 C 35.32,57.31 35.21,57.04 35.18,56.78 C 35.16,56.66 35.15,56.53 35.15,56.4 L 35.03,56.41 z"
   id="path2999" />
		<path
   d="M 43.44,70.96 C 44.32,72.04 45.23,73.1 46.15,74.14 C 49.01,77.33 52.1,80.36 55.17,83.35 C 58.1,86.19 61.35,88.65 64.45,91.29 C 65.73,92.38 67,93.46 68.44,94.35 C 69.35,94.9 70.31,95.39 71.29,95.86 C 72.37,96.37 73.62,97.16 74.79,97.44 C 76.55,97.83 85.02,102.88 86.69,102.25 C 89.44,101.23 95.69,88.5 98.77,85.5 C 103.69,78.46 114.03,73.54 114.94,72.83 C 117.19,71.08 103.45,57.1 97.06,51.96 C 86.98,43.87 50.76,41.55 40.98,42.24 C 40.5,42.28 40.06,42.45 39.35,43.39 C 39.27,43.49 39.19,43.61 39.1,43.73 C 39.09,43.74 39.09,43.75 39.08,43.76 C 37.98,45.51 37.05,47.37 36.37,49.21 C 35.42,51.77 34.94,54.28 35.15,56.4 C 35.15,56.53 35.16,56.66 35.18,56.78 C 35.21,57.04 35.32,57.31 35.39,57.56 C 35.66,58.58 36.01,59.56 36.43,60.5 C 37.12,62.11 38,63.61 39.02,65.08 C 39.55,65.84 40.09,66.6 40.65,67.35 C 41.54,68.58 42.48,69.78 43.44,70.96 z"
   id="path3001" />
		<path
   d="M 39.35,43.39 C 38.42,43.1 34.77,41.95 33.26,41.38 C 30.93,40.5 24.45,40.38 23.25,40.36 C 24.87,40.95 30.8,43.18 32.27,44.96 C 33.16,46.03 36.14,49.12 36.14,49.12 L 36.37,49.21 C 37.05,47.37 37.98,45.51 39.08,43.76 C 39.09,43.75 39.09,43.74 39.1,43.73 C 39.19,43.61 39.27,43.49 39.35,43.39 z"
   id="path3003" />
		<path
   d="M 90.05,201.17 C 90.02,201.74 90,202.3 90,202.87 C 90.1,205.2 90.27,207.38 90.51,209.39 C 90.54,209.661 90.58,209.941 90.62,210.22 C 90.62,210.26 90.63,210.29 90.64,210.321 C 90.99,212.381 91.47,214.421 92.06,216.421 C 92.14,216.741 92.23,217.061 92.34,217.371 C 93.86,222.141 96.15,227.441 98.97,232.81 C 99.06,232.991 99.16,233.161 99.25,233.34 C 102.69,239.611 106,244.231 106.97,245.83 C 107.08,246.01 107.48,246.73 108.06,247.69 C 109.72,250.07 111.46,252.379 113.23,254.57 C 113.59,254.84 113.93,254.99 114.22,255 C 118.05,255.08 121.22,253.33 122.8,252.58 C 124.23,252.03 123.65,252.15 143.89,243.67 L 156.22,221.08 L 137.05,200.17 C 137.05,200.17 121.93,201.2 116.64,201.17 C 111.23,201.09 90.08,200.72 90.05,201.17 z"
   id="path3005" />
		<path
   d="M 107.46,120.06 C 95.11,143.77 89.07,180.11 90,202.87 C 90,202.3 90.02,201.74 90.05,201.17 C 90.08,200.72 111.23,201.09 116.64,201.17 L 116.64,201 C 122.27,200.92 137.12,200.08 137.39,199.58 C 140.22,194.33 151.47,176.58 151.47,176.58 L 139.59,156.62 C 139.59,156.62 124.02,154.19 118.93,154.01 L 118.93,153.91 C 115.26,153.81 111.46,153.56 109.22,153.62 C 104.72,153.75 96.66,154.97 96.09,154 C 95.27,152.59 104.5,126.1 107.46,120.06 z"
   id="path3007" />
		<path
   d="M 96.09,154 C 96.66,154.97 104.72,153.75 109.22,153.62 C 111.46,153.56 115.26,153.81 118.93,153.91 C 119.54,153.93 120.14,153.94 120.73,153.95 C 120.74,153.95 120.75,153.95 120.76,153.95 C 122.57,154.13 132.84,155.25 132.84,155.25 C 132.84,155.25 136.22,155.88 139.64,156.33 L 152.97,132.25 L 151.81,130.34 L 151.79,130.3 C 150.1,127.9 146.6,122.75 145.17,119.43 L 145.16,119.42 L 144.22,117.88 C 144.22,117.88 128.22,114.17 124.22,115.33 C 120.69,115.26 108.92,117.66 107.95,119.16 C 107.92,119.2 107.89,119.25 107.86,119.3 C 107.75,119.5 107.61,119.75 107.46,120.06 C 104.5,126.1 95.27,152.59 96.09,154 z"
   id="path3009" />
		<path
   d="M 107.86,119.3 C 107.89,119.25 107.92,119.2 107.95,119.16 C 108.92,117.66 120.69,115.26 124.22,115.33 C 128.22,114.17 144.22,117.88 144.22,117.88 L 145.16,119.42 C 144.89,118.78 144.69,118.22 144.59,117.75 C 143.38,111.85 148.32,98.4 157.22,95.35 C 158.84,94.79 164.97,94.29 170.01,94.09 C 155.03,94.24 130.04,96.48 124.4,99.83 C 118.03,103.62 112.5,110.56 107.86,119.3 z"
   id="path3011" />
		<path
   d="M 159.58,9 C 147.94,10.33 139.95,44.36 141.351,57.25 C 141.361,57.25 143.531,63.25 144.961,65.5 C 153.521,64.57 167.561,63.72 176.521,63.5 C 185.21,63.72 197.661,64.63 205.831,65.48 C 207.251,63.22 209.401,57.25 209.422,57.25 C 210.82,44.36 202.83,10.33 191.19,9 C 186.74,8.49 181.64,0.6 174.58,0.5 C 167.52,0.6 164.03,8.49 159.58,9 z"
   id="path3013" />
		<path
   d="M 174.83,220.51 C 169.641,220.49 156.55,220.75 156.55,220.75 L 143.89,243.67 C 143.89,243.67 157.02,251.441 162.41,252.78 C 164.31,253.259 166.98,253.59 169.971,253.79 C 171.46,253.89 173.031,253.94 174.62,253.97 C 174.761,253.97 174.9,253.97 175.04,253.97 C 179.82,253.901 184.4,253.491 187.24,252.781 C 192.64,251.441 205.77,243.671 205.77,243.671 L 193.11,220.751 C 193.11,220.751 192.78,220.741 192.21,220.731 C 189.16,220.68 179.2,220.5 174.83,220.51 z"
   id="path3015" />
		<path
   d="M 165.72,253.88 C 159.999,255.84 151.69,276.18 154.34,276.62 C 155.16,276.76 156.15,276.88 157.24,277 C 159.631,277.25 162.52,277.45 165.25,277.62 C 169.271,277.88 173.011,277.99 174.82,278 C 174.83,278 174.83,278 174.841,278 C 176.651,277.99 180.391,277.88 184.41,277.62 C 187.39,277.43 190.56,277.21 193.06,276.93 C 193.9,276.83 194.66,276.731 195.32,276.62 C 197.97,276.18 189.66,255.84 183.94,253.88 C 182.52,253.39 177.92,254.14 174.84,254.191 C 174.829,254.191 174.829,254.191 174.819,254.191 C 173.38,254.161 171.599,253.991 169.969,253.85 C 168.13,253.71 166.47,253.62 165.72,253.88 z"
   id="path3017" />
		<path
   d="M 132.45,271.32 C 138.66,274.03 147.44,275.95 157.24,277.04 L 157.24,277 C 156.15,276.88 155.16,276.76 154.34,276.62 C 151.69,276.18 160,255.84 165.72,253.88 C 166.47,253.62 168.13,253.71 169.97,253.85 L 169.97,253.79 C 166.98,253.59 164.31,253.26 162.409,252.78 C 157.019,251.44 143.889,243.67 143.889,243.67 C 123.649,252.15 124.229,252.03 122.799,252.58 C 121.219,253.33 118.049,255.08 114.219,255 C 113.929,254.99 113.589,254.84 113.229,254.57 C 119.55,262.38 126.35,268.65 132.45,271.32 z"
   id="path3019" />
		<path
   d="M 174.92,174.84 C 181.51,174.79 198.06,176.12 198.06,176.12 L 210.02,156.33 L 196.69,132.25 C 196.69,132.25 180.74,131.68 174.96,131.74 C 174.881,131.74 174.79,131.74 174.7,131.74 C 168.91,131.68 152.97,132.25 152.97,132.25 L 139.64,156.33 L 151.59,176.12 C 151.59,176.12 168.15,174.79 174.74,174.84 L 174.92,174.84 L 174.92,174.84 z"
   id="path3021" />
		<path
   d="M 157.24,277.04 C 147.44,275.95 138.66,274.03 132.45,271.32 C 126.35,268.65 119.55,262.38 113.23,254.57 C 111.58,253.36 109.37,249.889 108.06,247.69 C 104.82,243.08 101.83,238.179 99.25,233.339 C 99.16,233.159 99.06,232.989 98.97,232.809 C 96.53,228.309 94.06,223.009 92.34,217.37 C 92.23,217.059 92.14,216.74 92.06,216.42 C 91.4,214.26 90.92,212.21 90.64,210.32 C 90.63,210.29 90.62,210.259 90.62,210.219 C 90.21,207.789 89.98,205.32 90,202.869 C 89.07,180.109 95.11,143.769 107.46,120.059 C 107.61,119.749 107.75,119.499 107.86,119.299 C 112.5,110.559 118.03,103.619 124.4,99.829 C 130.04,96.479 155.03,94.239 170.01,94.089 C 171.67,94.029 173.22,93.999 174.44,94.009 L 174.44,94 C 174.59,94 174.74,93.99 174.89,93.99 C 188.77,93.66 219.03,96.13 225.249,99.83 C 231.619,103.61 237.149,110.55 241.8,119.29 C 241.829,119.36 241.88,119.45 241.93,119.54 C 242.01,119.69 242.1,119.86 242.2,120.06 C 242.2,120.07 242.21,120.09 242.221,120.1 C 254.551,143.81 260.591,180.13 259.66,202.87 C 259.681,205.32 259.45,207.79 259.04,210.22 C 259.04,210.26 259.03,210.29 259.02,210.321 C 258.74,212.211 258.26,214.26 257.6,216.421 C 257.52,216.741 257.43,217.061 257.32,217.371 C 255.6,223.011 253.131,228.31 250.69,232.81 C 250.6,232.991 250.5,233.161 250.41,233.34 C 247.83,238.18 244.841,243.08 241.6,247.691 C 240.289,249.89 238.079,253.361 236.43,254.571 C 230.11,262.381 223.31,268.651 217.209,271.321 C 211.14,273.97 202.6,275.871 193.06,276.97 L 193.06,276.93 C 190.56,277.21 187.39,277.43 184.41,277.62 C 180.39,277.88 176.65,277.99 174.841,278 C 174.83,278 174.83,278 174.82,278 C 173.01,277.99 169.27,277.88 165.25,277.62 C 162.521,277.45 159.631,277.25 157.24,277 L 157.24,277.04 L 157.24,277.04 z M 113.28,77.5 C 81.04,96.67 65.72,179.52 70.19,216.76 C 73.03,240.361 101.73,285.96 123.51,295.49 C 135.74,300.849 155.86,303.75 176.44,304.08 C 176.5,304.08 176.55,304.08 176.61,304.08 C 197.2,303.75 217.31,300.85 229.54,295.49 C 251.32,285.96 280.03,240.36 282.86,216.76 C 287.33,179.52 272.02,96.67 239.77,77.5 C 231.77,72.74 193.56,68.75 176.19,69.25 C 159.19,69.5 121.11,72.85 113.28,77.5 z"
   id="path3023" />
		<path
   d="M 174.89,94.01 C 179.69,93.94 190.23,94.59 192.44,95.35 C 201.34,98.4 206.28,111.85 205.06,117.75 C 204.959,118.24 204.749,118.83 204.459,119.5 L 205.439,117.88 C 205.439,117.88 221.439,114.17 225.439,115.33 C 228.969,115.26 240.739,117.66 241.709,119.16 C 241.739,119.2 241.76,119.24 241.8,119.29 C 237.15,110.55 231.619,103.61 225.249,99.83 C 219.029,96.13 188.77,93.66 174.89,93.99 L 174.89,94.01 L 174.89,94.01 z"
   id="path3025" />
		<path
   d="M 212.61,200.17 L 193.44,221.08 L 205.77,243.67 C 226.01,252.15 225.43,252.03 226.86,252.58 C 228.44,253.33 231.61,255.08 235.44,255 C 235.73,254.99 236.07,254.84 236.43,254.57 C 238.2,252.38 239.94,250.07 241.6,247.69 C 242.18,246.73 242.579,246.009 242.69,245.83 C 243.66,244.23 246.97,239.61 250.41,233.34 C 250.5,233.16 250.6,232.99 250.69,232.81 C 253.51,227.441 255.8,222.14 257.32,217.371 C 257.43,217.06 257.52,216.741 257.6,216.421 C 258.19,214.421 258.67,212.381 259.02,210.321 C 259.03,210.291 259.04,210.26 259.04,210.22 C 259.08,209.941 259.12,209.66 259.15,209.39 C 259.39,207.38 259.56,205.201 259.66,202.87 C 259.66,202.3 259.64,201.74 259.61,201.17 C 259.58,200.72 238.43,201.09 233.02,201.17 C 227.73,201.2 212.61,200.17 212.61,200.17 z"
   id="path3027" />
		<path
   d="M 151.81,130.34 L 152.97,132.25 C 152.97,132.25 168.91,131.68 174.7,131.74 C 174.79,131.74 174.881,131.74 174.96,131.74 C 180.74,131.68 196.69,132.25 196.69,132.25 L 197.85,130.34 L 197.87,130.3 L 204.46,119.5 C 204.75,118.83 204.96,118.24 205.061,117.75 C 206.281,111.85 201.341,98.4 192.441,95.35 C 190.231,94.59 179.691,93.94 174.891,94.01 L 174.891,93.99 C 174.741,93.99 174.591,94 174.441,94 L 174.441,94.01 C 173.221,94 171.671,94.03 170.011,94.09 C 164.971,94.29 158.841,94.79 157.221,95.35 C 148.321,98.4 143.381,111.85 144.591,117.75 C 144.691,118.22 144.891,118.78 145.161,119.42 L 145.171,119.43 L 151.791,130.3 L 151.81,130.34 z"
   id="path3029" />
		<path
   d="M 197.85,130.34 L 196.69,132.25 L 210.02,156.33 C 213.44,155.88 216.82,155.25 216.82,155.25 C 216.82,155.25 227.091,154.13 228.9,153.95 C 228.91,153.95 228.921,153.95 228.93,153.95 C 233.11,153.9 237.829,153.55 240.44,153.62 C 244.94,153.75 253,154.97 253.56,154 C 254.39,152.59 245.2,126.23 242.22,120.1 C 242.209,120.09 242.199,120.07 242.199,120.06 C 242.109,119.88 242.019,119.71 241.929,119.54 C 241.879,119.45 241.828,119.36 241.799,119.29 C 241.759,119.24 241.738,119.2 241.708,119.16 C 240.738,117.66 228.969,115.26 225.438,115.33 C 221.438,114.17 205.438,117.88 205.438,117.88 L 204.458,119.5 C 203.009,122.82 199.549,127.91 197.868,130.3 L 197.85,130.34 z"
   id="path3031" />
		<path
   d="M 210.06,156.62 L 198.19,176.58 C 198.19,176.58 198.23,176.65 198.32,176.78 C 199.56,178.75 209.62,194.66 212.27,199.58 C 212.54,200.08 227.69,200.94 233.19,201 C 239.04,200.96 257.19,200.92 259.69,200.25 C 259.69,200.25 258.93,184.55 258.44,180 C 257.82,174.25 256.19,161.25 254.19,155.25 C 253.75,153.92 235.82,153.93 231.19,154 C 226.66,154.03 210.06,156.62 210.06,156.62 z"
   id="path3033" />
		<path
   d="M 174.62,253.97 C 173.03,253.941 171.46,253.89 169.971,253.79 L 169.971,253.85 C 171.601,253.991 173.381,254.161 174.821,254.191 C 174.831,254.191 174.831,254.191 174.842,254.191 C 177.922,254.14 182.522,253.39 183.942,253.88 C 189.662,255.84 197.972,276.18 195.322,276.62 C 194.662,276.73 193.902,276.83 193.062,276.93 L 193.062,276.97 C 202.602,275.87 211.142,273.97 217.211,271.321 C 223.312,268.651 230.111,262.381 236.432,254.571 C 236.072,254.841 235.732,254.991 235.442,255.001 C 231.612,255.081 228.442,253.331 226.862,252.581 C 225.432,252.031 226.012,252.151 205.772,243.671 C 205.772,243.671 192.642,251.442 187.242,252.781 C 184.402,253.491 179.822,253.901 175.042,253.97 C 174.9,253.97 174.76,253.97 174.62,253.97 z"
   id="path3035" />
		<path
   d="M 315.01,127.3 C 316.55,127.3 318.09,127.25 319.63,127.17 C 320.59,127.12 321.55,127.06 322.51,126.98 C 324.26,126.84 325.94,126.57 327.59,126.11 C 328.619,125.83 329.63,125.47 330.63,125.02 C 330.869,124.91 331.14,124.82 331.359,124.68 C 331.439,124.63 331.519,124.58 331.589,124.52 C 333.359,123.36 335.009,121.41 336.399,119.05 C 337.409,117.33 338.279,115.39 338.949,113.39 C 338.949,113.37 338.959,113.36 338.959,113.34 C 338.989,113.25 339.01,113.16 339.029,113.08 C 339.349,111.85 339.209,111.38 338.92,110.97 C 333.23,102.98 308.44,76.47 295.789,73.82 C 287.769,72.14 252.729,74.37 251.14,79.66 C 250.24,82.68 257.05,88.14 259.81,92.3 C 260.73,93.85 261.73,95.31 262.7,96.81 C 265.91,101.73 266.54,104.21 267.71,106.89 C 269.04,109.95 270.391,113.06 271.351,115.84 C 271.931,117.53 273.381,118.79 274.811,119.89 C 275.761,120.62 277.161,121.09 278.25,121.6 C 279.221,122.06 280.21,122.49 281.23,122.84 C 282.82,123.4 284.47,123.69 286.12,123.98 C 290.141,124.7 294.091,125.65 298.15,126.11 C 302.41,126.58 306.7,127.04 310.98,127.22 C 312.32,127.28 313.66,127.3 315.01,127.3 z"
   id="path3037" />
		<path
   d="M 259.69,200.25 C 257.19,200.92 239.04,200.96 233.19,201 C 227.69,200.94 212.54,200.08 212.27,199.58 C 209.62,194.66 199.56,178.75 198.32,176.78 C 198.23,176.65 198.19,176.58 198.19,176.58 L 210.06,156.62 C 210.06,156.62 226.66,154.03 231.19,154 C 235.82,153.93 253.75,153.92 254.19,155.25 C 256.19,161.25 257.82,174.25 258.44,180 C 258.93,184.55 259.69,200.25 259.69,200.25 z M 137.05,200.17 L 156.22,221.08 L 143.89,243.67 L 156.55,220.75 C 156.55,220.75 169.64,220.49 174.83,220.51 C 179.2,220.5 189.16,220.68 192.21,220.731 C 192.78,220.741 193.11,220.751 193.11,220.751 L 212.61,200.171 C 212.61,200.171 227.73,201.201 233.02,201.171 C 238.43,201.091 259.58,200.721 259.61,201.171 C 259.64,201.741 259.66,202.301 259.66,202.871 C 260.591,180.131 254.551,143.811 242.221,120.101 C 245.2,126.231 254.391,152.591 253.561,154.001 C 253,154.971 244.941,153.751 240.441,153.621 C 237.831,153.551 233.111,153.901 228.931,153.951 C 228.921,153.951 228.91,153.951 228.901,153.951 C 227.091,154.131 216.821,155.251 216.821,155.251 C 216.821,155.251 213.441,155.881 210.021,156.331 L 198.061,176.121 C 198.061,176.121 181.511,174.791 174.921,174.841 L 174.74,174.841 C 168.15,174.791 151.59,176.121 151.59,176.121 L 139.64,156.331 C 136.22,155.881 132.84,155.251 132.84,155.251 C 132.84,155.251 122.57,154.131 120.76,153.951 C 120.75,153.951 120.74,153.951 120.73,153.951 C 120.14,153.941 119.54,153.931 118.93,153.911 L 118.93,154.011 C 124.02,154.191 139.59,156.621 139.59,156.621 L 151.47,176.581 C 151.47,176.581 140.22,194.331 137.39,199.581 C 137.12,200.081 122.27,200.921 116.64,201.001 L 116.64,201.171 C 121.93,201.2 137.05,200.17 137.05,200.17 z"
   id="path3039" />
		<path
   d="M 320.19,239.25 C 320.19,239.25 318.36,235.46 318.18,234.08 C 317.84,231.41 319.44,223.39 319.44,223.39 C 319.44,223.39 315.7,230.701 314.65,233.231 C 314.06,234.64 312.79,238.451 312.34,239.781 C 314.76,238.361 316.819,237.531 318.039,238.091 C 318.8,238.442 319.479,238.871 320.09,239.371 L 320.19,239.25 z"
   id="path3041" />
		<path
   d="M 318.34,132.36 C 319.209,134.19 320.749,140.1 320.749,140.1 C 320.749,140.1 321.569,134.94 321.399,133.22 C 321.269,131.78 319.899,127.93 319.629,127.17 C 318.089,127.25 316.549,127.3 315.009,127.3 C 315.49,127.96 317.74,131.11 318.34,132.36 z"
   id="path3043" />
		<path
   d="M 312.34,239.78 C 306.42,243.269 298.329,250.34 295.069,249.32 C 287.539,246.969 286.429,246.38 280.939,245.08 C 276.689,244.08 268.189,260.96 264.439,265.33 C 259.899,272.65 258.169,273.79 254.689,279.08 C 253.249,281.269 249.299,283.74 250.189,286.33 C 251.079,288.93 256.809,291.64 265.939,292.7 C 268.539,293 293.859,289.8 300.789,287.22 C 304.8,285.72 326.319,279.7 327.13,273.58 C 327.55,269.39 327.329,265.07 326.93,261.4 C 326.74,259.69 326.51,258.129 326.289,256.78 C 326.029,255.179 325.819,252.679 325.3,249.99 C 325.3,249.99 325.31,249.99 325.3,249.98 C 324.989,248.37 324.57,246.69 323.959,245.099 C 323.109,242.879 321.89,240.829 320.09,239.37 C 319.48,238.87 318.8,238.44 318.039,238.09 C 316.82,237.53 314.76,238.36 312.34,239.78 z"
   id="path3045" />
		<path
   d="M 326.29,256.78 C 326.511,258.13 326.74,259.69 326.931,261.4 L 327.021,261.389 C 327.021,261.389 330.431,258.169 331.731,257.329 C 333.441,256.239 339.101,253.959 339.101,253.959 C 339.101,253.959 333.881,253.809 332.191,254.189 C 330.62,254.55 326.29,256.78 326.29,256.78 z"
   id="path3047" />
		<path
   d="M 332.24,130.6 C 333.83,132.51 337.69,138.72 337.93,139.1 C 337.81,138.67 335.88,131.76 334.84,129.56 C 334.14,128.07 331.69,124.67 331.69,124.67 L 331.59,124.52 C 331.52,124.58 331.44,124.63 331.36,124.68 C 331.14,124.82 330.87,124.91 330.631,125.02 C 329.631,125.47 328.62,125.83 327.591,126.11 L 327.611,126.17 C 327.61,126.17 330.88,128.96 332.24,130.6 z"
   id="path3049" />
		<path
   d="M 336.4,119.05 L 336.61,119.17 C 336.61,119.17 340.89,119.5 342.27,119.5 C 344.59,119.5 350.12,122.67 351.58,123.54 C 350.841,122.67 346.57,117.7 344.41,116.46 C 343.06,115.68 339.99,113.71 339.051,113.09 C 339.021,113.17 338.99,113.26 338.96,113.34 C 338.96,113.36 338.95,113.37 338.95,113.39 C 338.28,115.39 337.41,117.33 336.4,119.05 z"
   id="path3051" />
		<path
   d="M 337.92,236.8 C 337.51,236.97 330.899,239.76 328.85,241.06 C 327.64,241.821 324.709,244.43 323.959,245.1 C 324.569,246.691 324.989,248.371 325.3,249.981 C 326.14,248.791 328.97,244.831 330.209,243.51 C 331.91,241.7 337.57,237.09 337.92,236.8 z"
   id="path3053" />
		<path
   d="M 339.03,113.08 C 339.01,113.16 338.99,113.25 338.96,113.34 C 338.99,113.26 339.021,113.17 339.051,113.09 C 339.04,113.1 339.04,113.09 339.03,113.08 z"
   id="path3055" />
	</g>
	<g
   id="g3057">
		<path
   d="M 205.63,65.77 C 205.69,65.68 205.76,65.59 205.829,65.48 C 207.249,63.22 209.399,57.25 209.42,57.25 C 210.82,44.36 202.83,10.33 191.19,9 C 186.74,8.49 181.64,0.6 174.58,0.5"
   id="path3059"
   style="fill:none;stroke:#000000" />
		<path
   d="M 206.06,65.5 C 205.98,65.49 205.91,65.48 205.83,65.48 C 197.66,64.63 185.21,63.72 176.52,63.5"
   id="path3061"
   style="fill:none;stroke:#000000" />
		<path
   d="M 176.61,304.08 C 197.2,303.75 217.31,300.85 229.54,295.49 C 251.32,285.96 280.03,240.36 282.86,216.76 C 287.33,179.52 272.02,96.67 239.77,77.5 C 231.77,72.74 193.56,68.75 176.19,69.25"
   id="path3063"
   style="fill:none;stroke:#000000" />
		<path
   d="M 259.81,92.3 C 257.05,88.14 250.24,82.68 251.14,79.66 C 252.73,74.37 287.77,72.14 295.789,73.82 C 308.439,76.47 333.229,102.98 338.92,110.97 C 339.209,111.38 339.35,111.85 339.029,113.08 C 339.009,113.16 338.989,113.25 338.959,113.34"
   id="path3065"
   style="fill:none;stroke:#000000" />
		<path
   d="M 144.94,65.5 C 144.95,65.5 144.95,65.5 144.96,65.5 C 153.52,64.57 167.56,63.72 176.52,63.5"
   id="path3067"
   style="fill:none;stroke:#000000" />
		<path
   d="M 176.61,304.08 C 176.55,304.08 176.5,304.08 176.44,304.08 C 155.86,303.75 135.74,300.85 123.51,295.49 C 101.73,285.96 73.03,240.36 70.19,216.76 C 65.72,179.52 81.04,96.67 113.28,77.5 C 121.11,72.85 159.19,69.5 176.19,69.25"
   id="path3069"
   style="fill:none;stroke:#000000" />
		<path
   d="M 259.81,92.3 C 260.73,93.85 261.73,95.31 262.7,96.81 C 265.91,101.73 266.54,104.21 267.71,106.89 C 269.04,109.95 270.391,113.06 271.351,115.84 C 271.931,117.53 273.381,118.79 274.811,119.89 C 275.761,120.62 277.161,121.09 278.25,121.6 C 279.221,122.06 280.21,122.49 281.23,122.84 C 282.82,123.4 284.47,123.69 286.12,123.98 C 290.141,124.7 294.091,125.65 298.15,126.11 C 302.41,126.58 306.7,127.04 310.98,127.22 C 312.32,127.28 313.66,127.3 315.01,127.3 C 316.55,127.3 318.09,127.25 319.63,127.17 C 320.59,127.12 321.55,127.06 322.51,126.98 C 324.26,126.84 325.94,126.57 327.59,126.11 C 328.619,125.83 329.63,125.47 330.63,125.02 C 330.869,124.91 331.14,124.82 331.359,124.68 C 331.439,124.63 331.519,124.58 331.589,124.52 C 333.359,123.36 335.009,121.41 336.399,119.05 C 337.409,117.33 338.279,115.39 338.949,113.39 C 338.949,113.37 338.959,113.36 338.959,113.34 C 338.989,113.26 339.02,113.17 339.05,113.09 C 339.05,113.08 339.06,113.06 339.06,113.05"
   id="path3071"
   style="fill:none;stroke:#000000" />
		<path
   d="M 87.69,265.58 C 84.05,262.67 75.19,245.33 72.44,242.08 C 68.08,236.93 59.03,260.64 54.34,268.309 C 51.26,273.339 47.11,280.82 43.04,287.98 C 41.27,291.08 29.5,292.169 22.24,294.139 C 19.31,294.929 17.11,295.869 16.59,297.139 C 16.24,297.969 16.04,298.809 15.95,299.639 C 15.69,301.98 16.33,304.28 17.37,306.429 C 18.11,307.959 19.06,309.419 20.04,310.74 C 21.67,312.94 23.38,314.78 24.39,316.059 C 24.42,316.099 24.45,316.129 24.47,316.169 C 25.34,317.269 26.36,318.509 27.52,319.829 C 29.95,322.579 32.98,325.619 36.4,328.129 C 36.44,328.159 36.48,328.19 36.52,328.219"
   id="path3073"
   style="fill:none;stroke:#000000" />
		<path
   d="M 87.69,265.58 C 90.34,268.98 95.52,275.83 98.69,279.83 C 104.44,287.08 103.59,288.84 98.36,296.21 C 96.76,298.46 74.79,314.65 67.43,317.97 C 63.17,319.89 41.82,331.58 36.52,327.97"
   id="path3075"
   style="fill:none;stroke:#000000" />
		<path
   d="M 325.3,249.99 C 325.82,252.679 326.029,255.179 326.289,256.78 C 326.51,258.13 326.739,259.69 326.93,261.4 C 327.329,265.07 327.55,269.389 327.13,273.58"
   id="path3077"
   style="fill:none;stroke:#000000" />
		<path
   d="M 264.44,265.33 C 268.19,260.96 276.69,244.08 280.94,245.08 C 286.43,246.38 287.54,246.97 295.07,249.32 C 298.33,250.34 306.421,243.269 312.341,239.78 C 314.761,238.36 316.82,237.53 318.04,238.09 C 318.801,238.441 319.48,238.87 320.091,239.37 C 321.891,240.83 323.111,242.88 323.96,245.099 C 324.57,246.69 324.99,248.37 325.301,249.98"
   id="path3079"
   style="fill:none;stroke:#000000" />
		<path
   d="M 264.44,265.33 C 259.9,272.65 258.17,273.79 254.69,279.08 C 253.25,281.269 249.3,283.74 250.19,286.33 C 251.08,288.93 256.81,291.64 265.94,292.7 C 268.54,293 293.86,289.8 300.79,287.22 C 304.801,285.72 326.32,279.7 327.131,273.58"
   id="path3081"
   style="fill:none;stroke:#000000" />
		<path
   d="M 98.77,85.5 C 103.69,78.46 114.03,73.54 114.94,72.83 C 117.19,71.08 103.45,57.1 97.06,51.96 C 86.98,43.87 50.76,41.55 40.98,42.24 C 40.5,42.28 40.06,42.45 39.35,43.39 C 39.27,43.49 39.19,43.61 39.1,43.73"
   id="path3083"
   style="fill:none;stroke:#000000" />
		<path
   d="M 98.77,85.5 C 95.69,88.5 89.44,101.23 86.69,102.25 C 85.02,102.88 76.55,97.83 74.79,97.44 C 73.62,97.16 72.37,96.37 71.29,95.86 C 70.31,95.39 69.35,94.9 68.44,94.35 C 67,93.46 65.73,92.38 64.45,91.29 C 61.35,88.65 58.1,86.19 55.17,83.35 C 52.1,80.36 49.01,77.33 46.15,74.14 C 45.23,73.1 44.32,72.04 43.44,70.96 C 42.48,69.78 41.54,68.58 40.65,67.35 C 40.09,66.6 39.55,65.84 39.02,65.08 C 38,63.61 37.12,62.11 36.43,60.5 C 36.01,59.56 35.66,58.58 35.39,57.56 C 35.32,57.31 35.21,57.04 35.18,56.78 C 35.16,56.66 35.15,56.53 35.15,56.4 C 34.94,54.28 35.42,51.77 36.37,49.21 C 37.05,47.37 37.98,45.51 39.08,43.76 C 39.09,43.75 39.09,43.74 39.1,43.73 C 39.16,43.64 39.21,43.55 39.27,43.46"
   id="path3085"
   style="fill:none;stroke:#000000" />
		<path
   d="M 145.13,65.77 C 145.07,65.69 145.01,65.6 144.96,65.5 C 143.53,63.25 141.36,57.25 141.35,57.25 C 139.95,44.36 147.94,10.33 159.579,9 C 164.029,8.49 167.519,0.6 174.579,0.5"
   id="path3087"
   style="fill:none;stroke:#000000" />
		<path
   d="M 323.959,245.1 C 323.84,245.201 323.779,245.26 323.779,245.26"
   id="path3089"
   style="fill:none;stroke:#000000" />
		<path
   d="M 20.58,310.81 C 20.58,310.81 20.38,310.781 20.04,310.741 C 18.37,310.541 13.32,309.941 11.39,309.951 C 8.6,309.951 0.25,311.051 0.25,311.051"
   id="path3091"
   style="fill:none;stroke:#000000" />
		<path
   d="M 0.25,311.05 C 0.25,311.05 7.89,307.91 10.57,307.27 C 12.06,306.901 16.16,306.531 17.37,306.43 C 17.59,306.41 17.71,306.401 17.71,306.401"
   id="path3093"
   style="fill:none;stroke:#000000" />
		<path
   d="M 15.91,299.64 C 15.91,299.64 14.43,295.691 13.51,294.62 C 11.8,292.599 4.84,288.49 4.4,288.23"
   id="path3095"
   style="fill:none;stroke:#000000" />
		<path
   d="M 4.38,288.22 C 4.38,288.22 4.39,288.22 4.4,288.231 C 4.9,288.361 12.95,290.491 15.61,291.42 C 17.08,291.93 20.75,293.5 22.24,294.14 C 22.64,294.31 22.88,294.42 22.88,294.42"
   id="path3097"
   style="fill:none;stroke:#000000" />
		<path
   d="M 24.56,316.14 C 24.56,316.14 24.53,316.151 24.47,316.17 C 23.78,316.4 19.37,317.88 18,318.72 C 16.47,319.67 12.79,323.34 12.49,323.651"
   id="path3099"
   style="fill:none;stroke:#000000" />
		<path
   d="M 12.49,323.65 C 12.85,323.5 18.68,321.019 20.77,320.53 C 22.42,320.15 27.52,319.83 27.52,319.83"
   id="path3101"
   style="fill:none;stroke:#000000" />
		<path
   d="M 12.49,323.65 C 12.48,323.66 12.47,323.66 12.47,323.66"
   id="path3103"
   style="fill:none;stroke:#000000" />
		<path
   d="M 327.61,126.17 C 327.61,126.17 330.881,128.96 332.24,130.6 C 333.83,132.51 337.69,138.72 337.93,139.1"
   id="path3105"
   style="fill:none;stroke:#000000" />
		<path
   d="M 337.94,139.12 C 337.94,139.12 337.94,139.11 337.93,139.1 C 337.81,138.67 335.88,131.76 334.84,129.56 C 334.14,128.07 331.69,124.67 331.69,124.67"
   id="path3107"
   style="fill:none;stroke:#000000" />
		<path
   d="M 336.61,119.17 C 336.61,119.17 340.89,119.5 342.27,119.5 C 344.59,119.5 350.12,122.67 351.58,123.54 C 351.81,123.67 351.94,123.75 351.94,123.75"
   id="path3109"
   style="fill:none;stroke:#000000" />
		<path
   d="M 351.69,123.67 C 351.69,123.67 351.65,123.62 351.58,123.54 C 350.841,122.67 346.57,117.7 344.41,116.46 C 343.06,115.68 339.99,113.71 339.051,113.09 C 339.04,113.1 339.04,113.09 339.03,113.08 C 338.86,112.98 338.77,112.92 338.77,112.92"
   id="path3111"
   style="fill:none;stroke:#000000" />
		<path
   d="M 319.58,127.04 C 319.58,127.04 319.601,127.09 319.631,127.17 C 319.901,127.93 321.271,131.78 321.401,133.22 C 321.571,134.94 320.751,140.1 320.751,140.1"
   id="path3113"
   style="fill:none;stroke:#000000" />
		<path
   d="M 320.75,140.1 C 320.75,140.1 319.21,134.19 318.341,132.36 C 317.74,131.11 315.49,127.96 315.011,127.3 C 314.95,127.22 314.921,127.18 314.921,127.18"
   id="path3115"
   style="fill:none;stroke:#000000" />
		<path
   d="M 36.48,60.51 C 36.48,60.51 36.46,60.51 36.43,60.5 C 35.96,60.42 32.11,59.77 30.11,59.77 C 27.55,59.76 19.91,60.8 19.91,60.8"
   id="path3117"
   style="fill:none;stroke:#000000" />
		<path
   d="M 19.91,60.8 C 19.91,60.8 26.82,57.72 29.25,57.09 C 30.84,56.68 35.03,56.41 35.03,56.41"
   id="path3119"
   style="fill:none;stroke:#000000" />
		<path
   d="M 36.14,49.12 C 36.14,49.12 33.16,46.03 32.27,44.96 C 30.8,43.18 24.87,40.95 23.25,40.36 C 22.99,40.27 22.84,40.22 22.84,40.22"
   id="path3121"
   style="fill:none;stroke:#000000" />
		<path
   d="M 23.06,40.36 C 23.06,40.36 23.13,40.36 23.25,40.36 C 24.45,40.38 30.93,40.5 33.26,41.38 C 34.77,41.95 38.42,43.1 39.35,43.39 C 39.49,43.44 39.57,43.46 39.57,43.46"
   id="path3123"
   style="fill:none;stroke:#000000" />
		<path
   d="M 40.92,67.26 C 40.92,67.26 40.82,67.29 40.65,67.35 C 39.66,67.72 36.14,69.02 35,69.79 C 33.62,70.72 30.39,74.36 30.13,74.67"
   id="path3125"
   style="fill:none;stroke:#000000" />
		<path
   d="M 30.13,74.67 C 30.45,74.52 35.7,72.08 37.61,71.6 C 38.86,71.28 42.34,71.03 43.44,70.96 C 43.65,70.95 43.78,70.94 43.78,70.94"
   id="path3127"
   style="fill:none;stroke:#000000" />
		<path
   d="M 30.13,74.67 C 30.12,74.68 30.11,74.68 30.11,74.68"
   id="path3129"
   style="fill:none;stroke:#000000" />
		<path
   d="M 241.8,119.29 C 237.15,110.55 231.619,103.61 225.249,99.83 C 219.029,96.13 188.77,93.66 174.89,93.99 C 174.74,93.99 174.59,94 174.44,94"
   id="path3131"
   style="fill:none;stroke:#ffffff;stroke-width:3" />
		<path
   d="M 242.2,120.06 C 242.11,119.88 242.02,119.71 241.93,119.54"
   id="path3133"
   style="fill:none;stroke:#ffffff;stroke-width:3" />
		<path
   d="M 259.04,210.22 C 259.08,209.941 259.12,209.66 259.15,209.39 C 259.39,207.38 259.56,205.201 259.66,202.87 C 260.591,180.13 254.551,143.81 242.221,120.1"
   id="path3135"
   style="fill:none;stroke:#ffffff;stroke-width:3" />
		<path
   d="M 257.6,216.42 C 258.26,214.26 258.74,212.21 259.02,210.32"
   id="path3137"
   style="fill:none;stroke:#ffffff;stroke-width:3" />
		<path
   d="M 250.69,232.81 C 253.51,227.441 255.8,222.14 257.32,217.371"
   id="path3139"
   style="fill:none;stroke:#ffffff;stroke-width:3" />
		<path
   d="M 175.43,278.08 C 181.459,277.99 187.43,277.61 193.06,276.97 C 202.6,275.87 211.14,273.97 217.209,271.321 C 223.31,268.651 230.109,262.381 236.43,254.571 C 238.2,252.381 239.94,250.071 241.6,247.691 C 244.84,243.081 247.829,238.18 250.41,233.34"
   id="path3141"
   style="fill:none;stroke:#ffffff;stroke-width:3" />
		<path
   d="M 197.87,130.3 C 199.551,127.91 203.011,122.82 204.46,119.5 C 204.75,118.83 204.96,118.24 205.061,117.75 C 206.281,111.85 201.341,98.4 192.441,95.35 C 190.231,94.59 179.691,93.94 174.891,94.01"
   id="path3143"
   style="fill:none;stroke:#ffffff;stroke-width:3" />
		<path
   d="M 175.08,131.24 C 180.78,131.2 196.94,131.62 196.94,131.62 C 196.94,131.62 197.29,131.14 197.85,130.34"
   id="path3145"
   style="fill:none;stroke:#ffffff;stroke-width:3" />
		<path
   d="M 198.19,176.58 C 198.19,176.58 181.91,175.05 176.04,175.13"
   id="path3147"
   style="fill:none;stroke:#ffffff;stroke-width:3" />
		<polyline
   points="193.11,220.75 212.61,200.17 198.32,176.78   "
   id="polyline3149"
   style="fill:none;stroke:#ffffff;stroke-width:3" />
		<path
   d="M 175.27,220.5 C 181.04,220.46 189.47,220.66 192.209,220.73"
   id="path3151"
   style="fill:none;stroke:#ffffff;stroke-width:3" />
		<path
   d="M 196.69,132.25 C 196.69,132.25 180.74,131.68 174.96,131.74"
   id="path3153"
   style="fill:none;stroke:#ffffff;stroke-width:3" />
		<path
   d="M 174.92,174.84 C 181.51,174.79 198.06,176.12 198.06,176.12 L 210.02,156.33"
   id="path3155"
   style="fill:none;stroke:#ffffff;stroke-width:3" />
		<path
   d="M 175.04,253.97 C 179.82,253.901 184.4,253.491 187.24,252.781 C 192.64,251.441 205.77,243.671 205.77,243.671 L 193.11,220.751 C 193.11,220.751 192.78,220.741 192.21,220.731 C 189.16,220.68 179.2,220.501 174.83,220.51 C 174.49,220.51 174.181,220.51 173.91,220.52"
   id="path3157"
   style="fill:none;stroke:#ffffff;stroke-width:3" />
		<path
   d="M 174.08,253.98 C 174.261,253.98 174.44,253.98 174.62,253.969"
   id="path3159"
   style="fill:none;stroke:#ffffff;stroke-width:3" />
		<path
   d="M 174.84,278 C 176.65,277.99 180.39,277.88 184.409,277.62 C 187.389,277.43 190.559,277.21 193.059,276.93 C 193.899,276.83 194.659,276.731 195.319,276.62 C 197.969,276.18 189.659,255.84 183.939,253.88 C 182.519,253.39 177.919,254.14 174.839,254.191"
   id="path3161"
   style="fill:none;stroke:#ffffff;stroke-width:3" />
		<path
   d="M 233.19,201 C 239.04,200.96 257.19,200.92 259.69,200.25 C 259.69,200.25 258.93,184.55 258.44,180 C 257.82,174.25 256.19,161.25 254.19,155.25 C 253.75,153.92 235.82,153.93 231.19,154"
   id="path3163"
   style="fill:none;stroke:#ffffff;stroke-width:3" />
		<path
   d="M 233.19,201 C 227.69,200.94 212.54,200.08 212.27,199.58 C 209.62,194.66 199.56,178.75 198.32,176.78 C 198.23,176.65 198.19,176.58 198.19,176.58 L 210.06,156.62 C 210.06,156.62 226.66,154.03 231.19,154"
   id="path3165"
   style="fill:none;stroke:#ffffff;stroke-width:3" />
		<path
   d="M 228.93,153.95 C 233.11,153.9 237.829,153.55 240.44,153.62 C 244.94,153.75 253,154.97 253.56,154 C 254.39,152.59 245.2,126.23 242.22,120.1 C 242.209,120.09 242.199,120.07 242.199,120.06 C 242.099,119.86 242.01,119.69 241.929,119.54 C 241.879,119.45 241.828,119.36 241.799,119.29 C 241.759,119.24 241.738,119.2 241.708,119.16 C 240.738,117.66 228.969,115.26 225.438,115.33"
   id="path3167"
   style="fill:none;stroke:#ffffff;stroke-width:3" />
		<path
   d="M 228.93,153.95 C 228.92,153.95 228.909,153.95 228.9,153.95 C 227.09,154.13 216.82,155.25 216.82,155.25 C 216.82,155.25 213.44,155.88 210.02,156.33 L 196.69,132.25 L 197.85,130.34 L 197.87,130.3 L 204.46,119.5 L 205.44,117.88 C 205.44,117.88 221.44,114.17 225.44,115.33"
   id="path3169"
   style="fill:none;stroke:#ffffff;stroke-width:3" />
		<path
   d="M 226.86,252.58 C 228.44,253.33 231.61,255.08 235.44,255 C 235.73,254.99 236.07,254.84 236.43,254.57 C 238.079,253.36 240.289,249.889 241.6,247.69 C 242.18,246.73 242.579,246.009 242.69,245.83 C 243.66,244.23 246.97,239.61 250.41,233.34 C 250.5,233.16 250.6,232.99 250.69,232.81 C 253.13,228.31 255.6,223.01 257.32,217.371 C 257.43,217.06 257.52,216.741 257.6,216.421 C 258.19,214.421 258.67,212.381 259.02,210.321 C 259.03,210.291 259.04,210.26 259.04,210.22 C 259.45,207.79 259.681,205.321 259.66,202.87 C 259.66,202.3 259.64,201.74 259.61,201.17 C 259.58,200.72 238.43,201.09 233.02,201.17"
   id="path3171"
   style="fill:none;stroke:#ffffff;stroke-width:3" />
		<path
   d="M 226.86,252.58 C 225.43,252.03 226.01,252.15 205.77,243.67 L 193.44,221.08 L 212.61,200.17 C 212.61,200.17 227.73,201.2 233.02,201.17"
   id="path3173"
   style="fill:none;stroke:#ffffff;stroke-width:3" />
		<path
   d="M 107.86,119.3 C 112.5,110.56 118.03,103.62 124.4,99.83 C 130.04,96.48 155.03,94.24 170.01,94.09 C 171.77,94.07 173.39,94.08 174.82,94.12"
   id="path3175"
   style="fill:none;stroke:#ffffff;stroke-width:3" />
		<path
   d="M 90.62,210.22 C 90.58,209.941 90.54,209.66 90.51,209.39 C 90.27,207.38 90.1,205.201 90,202.87 C 89.07,180.11 95.11,143.77 107.46,120.06"
   id="path3177"
   style="fill:none;stroke:#ffffff;stroke-width:3" />
		<path
   d="M 92.06,216.42 C 91.4,214.26 90.92,212.21 90.64,210.32"
   id="path3179"
   style="fill:none;stroke:#ffffff;stroke-width:3" />
		<path
   d="M 98.97,232.81 C 96.15,227.441 93.86,222.14 92.34,217.371"
   id="path3181"
   style="fill:none;stroke:#ffffff;stroke-width:3" />
		<path
   d="M 174.23,278.08 C 168.43,277.99 162.68,277.64 157.24,277.04 C 147.44,275.95 138.66,274.03 132.45,271.32 C 126.35,268.65 119.55,262.38 113.23,254.57 C 111.46,252.38 109.72,250.07 108.06,247.69 C 104.82,243.08 101.83,238.179 99.25,233.339"
   id="path3183"
   style="fill:none;stroke:#ffffff;stroke-width:3" />
		<path
   d="M 145.16,119.42 C 144.89,118.78 144.69,118.22 144.59,117.75 C 143.38,111.85 148.32,98.4 157.22,95.35 C 158.84,94.79 164.97,94.29 170.01,94.09 C 171.67,94.03 173.22,94 174.44,94.01 C 174.55,94.01 174.66,94.01 174.77,94.01"
   id="path3185"
   style="fill:none;stroke:#ffffff;stroke-width:3" />
		<path
   d="M 151.79,130.3 C 150.1,127.9 146.6,122.75 145.17,119.43"
   id="path3187"
   style="fill:none;stroke:#ffffff;stroke-width:3" />
		<path
   d="M 174.57,131.24 C 168.881,131.2 152.72,131.62 152.72,131.62 C 152.72,131.62 152.37,131.14 151.81,130.34"
   id="path3189"
   style="fill:none;stroke:#ffffff;stroke-width:3" />
		<path
   d="M 152.97,132.25 C 152.97,132.25 168.91,131.68 174.7,131.74 C 174.79,131.74 174.881,131.74 174.96,131.74"
   id="path3191"
   style="fill:none;stroke:#ffffff;stroke-width:3" />
		<path
   d="M 174.74,174.84 C 168.15,174.79 151.59,176.12 151.59,176.12 L 139.64,156.33"
   id="path3193"
   style="fill:none;stroke:#ffffff;stroke-width:3" />
		<path
   d="M 175.58,253.98 C 175.4,253.98 175.221,253.98 175.04,253.969 C 174.9,253.969 174.761,253.969 174.62,253.969 C 173.03,253.94 171.46,253.889 169.971,253.789 C 166.981,253.589 164.311,253.259 162.41,252.779 C 157.02,251.439 143.89,243.669 143.89,243.669 L 156.55,220.749 C 156.55,220.749 169.64,220.489 174.83,220.509 C 175.171,220.509 175.48,220.509 175.75,220.519"
   id="path3195"
   style="fill:none;stroke:#ffffff;stroke-width:3" />
		<path
   d="M 174.84,278 C 174.829,278 174.829,278 174.819,278 C 173.009,277.99 169.269,277.88 165.249,277.62 C 162.52,277.45 159.63,277.25 157.239,277 C 156.149,276.88 155.159,276.76 154.339,276.62 C 151.689,276.18 159.999,255.84 165.719,253.88 C 166.469,253.62 168.129,253.71 169.969,253.85 C 171.599,253.991 173.379,254.161 174.819,254.191 C 174.829,254.191 174.829,254.191 174.84,254.191"
   id="path3197"
   style="fill:none;stroke:#ffffff;stroke-width:3" />
		<path
   d="M 116.47,201 C 116.52,201 116.58,201 116.64,201 C 122.27,200.92 137.12,200.08 137.39,199.58 C 140.22,194.33 151.47,176.58 151.47,176.58 L 139.59,156.62 C 139.59,156.62 124.02,154.19 118.93,154.01 C 118.77,154 118.61,154 118.47,154"
   id="path3199"
   style="fill:none;stroke:#ffffff;stroke-width:3" />
		<path
   d="M 120.73,153.95 C 120.14,153.94 119.54,153.93 118.93,153.91 C 115.26,153.81 111.46,153.56 109.22,153.62 C 104.72,153.75 96.66,154.97 96.09,154 C 95.27,152.59 104.5,126.1 107.46,120.06 C 107.61,119.75 107.75,119.5 107.86,119.3 C 107.89,119.25 107.92,119.2 107.95,119.16 C 108.92,117.66 120.69,115.26 124.22,115.33"
   id="path3201"
   style="fill:none;stroke:#ffffff;stroke-width:3" />
		<path
   d="M 120.73,153.95 C 120.74,153.95 120.75,153.95 120.76,153.95 C 122.57,154.13 132.84,155.25 132.84,155.25 C 132.84,155.25 136.22,155.88 139.64,156.33 L 152.97,132.25 L 151.81,130.34 L 151.79,130.3 L 145.17,119.43 L 145.16,119.42 L 144.22,117.88 C 144.22,117.88 128.22,114.17 124.22,115.33"
   id="path3203"
   style="fill:none;stroke:#ffffff;stroke-width:3" />
		<path
   d="M 122.8,252.58 C 121.22,253.33 118.05,255.08 114.22,255 C 113.93,254.99 113.59,254.84 113.23,254.57 C 111.58,253.36 109.37,249.889 108.06,247.69 C 107.48,246.73 107.08,246.009 106.97,245.83 C 106,244.23 102.69,239.61 99.25,233.34 C 99.16,233.16 99.06,232.99 98.97,232.81 C 96.53,228.31 94.06,223.01 92.34,217.371 C 92.23,217.06 92.14,216.741 92.06,216.421 C 91.47,214.421 90.99,212.381 90.64,210.321 C 90.63,210.291 90.62,210.26 90.62,210.22 C 90.21,207.79 89.98,205.321 90,202.87 C 90,202.3 90.02,201.74 90.05,201.17 C 90.08,200.72 111.23,201.09 116.64,201.17"
   id="path3205"
   style="fill:none;stroke:#ffffff;stroke-width:3" />
		<path
   d="M 122.8,252.58 C 124.23,252.03 123.65,252.15 143.89,243.67 L 156.22,221.08 L 137.05,200.17 C 137.05,200.17 121.93,201.2 116.64,201.17"
   id="path3207"
   style="fill:none;stroke:#ffffff;stroke-width:3" />
	</g>
</g>
</svg>