<?xml version="1.0" encoding="UTF-8" standalone="no"?>
<!-- Created with Inkscape (http://www.inkscape.org/) -->
<svg
   xmlns:dc="http://purl.org/dc/elements/1.1/"
   xmlns:cc="http://creativecommons.org/ns#"
   xmlns:rdf="http://www.w3.org/1999/02/22-rdf-syntax-ns#"
   xmlns:svg="http://www.w3.org/2000/svg"
   xmlns="http://www.w3.org/2000/svg"
   xmlns:xlink="http://www.w3.org/1999/xlink"
   xmlns:sodipodi="http://sodipodi.sourceforge.net/DTD/sodipodi-0.dtd"
   xmlns:inkscape="http://www.inkscape.org/namespaces/inkscape"
   width="34.011547"
   height="33.983959"
   id="svg11562"
   version="1.1"
   inkscape:version="0.46"
   sodipodi:docname="paint.svg"
   sodipodi:version="0.32"
   inkscape:output_extension="org.inkscape.output.svg.inkscape">
  <defs
     id="defs11564">
    <linearGradient
       id="linearGradient4968">
      <stop
         style="stop-color:#005173;stop-opacity:1;"
         offset="0"
         id="stop4970" />
      <stop
         style="stop-color:#00202d;stop-opacity:0.79292929;"
         offset="1"
         id="stop4972" />
    </linearGradient>
    <inkscape:perspective
       sodipodi:type="inkscape:persp3d"
       inkscape:vp_x="0 : 526.18109 : 1"
       inkscape:vp_y="0 : 1000 : 0"
       inkscape:vp_z="744.09448 : 526.18109 : 1"
       inkscape:persp3d-origin="372.04724 : 350.78739 : 1"
       id="perspective11570" />
    <inkscape:perspective
       id="perspective11548"
       inkscape:persp3d-origin="0.5 : 0.33333333 : 1"
       inkscape:vp_z="1 : 0.5 : 1"
       inkscape:vp_y="0 : 1000 : 0"
       inkscape:vp_x="0 : 0.5 : 1"
       sodipodi:type="inkscape:persp3d" />
    <linearGradient
       inkscape:collect="always"
       xlink:href="#linearGradient5418"
       id="linearGradient5439"
       gradientUnits="userSpaceOnUse"
       x1="358.70517"
       y1="776.24896"
       x2="372.20352"
       y2="778.47119" />
    <linearGradient
       id="linearGradient5418">
      <stop
         id="stop5420"
         offset="0"
         style="stop-color:#00a800;stop-opacity:1;" />
      <stop
         id="stop5422"
         offset="1"
         style="stop-color:#000000;stop-opacity:1;" />
    </linearGradient>
    <inkscape:perspective
       id="perspective4846"
       inkscape:persp3d-origin="372.04724 : 350.78739 : 1"
       inkscape:vp_z="744.09448 : 526.18109 : 1"
       inkscape:vp_y="0 : 1000 : 0"
       inkscape:vp_x="0 : 526.18109 : 1"
       sodipodi:type="inkscape:persp3d" />
    <inkscape:perspective
       id="perspective4928"
       inkscape:persp3d-origin="372.04724 : 350.78739 : 1"
       inkscape:vp_z="744.09448 : 526.18109 : 1"
       inkscape:vp_y="0 : 1000 : 0"
       inkscape:vp_x="0 : 526.18109 : 1"
       sodipodi:type="inkscape:persp3d" />
    <linearGradient
       inkscape:collect="always"
       xlink:href="#linearGradient4968"
       id="linearGradient4974"
       x1="16.028229"
       y1="21.236277"
       x2="31.902112"
       y2="21.236277"
       gradientUnits="userSpaceOnUse" />
  </defs>
  <sodipodi:namedview
     id="base"
     pagecolor="#ffffff"
     bordercolor="#666666"
     borderopacity="1.0"
     inkscape:pageopacity="0.0"
     inkscape:pageshadow="2"
     inkscape:zoom="9.9519426"
     inkscape:cx="26.052795"
     inkscape:cy="2.633631"
     inkscape:document-units="px"
     inkscape:current-layer="layer1"
     showgrid="false"
     inkscape:window-width="1680"
     inkscape:window-height="964"
     inkscape:window-x="-4"
     inkscape:window-y="-3"
     inkscape:window-maximized="0" />
  <metadata
     id="metadata11567">
    <rdf:RDF>
      <cc:Work
         rdf:about="">
        <dc:format>image/svg+xml</dc:format>
        <dc:type
           rdf:resource="http://purl.org/dc/dcmitype/StillImage" />
        <dc:title />
      </cc:Work>
    </rdf:RDF>
  </metadata>
  <g
     inkscape:label="Layer 1"
     inkscape:groupmode="layer"
     id="layer1"
     transform="translate(-771.56566,-346.79878)">
    <path
       style="fill:#00a800;fill-opacity:1;stroke:#003300;stroke-width:1.33644712;stroke-miterlimit:4;stroke-dasharray:none;stroke-opacity:1"
       d="M 790.51081,349.88434 L 778.66073,366.92568 L 790.87539,375.92091 C 794.02176,377.72686 799.06124,376.83373 801.81175,373.82554 C 804.71173,370.65389 806.07742,364.67923 803.67533,361.7594 L 790.51081,349.88434 z"
       id="path5383-4"
       sodipodi:nodetypes="cccscc" />
    <path
       sodipodi:type="arc"
       style="fill:url(#linearGradient5439);fill-opacity:1;stroke:#003300;stroke-width:2;stroke-miterlimit:4;stroke-dasharray:none;stroke-opacity:1"
       id="path5383"
       sodipodi:cx="369.86078"
       sodipodi:cy="776.24896"
       sodipodi:rx="10.15561"
       sodipodi:ry="11.629811"
       d="M 380.01639,776.24896 A 10.15561,11.629811 0 1 1 359.70517,776.24896 A 10.15561,11.629811 0 1 1 380.01639,776.24896 z"
       transform="matrix(0.5614282,0.6824356,-0.5918785,0.6473264,1035.8267,-396.98515)" />
    <path
       style="fill:#005173;stroke:#0074a5;fill-opacity:1;stroke-opacity:1;stroke-width:0.50000000000000000;stroke-miterlimit:4;stroke-dasharray:none"
       d="M 4.90625 14.59375 C 4.49678 14.73901 4.4629601 14.88443 4.4375 15.03125 C 4.41645 15.15238 4.4375001 15.31018 4.4375 15.4375 C 4.4375 15.47383 4.4152301 15.53682 4.4375 15.5625 C 4.4598 15.58818 4.50897 15.53682 4.53125 15.5625 C 4.56274 15.59881 4.49976 15.74495 4.53125 15.78125 C 4.55353 15.80693 4.60273 15.75558 4.625 15.78125 C 4.66954 15.83261 4.58046 15.94864 4.625 16 C 4.6473 16.02568 4.6964799 15.97432 4.71875 16 C 4.74103 16.02569 4.7187499 16.057441 4.71875 16.09375 C 4.75026 16.09375 4.7902299 16.068071 4.8125 16.09375 C 4.84399 16.13006 4.7810099 16.276191 4.8125 16.3125 C 4.8348 16.33818 4.8839798 16.286821 4.90625 16.3125 C 4.92853 16.33821 4.8839798 16.411819 4.90625 16.4375 C 4.92854 16.46318 4.9777298 16.411819 5 16.4375 C 5.03149 16.4738 4.9685098 16.619949 5 16.65625 C 5.02229 16.68193 5.0714802 16.630579 5.09375 16.65625 C 5.1383 16.70761 5.0492102 16.82364 5.09375 16.875 C 5.11605 16.90068 5.1652301 16.84932 5.1875 16.875 C 5.21899 16.91127 5.1560101 17.05744 5.1875 17.09375 C 5.20979 17.11943 5.2589801 17.06807 5.28125 17.09375 C 5.30352 17.11946 5.2589801 17.16182 5.28125 17.1875 C 5.30355 17.21318 5.35273 17.16182 5.375 17.1875 C 5.41954 17.23886 5.33045 17.3549 5.375 17.40625 C 5.39728 17.43193 5.44648 17.38058 5.46875 17.40625 C 5.49102 17.43196 5.44648 17.505571 5.46875 17.53125 C 5.49104 17.55692 5.5402299 17.505571 5.5625 17.53125 C 5.60704 17.5826 5.5179599 17.698641 5.5625 17.75 C 5.58479 17.77568 5.6339799 17.724321 5.65625 17.75 C 5.67852 17.7757 5.6339799 17.818071 5.65625 17.84375 C 5.67854 17.86943 5.7277298 17.818071 5.75 17.84375 C 5.79454 17.89511 5.7054498 18.011149 5.75 18.0625 C 5.77229 18.08818 5.8214798 18.036819 5.84375 18.0625 C 5.86602 18.0882 5.8214798 18.161831 5.84375 18.1875 C 5.86604 18.21318 5.9152202 18.161831 5.9375 18.1875 C 5.95977 18.21321 5.9152202 18.25557 5.9375 18.28125 C 5.95979 18.30692 6.0402302 18.25557 6.0625 18.28125 C 6.08477 18.30694 6.0402302 18.38057 6.0625 18.40625 C 6.08479 18.43193 6.1339801 18.38057 6.15625 18.40625 C 6.17853 18.43195 6.1339801 18.47432 6.15625 18.5 C 6.17854 18.52568 6.2277301 18.47432 6.25 18.5 C 6.27227 18.5257 6.2500001 18.58869 6.25 18.625 C 6.28151 18.625 6.32148 18.59932 6.34375 18.625 C 6.36603 18.65071 6.32148 18.69307 6.34375 18.71875 C 6.36604 18.74443 6.41523 18.69307 6.4375 18.71875 C 6.45977 18.74445 6.41523 18.81807 6.4375 18.84375 C 6.45979 18.86943 6.5089799 18.81807 6.53125 18.84375 C 6.55352 18.86945 6.5089799 18.91182 6.53125 18.9375 C 6.55354 18.96318 6.6027299 18.91182 6.625 18.9375 C 6.64727 18.96321 6.6027299 19.03683 6.625 19.0625 C 6.66954 19.11386 6.7679498 19.01115 6.8125 19.0625 C 6.83477 19.0882 6.7902298 19.130571 6.8125 19.15625 C 6.83478 19.18192 6.8839802 19.130571 6.90625 19.15625 C 6.92852 19.18195 6.8839802 19.255569 6.90625 19.28125 C 6.95079 19.3326 7.0492101 19.229889 7.09375 19.28125 C 7.11602 19.30694 7.0714801 19.349321 7.09375 19.375 C 7.13829 19.42636 7.23671 19.323641 7.28125 19.375 C 7.30352 19.4007 7.25898 19.443071 7.28125 19.46875 C 7.30354 19.49443 7.35272 19.443071 7.375 19.46875 C 7.39727 19.49446 7.35272 19.568069 7.375 19.59375 C 7.41954 19.64511 7.5179599 19.542389 7.5625 19.59375 C 7.58478 19.61945 7.5402299 19.661819 7.5625 19.6875 C 7.60705 19.73886 7.7054602 19.636149 7.75 19.6875 C 7.77227 19.71321 7.7277302 19.786829 7.75 19.8125 C 7.7723 19.83818 7.8214802 19.786829 7.84375 19.8125 C 7.86602 19.8382 7.8214802 19.88057 7.84375 19.90625 C 7.86603 19.93192 7.9093601 19.88997 7.9375 19.90625 C 7.97733 19.92922 7.9914401 20.0083 8.03125 20.03125 C 8.05942 20.04752 8.10273 20.00557 8.125 20.03125 C 8.14727 20.05694 8.10273 20.09932 8.125 20.125 C 8.14729 20.15068 8.19648 20.09932 8.21875 20.125 C 8.24102 20.1507 8.19648 20.22432 8.21875 20.25 C 8.24104 20.27568 8.2902299 20.22432 8.3125 20.25 C 8.34375 20.28607 8.2812599 20.43273 8.3125 20.46875 C 8.33479 20.49443 8.3839699 20.44307 8.40625 20.46875 C 8.42852 20.49446 8.3839699 20.53682 8.40625 20.5625 C 8.42854 20.58818 8.4777298 20.53682 8.5 20.5625 C 8.54454 20.61386 8.4554598 20.729889 8.5 20.78125 C 8.52229 20.80692 8.5714803 20.755569 8.59375 20.78125 C 8.61603 20.80694 8.5796403 20.873801 8.59375 20.90625 C 8.61368 20.95217 8.6675902 20.954101 8.6875 21 C 8.70161 21.03248 8.6652302 21.099319 8.6875 21.125 C 8.7098 21.15068 8.7589802 21.099319 8.78125 21.125 C 8.82849 21.17947 8.7340202 21.383039 8.78125 21.4375 C 8.80354 21.46318 8.8527301 21.411829 8.875 21.4375 C 8.91954 21.48886 8.8304601 21.60489 8.875 21.65625 C 8.8973 21.68193 8.9464801 21.63057 8.96875 21.65625 C 9.0133 21.7076 8.9406101 21.81 8.96875 21.875 C 8.98867 21.92092 9.04259 21.9541 9.0625 22 C 9.09064 22.06497 9.03435 22.15376 9.0625 22.21875 C 9.08242 22.26467 9.1363504 22.266591 9.15625 22.3125 C 9.17037 22.34498 9.1463004 22.403069 9.15625 22.4375 C 9.17855 22.51453 9.2277299 22.579209 9.25 22.65625 C 9.26223 22.69864 9.2353099 22.951819 9.25 22.96875 C 9.27228 22.99443 9.3214803 22.943079 9.34375 22.96875 C 9.3883 23.02011 9.3156103 23.1225 9.34375 23.1875 C 9.36368 23.23342 9.4175898 23.2666 9.4375 23.3125 C 9.46328 23.37199 9.4117198 23.44046 9.4375 23.5 C 9.45742 23.54592 9.5113502 23.5791 9.53125 23.625 C 9.56095 23.69348 9.5015602 23.994021 9.53125 24.0625 C 9.55118 24.10843 9.6050897 24.110349 9.625 24.15625 C 9.66277 24.2434 9.5872197 24.412809 9.625 24.5 C 9.64492 24.54592 9.6988501 24.547849 9.71875 24.59375 C 9.75138 24.66901 9.6855501 25.11797 9.71875 25.15625 C 9.74104 25.18193 9.7902201 25.13057 9.8125 25.15625 C 9.83526 25.18247 9.7897401 25.567499 9.8125 25.59375 C 9.83479 25.61943 9.88398 25.568069 9.90625 25.59375 C 9.92852 25.61944 9.90625 25.651191 9.90625 25.6875 C 9.90625 25.97802 9.90625 26.27197 9.90625 26.5625 C 9.90625 26.78039 9.90625 27.000851 9.90625 27.21875 C 9.90625 27.25508 9.90625 27.276189 9.90625 27.3125 C 9.90625 27.34882 9.89214 27.405049 9.90625 27.4375 C 9.92617 27.48343 10.01135 27.48535 10.03125 27.53125 C 10.04561 27.56441 10.03125 27.82591 10.03125 27.875 C 10.03125 28.16552 10.03125 28.459479 10.03125 28.75 C 10.03125 29.43999 10.03125 30.122519 10.03125 30.8125 C 10.03125 30.979773 10.03125 31.145229 10.03125 31.3125 C 9.9954679 31.287877 9.9454145 31.265054 9.90625 31.25 C 9.85151 31.22893 9.6131302 31.25 9.53125 31.25 C 9.21629 31.25 8.9087203 31.25 8.59375 31.25 C 8.5492 31.25 8.12908 31.24529 8.125 31.25 C 8.10273 31.27569 8.14727 31.31807 8.125 31.34375 C 8.10568 31.36604 7.8811902 31.32211 7.84375 31.34375 C 7.80391 31.36673 7.7898102 31.445801 7.75 31.46875 C 7.69366 31.5012 7.6222999 31.445801 7.5625 31.46875 C 7.49569 31.49445 7.44336 31.54284 7.375 31.5625 C 7.25277 31.59777 7.1195201 31.5166 7 31.5625 C 6.95771 31.57871 6.9485102 31.671231 6.90625 31.6875 C 6.8465 31.71045 6.7817298 31.687501 6.71875 31.6875 C 6.56126 31.6875 6.4074801 31.687501 6.25 31.6875 C 6.18701 31.6875 6.1254802 31.687501 6.0625 31.6875 C 6.03099 31.6875 5.9673502 31.676031 5.9375 31.6875 C 5.87068 31.7132 5.8168098 31.755581 5.75 31.78125 C 5.6496 31.81982 5.4754 31.742691 5.375 31.78125 C 5.30818 31.80695 5.2558601 31.886591 5.1875 31.90625 C 5.09583 31.93268 4.9958898 31.871821 4.90625 31.90625 C 4.83944 31.93195 4.7871199 31.980341 4.71875 32 C 4.62708 32.02643 4.5271401 31.965571 4.4375 32 C 4.37069 32.02569 4.3168202 32.099321 4.25 32.125 C 4.14959 32.16356 3.9754099 32.086431 3.875 32.125 C 3.83272 32.14121 3.8235099 32.20248 3.78125 32.21875 C 3.66391 32.2639 3.4367299 32.18291 3.3125 32.21875 C 3.24417 32.23843 3.19181 32.318069 3.125 32.34375 C 3.06377 32.36727 2.7335901 32.343749 2.65625 32.34375 C 2.62475 32.34375 2.5906401 32.327479 2.5625 32.34375 C 2.52267 32.36673 2.5110099 32.421232 2.46875 32.4375 C 2.42553 32.45415 2.1357601 32.413232 2.09375 32.4375 C 2.05391 32.46047 2.0085601 32.539552 1.96875 32.5625 C 1.91301 32.59467 1.75252 32.537482 1.6875 32.5625 C 1.62068 32.5882 1.5668101 32.63057 1.5 32.65625 C 1.44024 32.6792 1.37221 32.63329 1.3125 32.65625 C 1.24568 32.68195 1.19181 32.755568 1.125 32.78125 C 0.94209 32.851545 1.06342 32.644032 1.09375 32.5625 C 1.0639467 32.582697 0.91268162 32.716158 0.71875 32.9375 L 0 33.09375 C 0.03151 33.09375 0.06226 33.09375 0.09375 33.09375 C 0.12525 33.09375 0.16523 33.06807 0.1875 33.09375 C 0.20978 33.11945 0.15601 33.21875 0.1875 33.21875 C 0.31737 33.21875 0.45445002 33.01069 0.5625 33.09375 C 0.70359 33.20223 0.66273997 33.488559 0.75 33.65625 C 0.76617 33.68738 0.82147998 33.630569 0.84375 33.65625 C 0.86602 33.68195 0.82147998 33.724322 0.84375 33.75 C 0.86604 33.77568 0.90600999 33.750002 0.9375 33.75 C 0.96901 33.75 0.99976006 33.750002 1.03125 33.75 C 1.25172 33.75 1.46703 33.750002 1.6875 33.75 C 1.78199 33.75 1.8791101 33.784422 1.96875 33.75 C 2.01103 33.73379 2.0514901 33.672519 2.09375 33.65625 C 2.137 33.6396 2.5098001 33.656249 2.5625 33.65625 C 2.59401 33.65625 2.6264001 33.667719 2.65625 33.65625 C 2.72307 33.63055 2.77694 33.556919 2.84375 33.53125 C 2.87364 33.51977 2.9060099 33.531249 2.9375 33.53125 C 3.00048 33.53125 3.06202 33.531249 3.125 33.53125 C 3.34546 33.53125 3.5607799 33.531249 3.78125 33.53125 C 4.2222 33.53125 4.6528102 33.531249 5.09375 33.53125 C 5.94416 33.53125 6.8058498 33.531249 7.65625 33.53125 C 7.90821 33.53125 8.1542799 33.531249 8.40625 33.53125 C 8.45566 33.53125 8.7563702 33.545539 8.78125 33.53125 C 8.82108 33.50827 8.8351901 33.460459 8.875 33.4375 C 8.90317 33.42123 8.9372601 33.437499 8.96875 33.4375 C 9.00026 33.4375 9.03101 33.437499 9.0625 33.4375 C 9.25148 33.4375 9.4360197 33.437499 9.625 33.4375 C 9.87696 33.4375 9.5927701 33.457759 9.71875 33.3125 C 9.74104 33.28682 9.7810101 33.312499 9.8125 33.3125 C 9.84401 33.3125 9.87476 33.312499 9.90625 33.3125 C 9.947195 33.3125 9.990305 33.3125 10.03125 33.3125 C 10.03125 33.385131 10.03125 33.458616 10.03125 33.53125 C 10.03125 33.56757 10.00898 33.630569 10.03125 33.65625 C 10.05355 33.68193 10.10273 33.681929 10.125 33.65625 C 10.16954 33.60489 10.08046 33.488859 10.125 33.4375 C 10.14729 33.41183 10.19648 33.463179 10.21875 33.4375 C 10.234497 33.419343 10.223998 33.354868 10.21875 33.3125 C 10.525838 33.3125 10.849163 33.312499 11.15625 33.3125 C 11.19095 33.3125 11.52717 33.307799 11.53125 33.3125 C 11.55352 33.3382 11.50898 33.411829 11.53125 33.4375 C 11.55354 33.46318 11.59351 33.437499 11.625 33.4375 C 11.65652 33.4375 11.68726 33.437499 11.71875 33.4375 C 12.06521 33.4375 12.40355 33.437499 12.75 33.4375 C 12.7847 33.4375 13.12092 33.432799 13.125 33.4375 C 13.14727 33.46321 13.10273 33.505569 13.125 33.53125 C 13.12928 33.53595 13.54921 33.531249 13.59375 33.53125 C 13.65584 33.53125 13.82172 33.510739 13.875 33.53125 C 13.94181 33.55694 14.02694 33.630569 14.09375 33.65625 C 14.15329 33.6791 14.58413 33.656249 14.65625 33.65625 C 14.68776 33.65625 14.72014 33.644769 14.75 33.65625 C 14.81681 33.68195 14.87068 33.724322 14.9375 33.75 C 15.02953 33.78537 15.31624 33.715382 15.40625 33.75 C 15.47306 33.7757 15.52538 33.855341 15.59375 33.875 C 15.6656 33.89569 15.983371 33.875001 16.0625 33.875 C 16.09401 33.875 16.126401 33.863521 16.15625 33.875 C 16.22307 33.9007 16.27693 33.943071 16.34375 33.96875 C 16.40351 33.9917 16.46827 33.968751 16.53125 33.96875 C 16.65724 33.96875 16.78027 33.968751 16.90625 33.96875 C 17.28421 33.96875 17.684541 33.968751 18.0625 33.96875 C 18.09719 33.96875 18.43342 33.973451 18.4375 33.96875 C 18.45977 33.94305 18.41522 33.900681 18.4375 33.875 C 18.46675 33.84123 18.87696 33.908771 18.90625 33.875 C 18.92852 33.8493 18.88398 33.775682 18.90625 33.75 C 18.92854 33.72432 18.968509 33.750002 19 33.75 C 19.03152 33.75 19.06226 33.750002 19.09375 33.75 C 19.12525 33.75 19.156011 33.750002 19.1875 33.75 C 19.21901 33.75 19.258981 33.775682 19.28125 33.75 C 19.30352 33.72429 19.258981 33.681929 19.28125 33.65625 C 19.32579 33.60489 19.424211 33.707599 19.46875 33.65625 C 19.49102 33.63055 19.446481 33.556919 19.46875 33.53125 C 19.49104 33.50557 19.540231 33.556919 19.5625 33.53125 C 19.58477 33.50554 19.540231 33.463179 19.5625 33.4375 C 19.60704 33.38615 19.705461 33.488859 19.75 33.4375 C 19.77227 33.41181 19.727731 33.338179 19.75 33.3125 C 19.77229 33.28682 19.821471 33.338179 19.84375 33.3125 C 19.86602 33.2868 19.843751 33.25506 19.84375 33.21875 C 19.84375 33.16739 19.847821 32.66095 19.84375 32.65625 C 19.82146 32.63057 19.772271 32.68192 19.75 32.65625 C 19.70546 32.60489 19.794541 32.488862 19.75 32.4375 C 19.7277 32.41182 19.687741 32.437502 19.65625 32.4375 C 19.62474 32.4375 19.593991 32.437502 19.5625 32.4375 C 19.31053 32.4375 19.594741 32.489009 19.46875 32.34375 C 19.44601 32.31751 19.11651 32.369989 19.09375 32.34375 C 19.07148 32.31805 19.11602 32.24443 19.09375 32.21875 C 19.07145 32.19307 19.031489 32.21875 19 32.21875 C 18.93428 32.21875 18.56543 32.23841 18.53125 32.21875 C 18.49142 32.19577 18.47731 32.147951 18.4375 32.125 C 18.40933 32.10873 18.37524 32.125001 18.34375 32.125 C 18.31225 32.125 18.28149 32.125001 18.25 32.125 C 18.16889 32.125 17.711561 32.146261 17.65625 32.125 C 17.61398 32.1088 17.602321 32.022951 17.5625 32 C 17.50289 31.96566 17.15339 32.034331 17.09375 32 C 17.05392 31.97702 17.03981 31.929201 17 31.90625 C 16.97557 31.89214 16.50448 31.906251 16.4375 31.90625 C 16.32813 31.90625 16.0531 31.930611 15.96875 31.90625 C 15.90041 31.88657 15.84806 31.806931 15.78125 31.78125 C 15.75136 31.76978 15.71899 31.781251 15.6875 31.78125 C 15.62452 31.78125 15.56298 31.781251 15.5 31.78125 C 15.43701 31.78125 15.37361 31.798841 15.3125 31.78125 C 15.24418 31.76158 15.19337 31.707161 15.125 31.6875 C 15.06389 31.66991 15.00047 31.687501 14.9375 31.6875 C 14.8745 31.6875 14.81298 31.687501 14.75 31.6875 C 14.56102 31.6875 14.37648 31.687501 14.1875 31.6875 C 14.16458 31.6875 13.87826 31.691261 13.875 31.6875 C 13.85272 31.6618 13.89727 31.58818 13.875 31.5625 C 13.87119 31.5578 13.53467 31.5625 13.5 31.5625 C 13.05905 31.5625 12.62845 31.5625 12.1875 31.5625 C 12.03002 31.5625 11.87623 31.5625 11.71875 31.5625 C 11.65575 31.5625 11.59096 31.58545 11.53125 31.5625 C 11.46443 31.5368 11.41211 31.488411 11.34375 31.46875 C 11.28264 31.45116 11.21923 31.468751 11.15625 31.46875 C 11.05698 31.46875 10.78126 31.490381 10.6875 31.46875 C 10.58983 31.44624 10.50288 31.37159 10.40625 31.34375 C 10.375693 31.33494 10.34431 31.340813 10.3125 31.34375 C 10.3125 31.16217 10.3125 30.994079 10.3125 30.8125 C 10.3125 30.77618 10.29023 30.74443 10.3125 30.71875 C 10.33479 30.69307 10.38398 30.74443 10.40625 30.71875 C 10.42852 30.69304 10.40625 30.630059 10.40625 30.59375 C 10.40625 30.54238 10.40217 30.06721 10.40625 30.0625 C 10.42854 30.03682 10.47773 30.08818 10.5 30.0625 C 10.52276 30.03629 10.47724 29.65124 10.5 29.625 C 10.52229 29.59932 10.57148 29.65068 10.59375 29.625 C 10.64099 29.57052 10.54652 29.335709 10.59375 29.28125 C 10.61604 29.25557 10.66523 29.306929 10.6875 29.28125 C 10.69158 29.27631 10.6875 28.801349 10.6875 28.75 C 10.6875 28.70999 10.68342 28.317201 10.6875 28.3125 C 10.70979 28.28682 10.75898 28.338181 10.78125 28.3125 C 10.80352 28.28679 10.78125 28.22381 10.78125 28.1875 C 10.78125 28.15117 10.78125 28.13006 10.78125 28.09375 C 10.78125 27.69428 10.78125 27.30572 10.78125 26.90625 C 10.78125 26.61574 10.78125 26.321769 10.78125 26.03125 C 10.78125 25.97428 10.76885 25.622439 10.78125 25.59375 C 10.80117 25.54783 10.85509 25.514661 10.875 25.46875 C 10.88756 25.43972 10.875 24.86178 10.875 24.8125 C 10.875 24.77617 10.86088 24.7512 10.875 24.71875 C 10.89492 24.67282 10.94885 24.639659 10.96875 24.59375 C 10.9969 24.5288 10.94061 24.439999 10.96875 24.375 C 10.98868 24.32908 11.04259 24.327149 11.0625 24.28125 C 11.08827 24.22181 11.03672 24.121941 11.0625 24.0625 C 11.08242 24.01658 11.13635 23.983399 11.15625 23.9375 C 11.19402 23.85034 11.11848 23.7122 11.15625 23.625 C 11.17618 23.57908 11.2301 23.5459 11.25 23.5 C 11.27815 23.43504 11.22186 23.37749 11.25 23.3125 C 11.26993 23.26658 11.32384 23.2334 11.34375 23.1875 C 11.35786 23.15502 11.32964 23.1262 11.34375 23.09375 C 11.35728 23.06255 11.51771 22.90623 11.53125 22.875 C 11.54536 22.84252 11.51714 22.782449 11.53125 22.75 C 11.55117 22.70408 11.6051 22.702149 11.625 22.65625 C 11.66278 22.56909 11.58723 22.399691 11.625 22.3125 C 11.63906 22.28004 11.6906 22.328771 11.71875 22.3125 C 11.75857 22.28953 11.7926 22.26466 11.8125 22.21875 C 11.84065 22.1538 11.76796 22.05136 11.8125 22 C 11.8348 21.97432 11.88398 22.02568 11.90625 22 C 11.92852 21.9743 11.88398 21.90068 11.90625 21.875 C 11.92853 21.84932 11.97773 21.90068 12 21.875 C 12.03133 21.83893 11.96876 21.69237 12 21.65625 C 12.02229 21.63057 12.07148 21.68193 12.09375 21.65625 C 12.11602 21.63054 12.07963 21.59495 12.09375 21.5625 C 12.13359 21.47063 12.24144 21.435649 12.28125 21.34375 C 12.29536 21.31127 12.26713 21.251199 12.28125 21.21875 C 12.323112 21.122069 12.361704 21.115008 12.375 21.09375 C 12.373268 21.151366 12.371 21.237705 12.46875 21.125 C 12.49102 21.09929 12.45463 21.032451 12.46875 21 C 12.510612 20.903319 12.549205 20.896258 12.5625 20.875 C 12.560766 20.932616 12.558505 21.018955 12.65625 20.90625 C 12.67853 20.88055 12.64214 20.813699 12.65625 20.78125 C 12.698114 20.684565 12.736704 20.67751 12.75 20.65625 C 12.748266 20.713866 12.746 20.800205 12.84375 20.6875 C 12.86602 20.6618 12.82148 20.58818 12.84375 20.5625 C 12.8883 20.51115 12.98671 20.61386 13.03125 20.5625 C 13.05352 20.5368 13.00898 20.49443 13.03125 20.46875 C 13.05354 20.44307 13.09685 20.48503 13.125 20.46875 C 13.16483 20.44578 13.17894 20.3667 13.21875 20.34375 C 13.27509 20.3113 13.36171 20.39511 13.40625 20.34375 C 13.42852 20.31804 13.38398 20.27568 13.40625 20.25 C 13.45079 20.19864 13.54921 20.30136 13.59375 20.25 C 13.61602 20.2243 13.57148 20.15068 13.59375 20.125 C 13.63829 20.07364 13.73671 20.17636 13.78125 20.125 C 13.80352 20.0993 13.75898 20.05693 13.78125 20.03125 C 13.82579 19.97989 13.92421 20.0826 13.96875 20.03125 C 13.99102 20.00554 13.94648 19.93192 13.96875 19.90625 C 14.01329 19.85489 14.14296 19.9576 14.1875 19.90625 C 14.20977 19.88055 14.16523 19.838179 14.1875 19.8125 C 14.219 19.7762 14.34351 19.848809 14.375 19.8125 C 14.39727 19.7868 14.35273 19.713179 14.375 19.6875 C 14.39728 19.66182 14.44648 19.713179 14.46875 19.6875 C 14.49102 19.66181 14.44648 19.619429 14.46875 19.59375 C 14.49104 19.56807 14.53435 19.610019 14.5625 19.59375 C 14.60233 19.57077 14.61644 19.491701 14.65625 19.46875 C 14.71259 19.4363 14.79921 19.520111 14.84375 19.46875 C 14.86602 19.44305 14.82148 19.400681 14.84375 19.375 C 14.88829 19.32364 14.98671 19.426361 15.03125 19.375 C 15.05352 19.3493 15.00898 19.306929 15.03125 19.28125 C 15.06271 19.24494 15.18726 19.317549 15.21875 19.28125 C 15.24102 19.25554 15.19648 19.181921 15.21875 19.15625 C 15.24105 19.13057 15.28436 19.172521 15.3125 19.15625 C 15.35233 19.13328 15.36644 19.08546 15.40625 19.0625 C 15.4626 19.03005 15.54921 19.11386 15.59375 19.0625 C 15.61602 19.0368 15.57148 18.96318 15.59375 18.9375 C 15.61604 18.91182 15.65936 18.95378 15.6875 18.9375 C 15.72734 18.91453 15.74144 18.8667 15.78125 18.84375 C 15.80941 18.82748 15.84686 18.86002 15.875 18.84375 C 15.91484 18.82078 15.92893 18.7417 15.96875 18.71875 C 16.24681 18.55844 15.842871 18.98633 16.15625 18.625 C 16.18442 18.60873 16.221851 18.64127 16.25 18.625 C 16.28983 18.60203 16.30393 18.52295 16.34375 18.5 C 16.37191 18.48373 16.41523 18.52568 16.4375 18.5 C 16.45977 18.47429 16.41523 18.43193 16.4375 18.40625 C 16.48204 18.35489 16.56863 18.4387 16.625 18.40625 C 16.66482 18.38328 16.67894 18.3042 16.71875 18.28125 C 16.74692 18.26497 16.79023 18.30692 16.8125 18.28125 C 16.83477 18.25554 16.79023 18.213181 16.8125 18.1875 C 16.85704 18.13615 16.95546 18.238861 17 18.1875 C 17.02227 18.16181 16.97773 18.088179 17 18.0625 C 17.04454 18.01115 17.14295 18.113859 17.1875 18.0625 C 17.20977 18.0368 17.16523 17.994429 17.1875 17.96875 C 17.23204 17.91739 17.330449 18.020109 17.375 17.96875 C 17.39727 17.94304 17.352719 17.869431 17.375 17.84375 C 17.41954 17.79239 17.506131 17.876201 17.5625 17.84375 C 17.60233 17.82078 17.616441 17.772951 17.65625 17.75 C 17.68442 17.73373 17.727731 17.775681 17.75 17.75 C 17.77227 17.72429 17.727731 17.650681 17.75 17.625 C 17.79455 17.57364 17.892961 17.676351 17.9375 17.625 C 17.95977 17.5993 17.915231 17.556921 17.9375 17.53125 C 17.95979 17.50557 18.040231 17.556921 18.0625 17.53125 C 18.08477 17.50554 18.040231 17.43193 18.0625 17.40625 C 18.08479 17.38058 18.13398 17.43193 18.15625 17.40625 C 18.17852 17.38056 18.13398 17.33818 18.15625 17.3125 C 18.17855 17.28682 18.22773 17.33818 18.25 17.3125 C 18.27227 17.28681 18.22773 17.21318 18.25 17.1875 C 18.27228 17.16182 18.32148 17.21318 18.34375 17.1875 C 18.36602 17.16179 18.32148 17.11943 18.34375 17.09375 C 18.36605 17.06807 18.41522 17.11943 18.4375 17.09375 C 18.45977 17.06805 18.42338 17.0012 18.4375 16.96875 C 18.45742 16.92282 18.51135 16.9209 18.53125 16.875 C 18.54536 16.84253 18.50898 16.77567 18.53125 16.75 C 18.55355 16.72432 18.60273 16.77567 18.625 16.75 C 18.66955 16.69864 18.58046 16.582609 18.625 16.53125 C 18.64729 16.50557 18.69648 16.556929 18.71875 16.53125 C 18.76329 16.4799 18.67421 16.363861 18.71875 16.3125 C 18.74104 16.28682 18.79022 16.338181 18.8125 16.3125 C 18.83477 16.2868 18.79838 16.251201 18.8125 16.21875 C 18.83243 16.17282 18.88634 16.139651 18.90625 16.09375 C 18.93439 16.02879 18.86171 15.92636 18.90625 15.875 C 18.92854 15.84933 18.977729 15.90068 19 15.875 C 19.03149 15.8387 18.968509 15.69256 19 15.65625 C 19.0223 15.63057 19.07148 15.68193 19.09375 15.65625 C 19.11602 15.63055 19.07148 15.58818 19.09375 15.5625 C 19.11604 15.53682 19.165231 15.58818 19.1875 15.5625 C 19.23474 15.50803 19.140271 15.30446 19.1875 15.25 C 19.20979 15.22432 19.258981 15.27568 19.28125 15.25 C 19.30352 15.2243 19.281251 15.1613 19.28125 15.125 C 19.28125 15.08498 19.285331 14.6922 19.28125 14.6875 C 19.25896 14.66182 19.218991 14.6875 19.1875 14.6875 C 19.03002 14.6875 18.87623 14.6875 18.71875 14.6875 C 18.52977 14.6875 18.34523 14.6875 18.15625 14.6875 C 18.12475 14.6875 18.084771 14.66182 18.0625 14.6875 C 18.04023 14.7132 18.084771 14.78682 18.0625 14.8125 C 18.04021 14.83818 17.968991 14.8125 17.9375 14.8125 C 17.90599 14.8125 17.875241 14.8125 17.84375 14.8125 C 17.65477 14.8125 17.470219 14.8125 17.28125 14.8125 C 17.24974 14.8125 17.20977 14.78682 17.1875 14.8125 C 17.16523 14.83821 17.20977 14.88057 17.1875 14.90625 C 17.16521 14.93193 17.12524 14.90625 17.09375 14.90625 C 17.0492 14.90625 16.62908 14.90155 16.625 14.90625 C 16.60273 14.93195 16.64727 15.00558 16.625 15.03125 C 16.6027 15.05693 16.56274 15.03125 16.53125 15.03125 C 16.4867 15.03125 16.066581 15.02655 16.0625 15.03125 C 16.04023 15.05696 16.084771 15.09932 16.0625 15.125 C 16.03665 15.15481 15.73873 15.09546 15.6875 15.125 C 15.64768 15.14797 15.63356 15.22705 15.59375 15.25 C 15.54249 15.27953 15.24461 15.22018 15.21875 15.25 C 15.19648 15.27569 15.24102 15.31807 15.21875 15.34375 C 15.21571 15.34751 14.96042 15.34375 14.9375 15.34375 C 14.68553 15.34375 14.43946 15.34375 14.1875 15.34375 C 14.14495 15.34375 13.90379 15.3603 13.875 15.34375 C 13.64148 15.20913 13.90909 15.25 13.6875 15.25 C 13.40403 15.25 13.12722 15.25 12.84375 15.25 C 12.78076 15.25 12.71923 15.25 12.65625 15.25 C 12.59326 15.25 12.52854 15.27295 12.46875 15.25 C 12.42647 15.23371 12.41726 15.14127 12.375 15.125 C 12.31523 15.10204 12.2486 15.14258 12.1875 15.125 C 12.11918 15.10531 12.0691 15.04715 12 15.03125 C 11.84558 14.99561 11.68403 15.07528 11.53125 15.03125 C 11.46293 15.01158 11.41285 14.92215 11.34375 14.90625 C 11.18933 14.8706 11.02778 14.95027 10.875 14.90625 C 10.80667 14.88657 10.75586 14.83216 10.6875 14.8125 C 10.59583 14.78607 10.49589 14.84693 10.40625 14.8125 C 10.33944 14.7868 10.28712 14.70716 10.21875 14.6875 C 10.12708 14.66107 10.00073 14.6875 9.90625 14.6875 C 9.68577 14.6875 9.4704699 14.6875 9.25 14.6875 C 9.1555 14.6875 9.0583901 14.72193 8.96875 14.6875 C 8.92647 14.6713 8.9172601 14.61002 8.875 14.59375 C 8.81524 14.5708 8.7504802 14.59375 8.6875 14.59375 C 8.62451 14.59375 8.5629798 14.59375 8.5 14.59375 C 8.24802 14.59375 8.0019802 14.59375 7.75 14.59375 C 6.80512 14.59375 5.8511398 14.59375 4.90625 14.59375 z "
       transform="translate(771.56566,346.79878)"
       id="path5424" />
  </g>
</svg>
