<?xml version="1.0" encoding="utf-8"?>
<!-- Generator: Adobe Illustrator 14.0.0, SVG Export Plug-In  -->
<!DOCTYPE svg [
	<!ENTITY ns_flows "http://ns.adobe.com/Flows/1.0/">
]>
<svg version="1.2" baseProfile="tiny"
	 xmlns="http://www.w3.org/2000/svg" xmlns:xlink="http://www.w3.org/1999/xlink" xmlns:a="http://ns.adobe.com/AdobeSVGViewerExtensions/3.0/"
	 x="0px" y="0px" width="41px" height="41px" viewBox="61.162 -0.828 41 41" xml:space="preserve">
<defs>
</defs>
<g>
	<polygon fill="#CC9900" points="21.877,16.292 21.406,16.292 19.105,18.593 21.877,18.593 	"/>
	<polygon points="21.877,15.821 21.406,16.292 21.877,16.292 	"/>
	<polygon fill="#CC9900" points="30.497,18.593 30.497,16.292 22.377,16.292 22.377,18.593 26.063,18.593 26.595,18.593 	"/>
	<polygon points="21.877,16.292 21.877,18.593 22.377,18.593 22.377,16.292 30.497,16.292 30.497,15.792 22.409,15.792 
		21.906,15.792 21.877,15.821 	"/>
	<polygon fill="#CC9900" points="34.738,18.593 34.738,18.584 39.149,18.584 39.149,16.292 30.997,16.292 30.997,18.593 	"/>
	<polygon points="30.497,16.292 30.497,18.593 30.997,18.593 30.997,16.292 39.149,16.292 39.149,18.584 39.172,18.584 
		39.172,15.792 31.029,15.792 30.497,15.792 	"/>
	<polygon fill="#CC9900" points="26.063,19.093 18.605,19.093 18.134,19.564 19.983,21.413 26.063,21.413 	"/>
	<polygon points="22.409,21.417 26.063,21.417 26.063,21.413 19.983,21.413 19.988,21.417 21.877,21.417 	"/>
	<polygon points="26.063,19.093 26.063,18.593 22.377,18.593 21.877,18.593 19.105,18.593 18.605,19.093 	"/>
	<rect x="26.563" y="19.093" fill="#CC9900" width="8.152" height="2.32"/>
	<path d="M34.738,21.417v-2.825h-3.742h-0.5h-3.901h-0.532v0.5v2.32v0.004h4.434h0.532H34.738z M26.563,21.413v-2.32h8.152v2.32
		H26.563z"/>
	<polygon fill="#CC9900" points="20.488,21.917 21.877,23.307 21.877,21.917 	"/>
	<polygon points="21.877,21.417 19.988,21.417 20.488,21.917 21.877,21.917 	"/>
	<polygon fill="#CC9900" points="26.595,24.218 30.497,24.218 30.497,21.917 22.377,21.917 22.377,23.807 22.788,24.218 
		26.063,24.218 	"/>
	<polygon points="30.497,21.917 30.497,21.417 26.063,21.417 22.409,21.417 21.877,21.417 21.877,21.917 21.877,23.307 
		22.377,23.807 22.377,21.917 	"/>
	<polygon fill="#CC9900" points="39.149,24.209 39.149,21.917 30.997,21.917 30.997,24.218 34.738,24.218 34.738,24.209 	"/>
	<polygon points="30.997,24.218 30.997,21.917 39.149,21.917 39.149,24.209 39.172,24.209 39.172,21.904 34.738,21.904 
		34.738,21.417 31.029,21.417 30.497,21.417 30.497,21.917 30.497,24.218 	"/>
	<polygon fill="#CC9900" points="26.063,24.718 23.288,24.718 25.608,27.038 26.063,27.038 	"/>
	<polygon points="26.063,27.038 25.608,27.038 25.614,27.044 26.063,27.044 	"/>
	<polygon points="26.063,24.218 22.788,24.218 23.288,24.718 26.063,24.718 	"/>
	<rect x="26.563" y="24.718" fill="#CC9900" width="8.152" height="2.32"/>
	<path d="M34.738,27.044v-2.826h-3.742h-0.5h-3.901h-0.532v0.5v2.32v0.006h4.265h0.532H34.738z M26.563,27.038v-2.32h8.152v2.32
		H26.563z"/>
	<polygon fill="#CC9900" points="30.328,27.544 26.114,27.544 28.415,29.844 30.328,29.844 	"/>
	<polygon points="30.328,27.044 26.063,27.044 25.614,27.044 26.114,27.544 30.328,27.544 	"/>
	<polygon fill="#CC9900" points="38.979,29.836 38.979,27.544 30.828,27.544 30.828,29.844 34.569,29.844 34.569,29.836 	"/>
	<polygon points="38.979,27.544 38.979,29.836 39.003,29.836 39.003,27.529 34.738,27.529 34.738,27.044 30.86,27.044 
		30.328,27.044 30.328,27.544 30.328,29.844 30.828,29.844 30.828,27.544 	"/>
	<polygon fill="#CC9900" points="34.546,30.344 28.915,30.344 31.234,32.664 34.546,32.664 	"/>
	<polygon points="34.569,29.844 30.828,29.844 30.328,29.844 28.415,29.844 28.915,30.344 34.546,30.344 34.546,32.664 
		31.234,32.664 31.239,32.668 34.569,32.668 	"/>
	<polygon fill="#CC9900" points="34.569,35.461 38.979,35.461 38.979,33.168 31.739,33.168 34.04,35.469 34.569,35.469 	"/>
	<polygon points="38.979,35.461 39.003,35.461 39.003,33.156 34.569,33.156 34.569,32.668 31.239,32.668 31.739,33.168 
		38.979,33.168 	"/>
	<polygon fill="#CC9900" points="34.54,35.969 34.546,35.976 34.546,35.969 	"/>
	<polygon points="34.569,35.469 34.04,35.469 34.54,35.969 34.546,35.969 34.546,35.976 34.569,35.999 	"/>
	<polygon fill="#CC9900" points="43.891,18.584 47.825,18.584 47.825,16.284 39.672,16.284 39.672,18.584 43.392,18.584 	"/>
	<polygon points="39.172,18.584 39.672,18.584 39.672,16.284 47.825,16.284 47.825,18.584 47.826,18.584 47.826,15.784 
		39.172,15.784 39.172,15.792 	"/>
	<polygon fill="#CC9900" points="48.326,18.584 52.012,18.584 52.544,18.584 55.105,18.584 52.805,16.284 48.326,16.284 	"/>
	<polygon points="47.826,18.584 48.326,18.584 48.326,16.284 52.805,16.284 52.305,15.784 48.325,15.784 47.826,15.784 	"/>
	<rect x="35.238" y="19.084" fill="#CC9900" width="8.153" height="2.32"/>
	<path d="M34.738,18.593v2.825v0.487h4.434v-0.495h4.219v-2.825h-3.719h-0.5h-0.023h-4.411V18.593z M43.391,21.404h-8.153v-2.32
		h8.153V21.404z"/>
	<rect x="43.892" y="19.084" fill="#CC9900" width="8.121" height="2.32"/>
	<polygon points="43.392,18.584 43.392,21.409 47.826,21.409 48.325,21.409 52.012,21.409 52.012,21.404 43.892,21.404 
		43.892,19.084 52.012,19.084 52.012,18.584 48.326,18.584 47.826,18.584 47.825,18.584 43.891,18.584 	"/>
	<polygon fill="#CC9900" points="52.512,19.084 52.512,21.404 54.244,21.404 56.084,19.564 55.605,19.084 	"/>
	<polygon points="52.012,18.584 52.012,19.084 52.012,21.404 52.012,21.409 54.239,21.409 54.244,21.404 52.512,21.404 
		52.512,19.084 55.605,19.084 55.105,18.584 52.544,18.584 	"/>
	<polygon fill="#CC9900" points="39.672,21.909 39.672,24.209 43.392,24.209 43.891,24.209 47.825,24.209 47.825,21.909 	"/>
	<polygon points="43.392,21.409 39.172,21.409 39.172,21.904 39.172,24.209 39.672,24.209 39.672,21.909 47.825,21.909 
		47.825,24.209 47.826,24.209 47.826,21.409 	"/>
	<polygon fill="#CC9900" points="48.326,24.209 51.439,24.209 53.739,21.909 48.326,21.909 	"/>
	<polygon points="52.012,21.409 48.325,21.409 47.826,21.409 47.826,24.209 48.326,24.209 48.326,21.909 53.739,21.909 
		54.239,21.409 	"/>
	<rect x="35.238" y="24.709" fill="#CC9900" width="8.153" height="2.32"/>
	<path d="M39.172,24.209h-0.023h-4.411v0.008v2.826v0.485h4.265v-0.494h4.388v-2.826h-3.719H39.172z M43.391,27.029h-8.153v-2.32
		h8.153V27.029z"/>
	<polygon fill="#CC9900" points="43.892,24.709 43.892,27.029 48.619,27.029 50.939,24.709 	"/>
	<polygon points="47.826,24.209 47.825,24.209 43.891,24.209 43.392,24.209 43.392,27.036 47.657,27.036 48.156,27.036 
		48.613,27.036 48.619,27.029 43.892,27.029 43.892,24.709 50.939,24.709 51.439,24.209 48.326,24.209 	"/>
	<polygon fill="#CC9900" points="39.503,27.536 39.503,29.836 43.223,29.836 43.721,29.836 45.812,29.836 47.656,27.993 
		47.656,27.536 	"/>
	<polygon points="47.657,27.036 43.392,27.036 39.003,27.036 39.003,27.529 39.003,29.836 39.503,29.836 39.503,27.536 
		47.656,27.536 47.656,27.993 47.657,27.992 	"/>
	<polygon points="47.657,27.036 47.657,27.992 48.613,27.036 48.156,27.036 	"/>
	<polygon fill="#CC9900" points="43.221,30.336 35.069,30.336 35.069,32.656 42.993,32.656 43.221,32.427 	"/>
	<polygon points="43.223,29.836 39.503,29.836 39.003,29.836 38.979,29.836 34.569,29.836 34.569,29.844 34.569,32.668 
		34.569,33.156 39.003,33.156 39.003,32.66 42.988,32.66 42.993,32.656 35.069,32.656 35.069,30.336 43.221,30.336 43.221,32.427 
		43.223,32.426 	"/>
	<polygon fill="#CC9900" points="43.723,31.926 45.312,30.336 43.723,30.336 	"/>
	<polygon points="43.223,29.836 43.223,32.426 43.723,31.926 43.723,30.336 45.312,30.336 45.812,29.836 43.721,29.836 	"/>
	<polygon fill="#CC9900" points="39.503,35.461 40.188,35.461 42.488,33.16 39.503,33.16 	"/>
	<polygon points="39.003,33.156 39.003,35.461 39.503,35.461 39.503,33.16 42.488,33.16 42.988,32.66 39.003,32.66 	"/>
	<polygon fill="#CC9900" points="39.688,35.961 35.069,35.961 35.069,36.499 36.852,38.281 37.367,38.281 	"/>
	<polygon points="37.367,38.281 36.852,38.281 37.109,38.539 	"/>
	<polygon points="35.069,35.961 39.688,35.961 40.188,35.461 39.503,35.461 39.003,35.461 38.979,35.461 34.569,35.461 
		34.569,35.469 34.569,35.999 35.069,36.499 	"/>
</g>
<g>
	<polygon fill="#CC9900" points="66.263,16.526 65.792,16.526 63.491,18.827 66.263,18.827 	"/>
	<polygon points="66.263,16.055 65.792,16.526 66.263,16.526 	"/>
	<polygon fill="#CC9900" points="70.981,18.827 70.981,18.845 74.915,18.845 74.915,16.526 66.763,16.526 66.763,18.827 	"/>
	<polygon points="66.263,16.526 66.263,18.827 66.763,18.827 66.763,16.526 74.915,16.526 74.915,18.845 70.981,18.845 
		70.981,19.345 75.415,19.345 75.415,16.026 66.794,16.026 66.292,16.026 66.263,16.055 	"/>
	<polygon fill="#CC9900" points="70.481,19.327 62.991,19.327 62.52,19.797 64.37,21.647 70.481,21.647 	"/>
	<polygon points="70.981,18.845 70.981,18.827 66.763,18.827 66.263,18.827 63.491,18.827 62.991,19.327 70.481,19.327 
		70.481,21.647 64.37,21.647 64.374,21.651 66.263,21.651 66.794,21.651 70.981,21.651 70.981,19.345 	"/>
	<polygon fill="#CC9900" points="64.874,22.151 66.263,23.54 66.263,22.151 	"/>
	<polygon points="66.263,21.651 64.374,21.651 64.874,22.151 66.263,22.151 	"/>
	<polygon fill="#CC9900" points="70.981,24.47 74.915,24.47 74.915,22.151 66.763,22.151 66.763,24.04 67.174,24.452 70.981,24.452 
			"/>
	<polygon points="66.794,21.651 66.263,21.651 66.263,22.151 66.263,23.54 66.763,24.04 66.763,22.151 74.915,22.151 74.915,24.47 
		70.981,24.47 70.981,24.97 75.415,24.97 75.415,21.651 70.981,21.651 	"/>
	<polygon fill="#CC9900" points="70.481,24.952 67.674,24.952 69.994,27.271 70.481,27.271 	"/>
	<polygon points="70.981,24.47 70.981,24.452 67.174,24.452 67.674,24.952 70.481,24.952 70.481,27.271 69.994,27.271 70,27.278 
		70.981,27.278 70.981,24.97 	"/>
	<polygon fill="#CC9900" points="74.746,27.778 70.5,27.778 72.819,30.097 74.746,30.097 	"/>
	<polygon points="70,27.278 70.5,27.778 74.746,27.778 74.746,30.097 72.819,30.097 73.319,30.597 75.246,30.597 75.246,27.278 
		70.981,27.278 	"/>
	<polygon fill="#CC9900" points="78.925,36.203 78.932,36.209 78.932,36.203 	"/>
	<polygon points="78.925,36.203 78.932,36.203 78.932,36.209 79.432,36.709 79.432,35.703 78.425,35.703 	"/>
	<polygon fill="#CC9900" points="92.712,18.818 96.398,18.818 96.93,18.818 99.491,18.818 97.191,16.518 92.712,16.518 	"/>
	<polygon points="92.212,16.018 92.212,18.818 92.712,18.818 92.712,16.518 97.191,16.518 96.691,16.018 	"/>
	<rect x="88.277" y="19.318" fill="#CC9900" width="8.121" height="2.32"/>
	<polygon points="92.212,21.643 96.398,21.643 96.398,21.638 88.277,21.638 88.277,19.318 96.398,19.318 96.398,18.818 
		92.712,18.818 92.212,18.818 87.777,18.818 87.777,22.138 92.212,22.138 	"/>
	<polygon fill="#CC9900" points="96.898,19.318 96.898,21.638 98.629,21.638 100.47,19.797 99.991,19.318 	"/>
	<polygon points="96.398,18.818 96.398,19.318 96.398,21.638 96.398,21.643 98.625,21.643 98.629,21.638 96.898,21.638 
		96.898,19.318 99.991,19.318 99.491,18.818 96.93,18.818 	"/>
	<polygon fill="#CC9900" points="92.712,24.443 95.825,24.443 98.125,22.143 92.712,22.143 	"/>
	<polygon points="96.398,21.643 92.212,21.643 92.212,22.138 92.212,24.443 92.712,24.443 92.712,22.143 98.125,22.143 
		98.625,21.643 	"/>
	<polygon fill="#CC9900" points="88.277,24.943 88.277,27.263 93.004,27.263 95.325,24.943 	"/>
	<polygon points="92.212,24.443 87.777,24.443 87.777,27.763 92.042,27.763 92.042,27.269 92.999,27.269 93.004,27.263 
		88.277,27.263 88.277,24.943 95.325,24.943 95.825,24.443 92.712,24.443 	"/>
	<polygon points="92.042,27.763 92.042,28.225 92.999,27.269 92.042,27.269 	"/>
	<polygon fill="#CC9900" points="88.108,32.16 89.698,30.57 88.108,30.57 	"/>
	<polygon points="88.108,32.16 88.108,30.57 89.698,30.57 90.198,30.07 87.608,30.07 87.608,32.66 	"/>
</g>
<polygon fill="none" stroke="#FF0000" stroke-width="2" stroke-linejoin="bevel" stroke-miterlimit="3.8637" points="62.52,19.797 
	81.495,0.823 100.47,19.797 81.495,38.773 62.52,19.797 "/>
<rect id="_x3C_Slice_x3E__5_" x="61.809" fill="none" width="39.373" height="39.595"/>
</svg>
