<?xml version="1.0" encoding="utf-8"?>
<!-- Generator: Adobe Illustrator 14.0.0, SVG Export Plug-In  -->
<!DOCTYPE svg [
	<!ENTITY ns_flows "http://ns.adobe.com/Flows/1.0/">
]>
<svg version="1.2" baseProfile="tiny"
	 xmlns="http://www.w3.org/2000/svg" xmlns:xlink="http://www.w3.org/1999/xlink" xmlns:a="http://ns.adobe.com/AdobeSVGViewerExtensions/3.0/"
	 x="0px" y="0px" width="40px" height="41px" viewBox="17.162 -0.703 40 41" xml:space="preserve">
<defs>
</defs>
<g>
	<polygon fill="#CC9900" points="21.877,16.417 21.406,16.417 19.105,18.717 21.877,18.717 	"/>
	<polygon points="21.877,15.946 21.406,16.417 21.877,16.417 	"/>
	<polygon fill="#CC9900" points="30.497,18.717 30.497,16.417 22.377,16.417 22.377,18.717 26.063,18.717 26.595,18.717 	"/>
	<polygon points="21.877,16.417 21.877,18.717 22.377,18.717 22.377,16.417 30.497,16.417 30.497,15.917 22.409,15.917 
		21.906,15.917 21.877,15.946 	"/>
	<polygon fill="#CC9900" points="34.738,18.717 34.738,18.709 39.149,18.709 39.149,16.417 30.997,16.417 30.997,18.717 	"/>
	<polygon points="30.497,16.417 30.497,18.717 30.997,18.717 30.997,16.417 39.149,16.417 39.149,18.709 39.172,18.709 
		39.172,15.917 31.029,15.917 30.497,15.917 	"/>
	<polygon fill="#CC9900" points="26.063,19.217 18.605,19.217 18.134,19.688 19.983,21.538 26.063,21.538 	"/>
	<polygon points="22.409,21.542 26.063,21.542 26.063,21.538 19.983,21.538 19.988,21.542 21.877,21.542 	"/>
	<polygon points="26.063,19.217 26.063,18.717 22.377,18.717 21.877,18.717 19.105,18.717 18.605,19.217 	"/>
	<rect x="26.563" y="19.217" fill="#CC9900" width="8.152" height="2.32"/>
	<path d="M34.738,21.542v-2.825h-3.742h-0.5h-3.901h-0.532v0.5v2.32v0.004h4.434h0.532H34.738z M26.563,21.538v-2.32h8.152v2.32
		H26.563z"/>
	<polygon fill="#CC9900" points="20.488,22.042 21.877,23.431 21.877,22.042 	"/>
	<polygon points="21.877,21.542 19.988,21.542 20.488,22.042 21.877,22.042 	"/>
	<polygon fill="#CC9900" points="26.595,24.342 30.497,24.342 30.497,22.042 22.377,22.042 22.377,23.931 22.788,24.342 
		26.063,24.342 	"/>
	<polygon points="30.497,22.042 30.497,21.542 26.063,21.542 22.409,21.542 21.877,21.542 21.877,22.042 21.877,23.431 
		22.377,23.931 22.377,22.042 	"/>
	<polygon fill="#CC9900" points="39.149,24.334 39.149,22.042 30.997,22.042 30.997,24.342 34.738,24.342 34.738,24.334 	"/>
	<polygon points="30.997,24.342 30.997,22.042 39.149,22.042 39.149,24.334 39.172,24.334 39.172,22.029 34.738,22.029 
		34.738,21.542 31.029,21.542 30.497,21.542 30.497,22.042 30.497,24.342 	"/>
	<polygon fill="#CC9900" points="26.063,24.842 23.288,24.842 25.608,27.162 26.063,27.162 	"/>
	<polygon points="26.063,27.162 25.608,27.162 25.614,27.168 26.063,27.168 	"/>
	<polygon points="26.063,24.342 22.788,24.342 23.288,24.842 26.063,24.842 	"/>
	<rect x="26.563" y="24.842" fill="#CC9900" width="8.152" height="2.32"/>
	<path d="M34.738,27.168v-2.826h-3.742h-0.5h-3.901h-0.532v0.5v2.32v0.006h4.265h0.532H34.738z M26.563,27.162v-2.32h8.152v2.32
		H26.563z"/>
	<polygon fill="#CC9900" points="30.328,27.668 26.114,27.668 28.415,29.969 30.328,29.969 	"/>
	<polygon points="30.328,27.168 26.063,27.168 25.614,27.168 26.114,27.668 30.328,27.668 	"/>
	<polygon fill="#CC9900" points="38.979,29.961 38.979,27.668 30.828,27.668 30.828,29.969 34.569,29.969 34.569,29.961 	"/>
	<polygon points="38.979,27.668 38.979,29.961 39.003,29.961 39.003,27.654 34.738,27.654 34.738,27.168 30.86,27.168 
		30.328,27.168 30.328,27.668 30.328,29.969 30.828,29.969 30.828,27.668 	"/>
	<polygon fill="#CC9900" points="34.546,30.469 28.915,30.469 31.234,32.789 34.546,32.789 	"/>
	<polygon points="34.569,29.969 30.828,29.969 30.328,29.969 28.415,29.969 28.915,30.469 34.546,30.469 34.546,32.789 
		31.234,32.789 31.239,32.793 34.569,32.793 	"/>
	<polygon fill="#CC9900" points="34.569,35.585 38.979,35.585 38.979,33.293 31.739,33.293 34.04,35.594 34.569,35.594 	"/>
	<polygon points="38.979,35.585 39.003,35.585 39.003,33.28 34.569,33.28 34.569,32.793 31.239,32.793 31.739,33.293 38.979,33.293 
			"/>
	<polygon fill="#CC9900" points="34.54,36.094 34.546,36.1 34.546,36.094 	"/>
	<polygon points="34.569,35.594 34.04,35.594 34.54,36.094 34.546,36.094 34.546,36.1 34.569,36.124 	"/>
	<polygon fill="#CC9900" points="43.891,18.709 47.825,18.709 47.825,16.409 39.672,16.409 39.672,18.709 43.392,18.709 	"/>
	<polygon points="39.172,18.709 39.672,18.709 39.672,16.409 47.825,16.409 47.825,18.709 47.826,18.709 47.826,15.909 
		39.172,15.909 39.172,15.917 	"/>
	<polygon fill="#CC9900" points="48.326,18.709 52.012,18.709 52.544,18.709 55.105,18.709 52.805,16.409 48.326,16.409 	"/>
	<polygon points="47.826,18.709 48.326,18.709 48.326,16.409 52.805,16.409 52.305,15.909 48.325,15.909 47.826,15.909 	"/>
	<rect x="35.238" y="19.209" fill="#CC9900" width="8.153" height="2.32"/>
	<path d="M34.738,18.717v2.825v0.487h4.434v-0.495h4.219v-2.825h-3.719h-0.5h-0.023h-4.411V18.717z M43.391,21.529h-8.153v-2.32
		h8.153V21.529z"/>
	<rect x="43.892" y="19.209" fill="#CC9900" width="8.121" height="2.32"/>
	<polygon points="43.392,18.709 43.392,21.534 47.826,21.534 48.325,21.534 52.012,21.534 52.012,21.529 43.892,21.529 
		43.892,19.209 52.012,19.209 52.012,18.709 48.326,18.709 47.826,18.709 47.825,18.709 43.891,18.709 	"/>
	<polygon fill="#CC9900" points="52.512,19.209 52.512,21.529 54.244,21.529 56.084,19.688 55.605,19.209 	"/>
	<polygon points="52.012,18.709 52.012,19.209 52.012,21.529 52.012,21.534 54.239,21.534 54.244,21.529 52.512,21.529 
		52.512,19.209 55.605,19.209 55.105,18.709 52.544,18.709 	"/>
	<polygon fill="#CC9900" points="39.672,22.034 39.672,24.334 43.392,24.334 43.891,24.334 47.825,24.334 47.825,22.034 	"/>
	<polygon points="43.392,21.534 39.172,21.534 39.172,22.029 39.172,24.334 39.672,24.334 39.672,22.034 47.825,22.034 
		47.825,24.334 47.826,24.334 47.826,21.534 	"/>
	<polygon fill="#CC9900" points="48.326,24.334 51.439,24.334 53.739,22.034 48.326,22.034 	"/>
	<polygon points="52.012,21.534 48.325,21.534 47.826,21.534 47.826,24.334 48.326,24.334 48.326,22.034 53.739,22.034 
		54.239,21.534 	"/>
	<rect x="35.238" y="24.834" fill="#CC9900" width="8.153" height="2.32"/>
	<path d="M39.172,24.334h-0.023h-4.411v0.008v2.826v0.485h4.265V27.16h4.388v-2.826h-3.719H39.172z M43.391,27.154h-8.153v-2.32
		h8.153V27.154z"/>
	<polygon fill="#CC9900" points="43.892,24.834 43.892,27.154 48.619,27.154 50.939,24.834 	"/>
	<polygon points="47.826,24.334 47.825,24.334 43.891,24.334 43.392,24.334 43.392,27.16 47.657,27.16 48.156,27.16 48.613,27.16 
		48.619,27.154 43.892,27.154 43.892,24.834 50.939,24.834 51.439,24.334 48.326,24.334 	"/>
	<polygon fill="#CC9900" points="39.503,27.66 39.503,29.961 43.223,29.961 43.721,29.961 45.812,29.961 47.656,28.117 
		47.656,27.66 	"/>
	<polygon points="47.657,27.16 43.392,27.16 39.003,27.16 39.003,27.654 39.003,29.961 39.503,29.961 39.503,27.66 47.656,27.66 
		47.656,28.117 47.657,28.116 	"/>
	<polygon points="47.657,27.16 47.657,28.116 48.613,27.16 48.156,27.16 	"/>
	<polygon fill="#CC9900" points="43.221,30.461 35.069,30.461 35.069,32.78 42.993,32.78 43.221,32.552 	"/>
	<polygon points="43.223,29.961 39.503,29.961 39.003,29.961 38.979,29.961 34.569,29.961 34.569,29.969 34.569,32.793 
		34.569,33.28 39.003,33.28 39.003,32.785 42.988,32.785 42.993,32.78 35.069,32.78 35.069,30.461 43.221,30.461 43.221,32.552 
		43.223,32.55 	"/>
	<polygon fill="#CC9900" points="43.723,32.05 45.312,30.461 43.723,30.461 	"/>
	<polygon points="43.223,29.961 43.223,32.55 43.723,32.05 43.723,30.461 45.312,30.461 45.812,29.961 43.721,29.961 	"/>
	<polygon fill="#CC9900" points="39.503,35.585 40.188,35.585 42.488,33.285 39.503,33.285 	"/>
	<polygon points="39.003,33.28 39.003,35.585 39.503,35.585 39.503,33.285 42.488,33.285 42.988,32.785 39.003,32.785 	"/>
	<polygon fill="#CC9900" points="39.688,36.085 35.069,36.085 35.069,36.624 36.852,38.406 37.367,38.406 	"/>
	<polygon points="37.367,38.406 36.852,38.406 37.109,38.664 	"/>
	<polygon points="35.069,36.085 39.688,36.085 40.188,35.585 39.503,35.585 39.003,35.585 38.979,35.585 34.569,35.585 
		34.569,35.594 34.569,36.124 35.069,36.624 	"/>
</g>
<polygon fill="none" stroke="#FF0000" stroke-width="2" stroke-linejoin="bevel" stroke-miterlimit="3.8637" points="18.134,19.688 
	37.109,0.713 56.084,19.688 37.109,38.664 18.134,19.688 "/>
<g>
	<polygon fill="#CC9900" points="66.263,16.65 65.792,16.65 63.491,18.951 66.263,18.951 	"/>
	<polygon points="66.263,16.179 65.792,16.65 66.263,16.65 	"/>
	<polygon fill="#CC9900" points="70.981,18.951 70.981,18.97 74.915,18.97 74.915,16.65 66.763,16.65 66.763,18.951 	"/>
	<polygon points="66.263,16.65 66.263,18.951 66.763,18.951 66.763,16.65 74.915,16.65 74.915,18.97 70.981,18.97 70.981,19.47 
		75.415,19.47 75.415,16.15 66.794,16.15 66.292,16.15 66.263,16.179 	"/>
	<polygon fill="#CC9900" points="70.481,19.451 62.991,19.451 62.52,19.922 64.37,21.771 70.481,21.771 	"/>
	<polygon points="70.981,18.97 70.981,18.951 66.763,18.951 66.263,18.951 63.491,18.951 62.991,19.451 70.481,19.451 
		70.481,21.771 64.37,21.771 64.374,21.775 66.263,21.775 66.794,21.775 70.981,21.775 70.981,19.47 	"/>
	<polygon fill="#CC9900" points="64.874,22.275 66.263,23.665 66.263,22.275 	"/>
	<polygon points="66.263,21.775 64.374,21.775 64.874,22.275 66.263,22.275 	"/>
	<polygon fill="#CC9900" points="70.981,24.595 74.915,24.595 74.915,22.275 66.763,22.275 66.763,24.165 67.174,24.576 
		70.981,24.576 	"/>
	<polygon points="66.794,21.775 66.263,21.775 66.263,22.275 66.263,23.665 66.763,24.165 66.763,22.275 74.915,22.275 
		74.915,24.595 70.981,24.595 70.981,25.095 75.415,25.095 75.415,21.775 70.981,21.775 	"/>
	<polygon fill="#CC9900" points="70.481,25.076 67.674,25.076 69.994,27.396 70.481,27.396 	"/>
	<polygon points="70.981,24.595 70.981,24.576 67.174,24.576 67.674,25.076 70.481,25.076 70.481,27.396 69.994,27.396 70,27.402 
		70.981,27.402 70.981,25.095 	"/>
	<polygon fill="#CC9900" points="74.746,27.902 70.5,27.902 72.819,30.222 74.746,30.222 	"/>
	<polygon points="70,27.402 70.5,27.902 74.746,27.902 74.746,30.222 72.819,30.222 73.319,30.722 75.246,30.722 75.246,27.402 
		70.981,27.402 	"/>
	<polygon fill="#CC9900" points="78.925,36.327 78.932,36.334 78.932,36.327 	"/>
	<polygon points="78.925,36.327 78.932,36.327 78.932,36.334 79.432,36.834 79.432,35.827 78.425,35.827 	"/>
	<polygon fill="#CC9900" points="92.712,18.942 96.398,18.942 96.93,18.942 99.491,18.942 97.191,16.643 92.712,16.643 	"/>
	<polygon points="92.212,16.143 92.212,18.942 92.712,18.942 92.712,16.643 97.191,16.643 96.691,16.143 	"/>
	<rect x="88.277" y="19.442" fill="#CC9900" width="8.121" height="2.32"/>
	<polygon points="92.212,21.768 96.398,21.768 96.398,21.763 88.277,21.763 88.277,19.442 96.398,19.442 96.398,18.942 
		92.712,18.942 92.212,18.942 87.777,18.942 87.777,22.263 92.212,22.263 	"/>
	<polygon fill="#CC9900" points="96.898,19.442 96.898,21.763 98.629,21.763 100.47,19.922 99.991,19.442 	"/>
	<polygon points="96.398,18.942 96.398,19.442 96.398,21.763 96.398,21.768 98.625,21.768 98.629,21.763 96.898,21.763 
		96.898,19.442 99.991,19.442 99.491,18.942 96.93,18.942 	"/>
	<polygon fill="#CC9900" points="92.712,24.567 95.825,24.567 98.125,22.268 92.712,22.268 	"/>
	<polygon points="96.398,21.768 92.212,21.768 92.212,22.263 92.212,24.567 92.712,24.567 92.712,22.268 98.125,22.268 
		98.625,21.768 	"/>
	<polygon fill="#CC9900" points="88.277,25.067 88.277,27.388 93.004,27.388 95.325,25.067 	"/>
	<polygon points="92.212,24.567 87.777,24.567 87.777,27.888 92.042,27.888 92.042,27.394 92.999,27.394 93.004,27.388 
		88.277,27.388 88.277,25.067 95.325,25.067 95.825,24.567 92.712,24.567 	"/>
	<polygon points="92.042,27.888 92.042,28.35 92.999,27.394 92.042,27.394 	"/>
	<polygon fill="#CC9900" points="88.108,32.284 89.698,30.694 88.108,30.694 	"/>
	<polygon points="88.108,32.284 88.108,30.694 89.698,30.694 90.198,30.194 87.608,30.194 87.608,32.784 	"/>
</g>
<rect id="_x3C_Slice_x3E__5_" x="17.428" fill="none" width="39.297" height="39.344"/>
</svg>
