<?xml version="1.0" encoding="UTF-8" standalone="no"?>
<!-- Created with Inkscape (http://www.inkscape.org/) -->

<svg
   xmlns:dc="http://purl.org/dc/elements/1.1/"
   xmlns:cc="http://creativecommons.org/ns#"
   xmlns:rdf="http://www.w3.org/1999/02/22-rdf-syntax-ns#"
   xmlns:svg="http://www.w3.org/2000/svg"
   xmlns="http://www.w3.org/2000/svg"
   xmlns:sodipodi="http://sodipodi.sourceforge.net/DTD/sodipodi-0.dtd"
   xmlns:inkscape="http://www.inkscape.org/namespaces/inkscape"
   width="38"
   height="38"
   id="svg13014"
   version="1.1"
   inkscape:version="0.47 r22583"
   sodipodi:docname="Новый документ 143">
  <defs
     id="defs13016">
    <inkscape:perspective
       sodipodi:type="inkscape:persp3d"
       inkscape:vp_x="0 : 526.18109 : 1"
       inkscape:vp_y="0 : 1000 : 0"
       inkscape:vp_z="744.09448 : 526.18109 : 1"
       inkscape:persp3d-origin="372.04724 : 350.78739 : 1"
       id="perspective13022" />
    <inkscape:perspective
       id="perspective13007"
       inkscape:persp3d-origin="0.5 : 0.33333333 : 1"
       inkscape:vp_z="1 : 0.5 : 1"
       inkscape:vp_y="0 : 1000 : 0"
       inkscape:vp_x="0 : 0.5 : 1"
       sodipodi:type="inkscape:persp3d" />
  </defs>
  <sodipodi:namedview
     id="base"
     pagecolor="#ffffff"
     bordercolor="#666666"
     borderopacity="1.0"
     inkscape:pageopacity="0.0"
     inkscape:pageshadow="2"
     inkscape:zoom="0.35"
     inkscape:cx="-366"
     inkscape:cy="-69.571432"
     inkscape:document-units="px"
     inkscape:current-layer="layer1"
     showgrid="false"
     inkscape:window-width="553"
     inkscape:window-height="478"
     inkscape:window-x="410"
     inkscape:window-y="207"
     inkscape:window-maximized="0" />
  <metadata
     id="metadata13019">
    <rdf:RDF>
      <cc:Work
         rdf:about="">
        <dc:format>image/svg+xml</dc:format>
        <dc:type
           rdf:resource="http://purl.org/dc/dcmitype/StillImage" />
        <dc:title></dc:title>
      </cc:Work>
    </rdf:RDF>
  </metadata>
  <g
     inkscape:label="Layer 1"
     inkscape:groupmode="layer"
     id="layer1"
     transform="translate(-741,-424.79075)">
    <g
       id="g11878"
       transform="matrix(1.1176471,0,0,1.1176471,89.887484,237.10019)">
      <path
         id="rect5649-0"
         transform="translate(76.142852,-598.0664)"
         d="m 512.0625,778.59375 -4.0625,4.0625 8.75,0 0,-4.0625 -4.6875,0 z m 18.84375,0.0625 0,4.0625 8.5625,0 -4.0625,-4.0625 -4.5,0 z m 0.0625,4.34375 0,4.09375 4.6875,0 L 539.75,783 l -8.78125,0 z m -23.1875,0.125 4.09375,4.09375 4.90625,0 0,-4.09375 -9,0 z m 8.84375,8.84375 4.09375,4.09375 0,-4.09375 -4.09375,0 z m 4.90625,0 0,4.09375 5.1875,0 4.0625,-4.0625 0,-0.0312 -9.25,0 z m -0.5625,4.34375 2.75,2.75 2.75,-2.75 -5.5,0 z"
         style="fill:#ff6600;fill-opacity:1;stroke:#ffffff;stroke-width:0.5;stroke-miterlimit:4;stroke-opacity:1;stroke-dasharray:none" />
      <rect
         transform="matrix(0.70710677,-0.70710679,0.70710677,0.70710679,0,0)"
         y="543.37793"
         x="281.84225"
         height="22.705984"
         width="22.705984"
         id="rect5441-0-6-7"
         style="fill:none;stroke:#ff0000;stroke-width:1.88888896;stroke-miterlimit:4;stroke-dasharray:none" />
    </g>
  </g>
</svg>
