<?xml version="1.0" encoding="UTF-8" standalone="no"?>
<!-- Created with Inkscape (http://www.inkscape.org/) -->

<svg
   xmlns:dc="http://purl.org/dc/elements/1.1/"
   xmlns:cc="http://creativecommons.org/ns#"
   xmlns:rdf="http://www.w3.org/1999/02/22-rdf-syntax-ns#"
   xmlns:svg="http://www.w3.org/2000/svg"
   xmlns="http://www.w3.org/2000/svg"
   xmlns:sodipodi="http://sodipodi.sourceforge.net/DTD/sodipodi-0.dtd"
   xmlns:inkscape="http://www.inkscape.org/namespaces/inkscape"
   width="38"
   height="38"
   id="svg12735"
   version="1.1"
   inkscape:version="0.47 r22583"
   sodipodi:docname="Новый документ 139">
  <defs
     id="defs12737">
    <inkscape:perspective
       sodipodi:type="inkscape:persp3d"
       inkscape:vp_x="0 : 526.18109 : 1"
       inkscape:vp_y="0 : 1000 : 0"
       inkscape:vp_z="744.09448 : 526.18109 : 1"
       inkscape:persp3d-origin="372.04724 : 350.78739 : 1"
       id="perspective12743" />
    <inkscape:perspective
       id="perspective12728"
       inkscape:persp3d-origin="0.5 : 0.33333333 : 1"
       inkscape:vp_z="1 : 0.5 : 1"
       inkscape:vp_y="0 : 1000 : 0"
       inkscape:vp_x="0 : 0.5 : 1"
       sodipodi:type="inkscape:persp3d" />
  </defs>
  <sodipodi:namedview
     id="base"
     pagecolor="#ffffff"
     bordercolor="#666666"
     borderopacity="1.0"
     inkscape:pageopacity="0.0"
     inkscape:pageshadow="2"
     inkscape:zoom="0.35"
     inkscape:cx="91.142856"
     inkscape:cy="-18.142855"
     inkscape:document-units="px"
     inkscape:current-layer="layer1"
     showgrid="false"
     inkscape:window-width="553"
     inkscape:window-height="478"
     inkscape:window-x="274"
     inkscape:window-y="378"
     inkscape:window-maximized="0" />
  <metadata
     id="metadata12740">
    <rdf:RDF>
      <cc:Work
         rdf:about="">
        <dc:format>image/svg+xml</dc:format>
        <dc:type
           rdf:resource="http://purl.org/dc/dcmitype/StillImage" />
        <dc:title></dc:title>
      </cc:Work>
    </rdf:RDF>
  </metadata>
  <g
     inkscape:label="Layer 1"
     inkscape:groupmode="layer"
     id="layer1"
     transform="translate(-283.85714,-476.21933)">
    <g
       id="g11837"
       transform="matrix(1.1176471,0,0,1.1176471,-320.97905,288.52884)">
      <path
         id="rect5556-9"
         d="m 558.1741,168.8711 -2.59375,2.59375 5.1875,0 -2.59375,-2.59375 z m -2.875,2.875 -3.9375,3.9375 0,0.15625 9.25,0 0,-4.09375 -5.3125,0 z m 6.125,0.375 0,3.71875 3.71875,0 -3.71875,-3.71875 z m -10.625,4.125 -2,2 0,2.0625 9.21875,0 0,-4.0625 -7.21875,0 z m 8.0625,0 0,4.0625 9.21875,0 0,-1.53125 -2.53125,-2.53125 -6.6875,0 z m -12.40625,4.34375 -1.1875,1.1875 0,2.875 9.21875,0 0,-4.0625 -8.03125,0 z m 8.84375,0 0,4.0625 9.25,0 0,-4.0625 -9.25,0 z m 10.0625,0 0,4.0625 8.59375,0 -4.0625,-4.0625 -4.53125,0 z m -23.125,4.46875 4.09375,4.09375 4.90625,0 0,-4.09375 -9,0 z m 9.8125,0 0,4.09375 9.25,0 0,-4.09375 -9.25,0 z m 10.0625,0 0,4.09375 7.90625,0 1.34375,-1.34375 0,-2.75 -9.25,0 z m -13.59375,4.375 0,1.90625 2.15625,2.15625 7.09375,0 0,-4.0625 -9.25,0 z m 10.0625,0 0,4.0625 7.09375,0 2.15625,-2.15625 0,-1.90625 -9.25,0 z m -7.5,4.46875 4.09375,4.09375 0,-4.09375 -4.09375,0 z m 4.90625,0 0,4.09375 5.1875,0 4.0625,-4.0625 0,-0.0312 -9.25,0 z m -0.5625,4.34375 2.75,2.75 2.75,-2.75 -5.5,0 z"
         style="fill:#ff6600;fill-opacity:1;stroke:#ffffff;stroke-width:0.5;stroke-miterlimit:4;stroke-opacity:1;stroke-dasharray:none" />
      <rect
         transform="matrix(0.70710677,-0.70710679,0.70710677,0.70710679,0,0)"
         y="514.10004"
         x="252.56445"
         height="22.705984"
         width="22.705984"
         id="rect5771"
         style="fill:none;stroke:#ff0000;stroke-width:1.88888896;stroke-miterlimit:4;stroke-dasharray:none" />
    </g>
  </g>
</svg>
