<?xml version="1.0" encoding="UTF-8" standalone="no"?>
<!-- Generator: Adobe Illustrator 13.0.0, SVG Export Plug-In . SVG Version: 6.00 Build 14948)  -->
<svg
   xmlns:dc="http://purl.org/dc/elements/1.1/"
   xmlns:cc="http://creativecommons.org/ns#"
   xmlns:rdf="http://www.w3.org/1999/02/22-rdf-syntax-ns#"
   xmlns:svg="http://www.w3.org/2000/svg"
   xmlns="http://www.w3.org/2000/svg"
   xmlns:sodipodi="http://sodipodi.sourceforge.net/DTD/sodipodi-0.dtd"
   xmlns:inkscape="http://www.inkscape.org/namespaces/inkscape"
   version="1.0"
   id="Слой_1"
   x="0px"
   y="0px"
   width="319.10999"
   height="295.28"
   viewBox="0 0 361.074 329.157"
   enable-background="new 0 0 361.074 329.157"
   xml:space="preserve"
   sodipodi:version="0.32"
   inkscape:version="0.46"
   sodipodi:docname="Trtl2.svg"
   inkscape:output_extension="org.inkscape.output.svg.inkscape"><metadata
   id="metadata2918"><rdf:RDF><cc:Work
       rdf:about=""><dc:format>image/svg+xml</dc:format><dc:type
         rdf:resource="http://purl.org/dc/dcmitype/StillImage" /></cc:Work></rdf:RDF></metadata><defs
   id="defs2916"><inkscape:perspective
     sodipodi:type="inkscape:persp3d"
     inkscape:vp_x="0 : 164.57851 : 1"
     inkscape:vp_y="0 : 1000 : 0"
     inkscape:vp_z="361.07401 : 164.57851 : 1"
     inkscape:persp3d-origin="180.537 : 109.719 : 1"
     id="perspective2920" /></defs><sodipodi:namedview
   inkscape:window-height="731"
   inkscape:window-width="640"
   inkscape:pageshadow="2"
   inkscape:pageopacity="0.0"
   guidetolerance="10.0"
   gridtolerance="10.0"
   objecttolerance="10.0"
   borderopacity="1.0"
   bordercolor="#666666"
   pagecolor="#ffffff"
   id="base"
   showgrid="false"
   inkscape:zoom="1.4983078"
   inkscape:cx="180.537"
   inkscape:cy="164.57851"
   inkscape:window-x="634"
   inkscape:window-y="40"
   inkscape:current-layer="Слой_1"
   width="319.11px" />
<g
   id="XMLID_1_"
   transform="translate(-24.694525,1.3348392)">
	<g
   id="g2695">
		<path
   d="M 34.781,256.78 C 34.561,258.13 34.331,259.69 34.141,261.4 L 34.051,261.389 C 34.051,261.389 30.641,258.169 29.341,257.329 C 27.631,256.239 21.971,253.959 21.971,253.959 C 21.971,253.959 27.191,253.809 28.881,254.189 C 30.451,254.55 34.781,256.78 34.781,256.78 z"
   id="path2697" />
		<path
   d="M 176.662,277.62 C 180.682,277.88 184.422,277.99 186.231,278 C 186.242,278 186.242,278 186.252,278 C 188.062,277.99 191.802,277.88 195.822,277.62 C 198.551,277.45 201.441,277.25 203.832,277 L 203.832,277.04 C 213.632,275.95 222.412,274.03 228.622,271.32 C 234.722,268.65 241.521,262.38 247.842,254.57 C 249.492,253.36 251.702,249.889 253.012,247.69 C 256.252,243.08 259.242,238.179 261.823,233.339 C 261.913,233.159 262.012,232.989 262.102,232.809 C 264.542,228.309 267.012,223.009 268.732,217.37 C 268.842,217.059 268.932,216.74 269.012,216.42 C 269.672,214.26 270.152,212.21 270.432,210.32 C 270.442,210.29 270.453,210.259 270.453,210.219 C 270.863,207.789 271.093,205.32 271.073,202.869 C 272.003,180.109 265.963,143.769 253.613,120.059 C 253.463,119.749 253.323,119.499 253.213,119.299 C 248.573,110.559 243.043,103.619 236.673,99.829 C 231.033,96.479 206.043,94.239 191.063,94.089 C 189.403,94.029 187.853,93.999 186.633,94.009 L 186.633,94 C 186.483,94 186.333,93.99 186.183,93.99 C 172.303,93.66 142.043,96.13 135.823,99.83 C 129.453,103.61 123.923,110.55 119.273,119.29 C 119.243,119.36 119.193,119.45 119.143,119.54 C 119.063,119.69 118.973,119.86 118.873,120.06 C 118.873,120.07 118.863,120.09 118.853,120.1 C 106.523,143.81 100.483,180.13 101.413,202.87 C 101.393,205.32 101.623,207.79 102.033,210.22 C 102.033,210.26 102.043,210.29 102.053,210.321 C 102.333,212.211 102.813,214.26 103.473,216.421 C 103.553,216.741 103.643,217.061 103.753,217.371 C 105.473,223.011 107.943,228.31 110.383,232.81 C 110.473,232.991 110.573,233.161 110.663,233.34 C 113.243,238.18 116.233,243.08 119.473,247.691 C 120.783,249.89 122.993,253.361 124.643,254.571 C 130.963,262.381 137.763,268.651 143.863,271.321 C 149.933,273.97 158.473,275.871 168.013,276.97 L 168.013,276.93 C 170.511,277.21 173.681,277.43 176.662,277.62 z M 247.792,77.5 C 280.032,96.67 295.352,179.52 290.882,216.76 C 288.042,240.361 259.342,285.96 237.562,295.49 C 225.333,300.849 205.212,303.75 184.632,304.08 C 184.572,304.08 184.522,304.08 184.462,304.08 C 163.872,303.75 143.762,300.85 131.532,295.49 C 109.752,285.96 81.042,240.36 78.212,216.76 C 73.742,179.52 89.052,96.67 121.302,77.5 C 129.302,72.74 167.512,68.75 184.882,69.25 C 201.881,69.5 239.961,72.85 247.792,77.5 z"
   id="path2699" />
		<path
   d="M 48.731,239.78 C 54.651,243.269 62.741,250.34 66.001,249.32 C 73.531,246.969 74.641,246.38 80.131,245.08 C 84.381,244.08 92.881,260.96 96.631,265.33 C 101.171,272.65 102.901,273.79 106.381,279.08 C 107.821,281.269 111.771,283.74 110.881,286.33 C 109.991,288.93 104.261,291.64 95.131,292.7 C 92.531,293 67.211,289.8 60.281,287.22 C 56.271,285.72 34.751,279.7 33.941,273.58 C 33.521,269.39 33.741,265.07 34.141,261.4 C 34.331,259.69 34.561,258.129 34.781,256.78 C 35.041,255.179 35.251,252.679 35.771,249.99 C 36.081,248.38 36.501,246.7 37.101,245.11 C 37.961,242.889 39.181,240.83 40.981,239.37 C 41.591,238.87 42.271,238.44 43.031,238.09 C 44.251,237.53 46.312,238.36 48.731,239.78 z"
   id="path2701" />
		<path
   d="M 228.622,271.32 C 222.412,274.03 213.632,275.95 203.832,277.04 L 203.832,277 C 204.922,276.88 205.912,276.76 206.731,276.62 C 209.381,276.18 201.072,255.84 195.351,253.88 C 194.601,253.62 192.941,253.71 191.101,253.85 L 191.101,253.79 C 194.091,253.59 196.761,253.26 198.662,252.78 C 204.052,251.44 217.182,243.67 217.182,243.67 C 237.422,252.15 236.842,252.03 238.272,252.58 C 239.852,253.33 243.022,255.08 246.852,255 C 247.142,254.99 247.482,254.84 247.842,254.57 C 241.521,262.38 234.721,268.65 228.622,271.32 z"
   id="path2703" />
		<path
   d="M 173.832,252.78 C 176.672,253.49 181.252,253.9 186.032,253.969 C 186.172,253.969 186.311,253.969 186.452,253.969 C 188.042,253.94 189.612,253.889 191.101,253.789 L 191.101,253.849 C 189.471,253.99 187.691,254.16 186.251,254.19 C 186.241,254.19 186.241,254.19 186.23,254.19 C 183.15,254.139 178.55,253.389 177.13,253.879 C 171.41,255.839 163.1,276.179 165.75,276.619 C 166.41,276.729 167.17,276.829 168.01,276.929 L 168.01,276.969 C 158.47,275.869 149.93,273.969 143.86,271.32 C 137.76,268.65 130.96,262.38 124.64,254.57 C 125,254.84 125.34,254.99 125.63,255 C 129.46,255.08 132.63,253.33 134.21,252.58 C 135.64,252.03 135.06,252.15 155.3,243.67 C 155.301,243.67 168.431,251.44 173.832,252.78 z"
   id="path2705" />
		<path
   d="M 333.551,319.83 C 331.121,322.58 328.091,325.62 324.671,328.13 L 324.551,327.97 C 319.251,331.58 297.901,319.89 293.641,317.97 C 286.282,314.651 264.311,298.46 262.711,296.21 C 257.481,288.84 256.631,287.08 262.381,279.83 C 265.551,275.83 270.731,268.98 273.381,265.58 C 277.021,262.67 285.881,245.33 288.631,242.08 C 292.991,236.93 302.041,260.64 306.731,268.309 C 309.811,273.339 313.961,280.82 318.032,287.98 C 319.802,291.08 331.572,292.169 338.832,294.139 C 341.762,294.929 343.962,295.869 344.481,297.139 C 344.832,297.969 345.032,298.809 345.122,299.639 C 345.382,301.98 344.742,304.28 343.702,306.429 C 342.962,307.959 342.012,309.419 341.032,310.74 C 339.401,312.94 337.691,314.78 336.681,316.059 C 336.651,316.099 336.621,316.129 336.601,316.169 C 335.731,317.27 334.711,318.51 333.551,319.83 z"
   id="path2707" />
		<path
   d="M 350.501,307.27 C 353.181,307.911 360.821,311.05 360.821,311.05 C 360.821,311.05 352.47,309.95 349.68,309.95 C 347.75,309.94 342.701,310.54 341.031,310.74 C 342.01,309.42 342.961,307.96 343.701,306.429 C 344.912,306.53 349.011,306.9 350.501,307.27 z"
   id="path2709" />
		<path
   d="M 356.671,288.23 C 356.231,288.49 349.271,292.599 347.561,294.62 C 346.641,295.69 345.162,299.64 345.162,299.64 L 345.122,299.64 C 345.032,298.81 344.832,297.97 344.481,297.14 C 343.961,295.87 341.761,294.93 338.832,294.14 C 340.322,293.5 343.992,291.93 345.462,291.42 C 348.122,290.49 356.171,288.36 356.671,288.23 z"
   id="path2711" />
		<path
   d="M 343.072,318.72 C 344.601,319.67 348.282,323.34 348.582,323.651 C 348.222,323.501 342.392,321.02 340.302,320.531 C 338.652,320.151 333.552,319.831 333.552,319.831 C 334.712,318.511 335.732,317.27 336.602,316.171 C 337.292,316.4 341.702,317.88 343.072,318.72 z"
   id="path2713" />
		<path
   d="M 331.822,57.09 C 334.252,57.72 341.162,60.8 341.162,60.8 C 341.162,60.8 333.521,59.76 330.962,59.77 C 328.962,59.77 325.112,60.42 324.642,60.5 C 325.062,59.56 325.413,58.58 325.682,57.56 C 325.752,57.31 325.863,57.04 325.892,56.78 C 325.913,56.66 325.922,56.53 325.922,56.4 L 326.042,56.41 C 326.042,56.41 330.231,56.68 331.822,57.09 z"
   id="path2715" />
		<path
   d="M 321.971,43.73 C 321.881,43.61 321.801,43.49 321.721,43.39 C 322.651,43.1 326.301,41.95 327.811,41.38 C 330.141,40.5 336.622,40.38 337.822,40.36 C 336.202,40.95 330.271,43.18 328.801,44.96 C 327.911,46.03 324.931,49.12 324.931,49.12 L 324.702,49.21 C 324.021,47.37 323.092,45.51 321.992,43.76 C 321.981,43.75 321.981,43.74 321.971,43.73 z"
   id="path2717" />
		<path
   d="M 326.072,69.79 C 327.452,70.72 330.681,74.36 330.941,74.67 C 330.622,74.52 325.372,72.08 323.462,71.6 C 322.212,71.28 318.732,71.03 317.632,70.96 C 318.592,69.78 319.532,68.58 320.422,67.35 C 321.412,67.72 324.931,69.02 326.072,69.79 z"
   id="path2719" />
		<path
   d="M 317.631,70.96 C 316.751,72.04 315.841,73.1 314.921,74.14 C 312.061,77.33 308.971,80.36 305.9,83.35 C 302.97,86.19 299.72,88.65 296.621,91.29 C 295.341,92.38 294.071,93.46 292.631,94.35 C 291.721,94.9 290.761,95.39 289.781,95.86 C 288.701,96.37 287.451,97.16 286.281,97.44 C 284.52,97.83 276.051,102.88 274.381,102.25 C 271.631,101.23 265.381,88.5 262.301,85.5 C 257.381,78.46 247.041,73.54 246.131,72.83 C 243.881,71.08 257.621,57.1 264.011,51.96 C 274.091,43.87 310.311,41.55 320.091,42.24 C 320.571,42.28 321.011,42.45 321.721,43.39 C 321.801,43.49 321.881,43.61 321.971,43.73 C 321.981,43.74 321.981,43.75 321.992,43.76 C 323.092,45.51 324.021,47.37 324.702,49.21 C 325.651,51.77 326.132,54.28 325.922,56.4 C 325.922,56.53 325.912,56.66 325.892,56.78 C 325.863,57.04 325.752,57.31 325.682,57.56 C 325.412,58.58 325.062,59.56 324.642,60.5 C 323.953,62.11 323.073,63.61 322.052,65.08 C 321.522,65.84 320.982,66.6 320.422,67.35 C 319.532,68.58 318.591,69.78 317.631,70.96 z"
   id="path2721" />
		<path
   d="M 242.141,154.01 L 242.141,153.91 C 245.811,153.81 249.612,153.56 251.851,153.62 C 256.351,153.75 264.412,154.97 264.981,154 C 265.801,152.59 256.572,126.1 253.612,120.06 C 265.962,143.77 272.002,180.11 271.072,202.87 C 271.072,202.3 271.051,201.74 271.021,201.17 C 270.992,200.72 249.841,201.09 244.431,201.17 L 244.431,201 C 238.801,200.92 223.952,200.08 223.681,199.58 C 220.851,194.33 209.601,176.58 209.601,176.58 L 221.481,156.62 C 221.481,156.62 237.051,154.19 242.141,154.01 z"
   id="path2723" />
		<path
   d="M 271.021,201.17 C 271.051,201.74 271.072,202.3 271.072,202.87 C 270.971,205.2 270.801,207.38 270.561,209.39 C 270.532,209.661 270.492,209.941 270.452,210.22 C 270.452,210.26 270.441,210.29 270.431,210.321 C 270.081,212.381 269.601,214.421 269.011,216.421 C 268.931,216.741 268.841,217.061 268.731,217.371 C 267.211,222.141 264.921,227.441 262.101,232.81 C 262.011,232.991 261.912,233.161 261.822,233.34 C 258.382,239.611 255.072,244.231 254.101,245.83 C 253.992,246.01 253.591,246.73 253.011,247.69 C 251.351,250.07 249.612,252.379 247.841,254.57 C 247.481,254.84 247.141,254.99 246.851,255 C 243.021,255.08 239.851,253.33 238.271,252.58 C 236.841,252.03 237.421,252.15 217.181,243.67 L 204.851,221.08 L 224.021,200.17 C 224.021,200.17 239.141,201.2 244.431,201.17 C 249.841,201.09 270.992,200.72 271.021,201.17 z"
   id="path2725" />
		<path
   d="M 253.612,120.06 C 256.572,126.1 265.801,152.59 264.981,154 C 264.412,154.97 256.351,153.75 251.851,153.62 C 249.612,153.56 245.811,153.81 242.141,153.91 C 241.532,153.93 240.931,153.94 240.341,153.95 C 240.331,153.95 240.321,153.95 240.311,153.95 C 238.501,154.13 228.231,155.25 228.231,155.25 C 228.231,155.25 224.851,155.88 221.431,156.33 L 208.101,132.25 L 209.261,130.34 L 209.282,130.3 C 210.971,127.9 214.471,122.75 215.901,119.43 L 215.912,119.42 L 216.851,117.88 C 216.851,117.88 232.851,114.17 236.851,115.33 C 240.381,115.26 252.151,117.66 253.122,119.16 C 253.151,119.2 253.182,119.25 253.212,119.3 C 253.322,119.5 253.461,119.75 253.612,120.06 z"
   id="path2727" />
		<path
   d="M 253.211,119.3 C 253.181,119.25 253.15,119.2 253.121,119.16 C 252.15,117.66 240.381,115.26 236.85,115.33 C 232.85,114.17 216.85,117.88 216.85,117.88 L 215.911,119.42 C 216.181,118.78 216.381,118.22 216.48,117.75 C 217.69,111.85 212.751,98.4 203.85,95.35 C 202.23,94.79 196.1,94.29 191.06,94.09 C 206.04,94.24 231.031,96.48 236.67,99.83 C 243.042,103.62 248.572,110.56 253.211,119.3 z"
   id="path2729" />
		<path
   d="M 162.751,176.78 C 162.841,176.65 162.881,176.58 162.881,176.58 L 151.011,156.62 C 151.011,156.62 134.411,154.03 129.881,154 C 125.251,153.93 107.321,153.92 106.881,155.25 C 104.881,161.25 103.251,174.25 102.631,180 C 102.141,184.55 101.381,200.25 101.381,200.25 C 103.881,200.92 122.031,200.96 127.881,201 C 133.381,200.94 148.531,200.08 148.801,199.58 C 151.451,194.66 161.511,178.75 162.751,176.78 z M 168.862,220.73 C 168.292,220.74 167.962,220.75 167.962,220.75 L 148.462,200.17 C 148.462,200.17 133.342,201.2 128.052,201.17 C 122.642,201.09 101.492,200.72 101.462,201.17 C 101.432,201.74 101.412,202.3 101.412,202.87 C 100.482,180.13 106.522,143.81 118.852,120.1 C 115.872,126.23 106.682,152.59 107.512,154 C 108.072,154.97 116.132,153.75 120.632,153.62 C 123.242,153.55 127.962,153.9 132.142,153.95 C 132.152,153.95 132.162,153.95 132.172,153.95 C 133.982,154.13 144.252,155.25 144.252,155.25 C 144.252,155.25 147.632,155.88 151.052,156.33 L 163.012,176.12 C 163.012,176.12 179.562,174.79 186.152,174.84 L 186.333,174.84 C 192.923,174.79 209.482,176.12 209.482,176.12 L 221.432,156.33 C 224.852,155.88 228.232,155.25 228.232,155.25 C 228.232,155.25 238.503,154.13 240.312,153.95 C 240.323,153.95 240.333,153.95 240.342,153.95 C 240.932,153.94 241.532,153.93 242.142,153.91 L 242.142,154.01 C 237.052,154.19 221.482,156.62 221.482,156.62 L 209.602,176.58 C 209.602,176.58 220.852,194.33 223.682,199.58 C 223.953,200.08 238.802,200.92 244.432,201 L 244.432,201.17 C 239.142,201.2 224.022,200.17 224.022,200.17 L 204.852,221.08 L 217.182,243.67 L 204.522,220.75 C 204.522,220.75 191.432,220.49 186.243,220.51 C 181.872,220.5 171.912,220.68 168.862,220.73 z"
   id="path2731" />
		<path
   d="M 208.101,132.25 L 221.431,156.33 L 209.481,176.12 C 209.481,176.12 192.921,174.79 186.332,174.84 L 186.151,174.84 C 179.561,174.79 163.011,176.12 163.011,176.12 L 151.051,156.33 L 164.381,132.25 C 164.381,132.25 180.331,131.68 186.111,131.74 C 186.19,131.74 186.281,131.74 186.371,131.74 C 192.162,131.68 208.101,132.25 208.101,132.25 z"
   id="path2733" />
		<path
   d="M 201.492,9 C 213.132,10.33 221.122,44.36 219.721,57.25 C 219.711,57.25 217.541,63.25 216.112,65.5 C 207.551,64.57 193.511,63.72 184.551,63.5 C 175.862,63.72 163.411,64.63 155.241,65.48 C 153.821,63.22 151.671,57.25 151.651,57.25 C 150.251,44.36 158.241,10.33 169.881,9 C 174.331,8.49 179.431,0.6 186.491,0.5 C 193.551,0.6 197.042,8.49 201.492,9 z"
   id="path2735" />
		<path
   d="M 186.242,220.51 C 191.431,220.49 204.521,220.75 204.521,220.75 L 217.181,243.67 C 217.181,243.67 204.051,251.441 198.661,252.78 C 196.761,253.259 194.091,253.59 191.1,253.79 C 189.611,253.89 188.04,253.94 186.451,253.97 C 186.31,253.97 186.171,253.97 186.031,253.97 C 181.251,253.901 176.671,253.491 173.831,252.781 C 168.431,251.441 155.301,243.671 155.301,243.671 L 167.961,220.751 C 167.961,220.751 168.291,220.741 168.861,220.731 C 171.912,220.68 181.872,220.5 186.242,220.51 z"
   id="path2737" />
		<path
   d="M 209.261,130.34 L 208.101,132.25 C 208.101,132.25 192.162,131.68 186.372,131.74 C 186.282,131.74 186.191,131.74 186.112,131.74 C 180.332,131.68 164.382,132.25 164.382,132.25 L 163.222,130.34 L 163.202,130.3 L 156.612,119.5 C 156.322,118.83 156.112,118.24 156.012,117.75 C 154.792,111.85 159.732,98.4 168.632,95.35 C 170.842,94.59 181.382,93.94 186.182,94.01 L 186.182,93.99 C 186.332,93.99 186.482,94 186.632,94 L 186.632,94.01 C 187.852,94 189.402,94.03 191.062,94.09 C 196.102,94.29 202.232,94.79 203.852,95.35 C 212.752,98.4 217.692,111.85 216.482,117.75 C 216.382,118.22 216.182,118.78 215.913,119.42 L 215.902,119.43 L 209.283,130.3 L 209.261,130.34 z"
   id="path2739" />
		<path
   d="M 195.351,253.88 C 201.072,255.84 209.381,276.18 206.731,276.62 C 205.912,276.76 204.921,276.88 203.832,277 C 201.441,277.25 198.552,277.45 195.822,277.62 C 191.801,277.88 188.061,277.99 186.252,278 C 186.242,278 186.242,278 186.231,278 C 184.421,277.99 180.681,277.88 176.662,277.62 C 173.682,277.43 170.512,277.21 168.012,276.93 C 167.172,276.83 166.412,276.731 165.752,276.62 C 163.102,276.18 171.412,255.84 177.132,253.88 C 178.552,253.39 183.152,254.14 186.232,254.191 C 186.243,254.191 186.243,254.191 186.253,254.191 C 187.692,254.161 189.473,253.991 191.103,253.85 C 192.941,253.71 194.601,253.62 195.351,253.88 z"
   id="path2741" />
		<path
   d="M 186.181,93.99 L 186.181,94.01 C 181.381,93.94 170.841,94.59 168.631,95.35 C 159.731,98.4 154.791,111.85 156.011,117.75 C 156.111,118.24 156.321,118.83 156.611,119.5 L 155.631,117.88 C 155.631,117.88 139.631,114.17 135.631,115.33 C 132.101,115.26 120.331,117.66 119.361,119.16 C 119.331,119.2 119.311,119.24 119.271,119.29 C 123.921,110.55 129.451,103.61 135.821,99.83 C 142.042,96.13 172.301,93.66 186.181,93.99 z"
   id="path2743" />
		<path
   d="M 148.461,200.17 L 167.631,221.08 L 155.301,243.67 C 135.061,252.15 135.641,252.03 134.211,252.58 C 132.631,253.33 129.461,255.08 125.631,255 C 125.341,254.99 125.001,254.84 124.641,254.57 C 122.871,252.38 121.131,250.07 119.471,247.69 C 118.891,246.73 118.491,246.009 118.381,245.83 C 117.411,244.23 114.101,239.61 110.661,233.34 C 110.571,233.16 110.471,232.99 110.381,232.81 C 107.561,227.441 105.271,222.14 103.751,217.371 C 103.641,217.06 103.551,216.741 103.471,216.421 C 102.881,214.421 102.401,212.381 102.051,210.321 C 102.041,210.291 102.031,210.26 102.031,210.22 C 101.991,209.941 101.951,209.66 101.921,209.39 C 101.681,207.38 101.511,205.201 101.411,202.87 C 101.411,202.3 101.431,201.74 101.461,201.17 C 101.491,200.72 122.641,201.09 128.051,201.17 C 133.341,201.2 148.461,200.17 148.461,200.17 z"
   id="path2745" />
		<path
   d="M 163.221,130.34 L 164.381,132.25 L 151.051,156.33 C 147.631,155.88 144.251,155.25 144.251,155.25 C 144.251,155.25 133.981,154.13 132.171,153.95 C 132.161,153.95 132.151,153.95 132.141,153.95 C 127.961,153.9 123.241,153.55 120.631,153.62 C 116.131,153.75 108.071,154.97 107.511,154 C 106.681,152.59 115.871,126.23 118.851,120.1 C 118.861,120.09 118.871,120.07 118.871,120.06 C 118.961,119.88 119.051,119.71 119.141,119.54 C 119.191,119.45 119.241,119.36 119.271,119.29 C 119.311,119.24 119.331,119.2 119.361,119.16 C 120.331,117.66 132.101,115.26 135.631,115.33 C 139.631,114.17 155.631,117.88 155.631,117.88 L 156.611,119.5 C 158.061,122.82 161.521,127.91 163.201,130.3 L 163.221,130.34 z"
   id="path2747" />
		<path
   d="M 151.011,156.62 L 162.881,176.58 C 162.881,176.58 162.841,176.65 162.751,176.78 C 161.511,178.75 151.451,194.66 148.801,199.58 C 148.531,200.08 133.381,200.94 127.881,201 C 122.031,200.96 103.881,200.92 101.381,200.25 C 101.381,200.25 102.141,184.55 102.631,180 C 103.251,174.25 104.881,161.25 106.881,155.25 C 107.321,153.92 125.251,153.93 129.881,154 C 134.411,154.03 151.011,156.62 151.011,156.62 z"
   id="path2749" />
		<path
   d="M 46.062,127.3 C 44.522,127.3 42.982,127.25 41.442,127.17 C 40.482,127.12 39.522,127.06 38.562,126.98 C 36.812,126.84 35.132,126.57 33.482,126.11 C 32.452,125.83 31.442,125.47 30.442,125.02 C 30.202,124.91 29.932,124.82 29.712,124.68 C 29.632,124.63 29.552,124.58 29.482,124.52 C 27.712,123.36 26.062,121.41 24.672,119.05 C 23.662,117.33 22.792,115.39 22.122,113.39 C 22.122,113.37 22.112,113.36 22.112,113.34 C 22.082,113.25 22.062,113.16 22.042,113.08 C 21.722,111.85 21.862,111.38 22.152,110.97 C 27.842,102.98 52.632,76.47 65.282,73.82 C 73.302,72.14 108.342,74.37 109.932,79.66 C 110.832,82.68 104.022,88.14 101.262,92.3 C 100.342,93.85 99.342,95.31 98.372,96.81 C 95.162,101.73 94.532,104.21 93.362,106.89 C 92.032,109.95 90.682,113.06 89.722,115.84 C 89.142,117.53 87.692,118.79 86.262,119.89 C 85.312,120.62 83.912,121.09 82.822,121.6 C 81.852,122.06 80.862,122.49 79.842,122.84 C 78.252,123.4 76.602,123.69 74.952,123.98 C 70.932,124.7 66.982,125.65 62.922,126.11 C 58.662,126.58 54.372,127.04 50.092,127.22 C 48.751,127.28 47.411,127.3 46.062,127.3 z"
   id="path2751" />
		<path
   d="M 46.421,233.23 C 47.011,234.639 48.281,238.45 48.731,239.78 C 46.311,238.36 44.251,237.53 43.031,238.09 C 42.271,238.441 41.591,238.87 40.981,239.37 L 40.881,239.25 C 40.881,239.25 42.711,235.46 42.891,234.08 C 43.231,231.41 41.631,223.39 41.631,223.39 C 41.631,223.39 45.372,230.7 46.421,233.23 z"
   id="path2753" />
		<path
   d="M 46.062,127.3 C 45.582,127.96 43.332,131.11 42.732,132.36 C 41.862,134.19 40.322,140.1 40.322,140.1 C 40.322,140.1 39.502,134.94 39.672,133.22 C 39.802,131.78 41.172,127.93 41.442,127.17 C 42.981,127.25 44.521,127.3 46.062,127.3 z"
   id="path2755" />
		<path
   d="M 37.102,245.11 C 36.502,246.7 36.082,248.38 35.772,249.99 C 34.942,248.82 32.102,244.83 30.862,243.51 C 29.162,241.7 23.502,237.09 23.152,236.8 C 23.562,236.97 30.172,239.76 32.222,241.06 C 33.431,241.82 36.352,244.43 37.102,245.11 z"
   id="path2757" />
		<path
   d="M 33.481,126.11 L 33.461,126.17 C 33.461,126.17 30.191,128.96 28.831,130.6 C 27.241,132.51 23.381,138.72 23.141,139.1 C 23.261,138.67 25.191,131.76 26.231,129.56 C 26.931,128.07 29.381,124.67 29.381,124.67 L 29.481,124.52 C 29.551,124.58 29.631,124.63 29.711,124.68 C 29.931,124.82 30.201,124.91 30.441,125.02 C 31.441,125.47 32.451,125.83 33.481,126.11 z"
   id="path2759" />
		<path
   d="M 24.671,119.05 L 24.461,119.17 C 24.461,119.17 20.181,119.5 18.801,119.5 C 16.481,119.5 10.951,122.67 9.491,123.54 C 10.231,122.67 14.501,117.7 16.661,116.46 C 18.011,115.68 21.081,113.71 22.021,113.09 C 22.051,113.17 22.081,113.26 22.111,113.34 C 22.111,113.36 22.121,113.37 22.121,113.39 C 22.792,115.39 23.661,117.33 24.671,119.05 z"
   id="path2761" />
		<path
   d="M 22.042,113.08 C 22.062,113.16 22.082,113.25 22.112,113.34 C 22.082,113.26 22.052,113.17 22.022,113.09 C 22.031,113.1 22.031,113.09 22.042,113.08 z"
   id="path2763" />
	</g>
	<g
   id="g2765">
		<path
   d="M 155.441,65.77 C 155.381,65.68 155.311,65.59 155.241,65.48 C 153.821,63.22 151.671,57.25 151.651,57.25 C 150.251,44.36 158.241,10.33 169.881,9 C 174.331,8.49 179.431,0.6 186.491,0.5"
   id="path2767"
   style="fill:none;stroke:#000000" />
		<path
   d="M 155.011,65.5 C 155.091,65.49 155.161,65.48 155.241,65.48 C 163.411,64.63 175.862,63.72 184.551,63.5"
   id="path2769"
   style="fill:none;stroke:#000000" />
		<path
   d="M 184.461,304.08 C 163.871,303.75 143.761,300.85 131.531,295.49 C 109.751,285.96 81.041,240.36 78.211,216.76 C 73.741,179.52 89.051,96.67 121.301,77.5 C 129.301,72.74 167.511,68.75 184.881,69.25"
   id="path2771"
   style="fill:none;stroke:#000000" />
		<path
   d="M 101.261,92.3 C 104.021,88.14 110.831,82.68 109.931,79.66 C 108.341,74.37 73.301,72.14 65.281,73.82 C 52.631,76.47 27.841,102.98 22.151,110.97 C 21.861,111.38 21.721,111.85 22.041,113.08 C 22.061,113.16 22.081,113.25 22.111,113.34"
   id="path2773"
   style="fill:none;stroke:#000000" />
		<path
   d="M 216.131,65.5 C 216.121,65.5 216.121,65.5 216.111,65.5 C 207.55,64.57 193.51,63.72 184.55,63.5"
   id="path2775"
   style="fill:none;stroke:#000000" />
		<path
   d="M 184.461,304.08 C 184.521,304.08 184.571,304.08 184.631,304.08 C 205.211,303.75 225.331,300.85 237.561,295.49 C 259.341,285.96 288.041,240.36 290.881,216.76 C 295.351,179.52 280.031,96.67 247.791,77.5 C 239.961,72.85 201.881,69.5 184.881,69.25"
   id="path2777"
   style="fill:none;stroke:#000000" />
		<path
   d="M 101.261,92.3 C 100.341,93.85 99.341,95.31 98.371,96.81 C 95.161,101.73 94.531,104.21 93.361,106.89 C 92.031,109.95 90.681,113.06 89.721,115.84 C 89.141,117.53 87.691,118.79 86.261,119.89 C 85.311,120.62 83.911,121.09 82.821,121.6 C 81.851,122.06 80.861,122.49 79.841,122.84 C 78.251,123.4 76.601,123.69 74.951,123.98 C 70.931,124.7 66.981,125.65 62.921,126.11 C 58.661,126.58 54.371,127.04 50.091,127.22 C 48.751,127.28 47.411,127.3 46.061,127.3 C 44.521,127.3 42.981,127.25 41.441,127.17 C 40.481,127.12 39.521,127.06 38.561,126.98 C 36.811,126.84 35.131,126.57 33.481,126.11 C 32.451,125.83 31.441,125.47 30.441,125.02 C 30.201,124.91 29.931,124.82 29.711,124.68 C 29.631,124.63 29.551,124.58 29.481,124.52 C 27.711,123.36 26.061,121.41 24.671,119.05 C 23.661,117.33 22.791,115.39 22.121,113.39 C 22.121,113.37 22.111,113.36 22.111,113.34 C 22.081,113.26 22.051,113.17 22.021,113.09 C 22.021,113.08 22.011,113.06 22.011,113.05"
   id="path2779"
   style="fill:none;stroke:#000000" />
		<path
   d="M 273.381,265.58 C 277.021,262.67 285.881,245.33 288.631,242.08 C 292.991,236.93 302.041,260.64 306.731,268.309 C 309.811,273.339 313.961,280.82 318.032,287.98 C 319.802,291.08 331.572,292.169 338.832,294.139 C 341.762,294.929 343.962,295.869 344.481,297.139 C 344.832,297.969 345.032,298.809 345.122,299.639 C 345.382,301.98 344.742,304.28 343.702,306.429 C 342.962,307.959 342.012,309.419 341.032,310.74 C 339.401,312.94 337.691,314.78 336.681,316.059 C 336.651,316.099 336.621,316.129 336.601,316.169 C 335.731,317.269 334.711,318.509 333.551,319.829 C 331.121,322.579 328.091,325.619 324.671,328.129 C 324.631,328.159 324.591,328.19 324.551,328.219"
   id="path2781"
   style="fill:none;stroke:#000000" />
		<path
   d="M 273.381,265.58 C 270.731,268.98 265.551,275.83 262.381,279.83 C 256.631,287.08 257.481,288.84 262.711,296.21 C 264.311,298.46 286.281,314.65 293.641,317.97 C 297.901,319.89 319.251,331.58 324.551,327.97"
   id="path2783"
   style="fill:none;stroke:#000000" />
		<path
   d="M 96.631,265.33 C 92.881,260.96 84.381,244.08 80.131,245.08 C 74.641,246.38 73.531,246.97 66.001,249.32 C 62.741,250.34 54.651,243.269 48.731,239.78 C 46.311,238.36 44.251,237.53 43.031,238.09 C 42.271,238.441 41.591,238.87 40.981,239.37 C 39.181,240.83 37.961,242.89 37.101,245.11 C 36.501,246.7 36.081,248.38 35.771,249.99 C 35.251,252.679 35.041,255.179 34.781,256.78 C 34.561,258.13 34.331,259.69 34.141,261.4 C 33.741,265.07 33.521,269.389 33.941,273.58"
   id="path2785"
   style="fill:none;stroke:#000000" />
		<path
   d="M 96.631,265.33 C 101.171,272.65 102.901,273.79 106.381,279.08 C 107.821,281.269 111.771,283.74 110.881,286.33 C 109.991,288.93 104.261,291.64 95.131,292.7 C 92.531,293 67.211,289.8 60.281,287.22 C 56.271,285.72 34.751,279.7 33.941,273.58"
   id="path2787"
   style="fill:none;stroke:#000000" />
		<path
   d="M 262.301,85.5 C 257.381,78.46 247.041,73.54 246.131,72.83 C 243.881,71.08 257.621,57.1 264.011,51.96 C 274.091,43.87 310.311,41.55 320.091,42.24 C 320.571,42.28 321.011,42.45 321.721,43.39 C 321.801,43.49 321.881,43.61 321.971,43.73"
   id="path2789"
   style="fill:none;stroke:#000000" />
		<path
   d="M 262.301,85.5 C 265.381,88.5 271.631,101.23 274.381,102.25 C 276.051,102.88 284.521,97.83 286.281,97.44 C 287.451,97.16 288.701,96.37 289.781,95.86 C 290.76,95.39 291.72,94.9 292.631,94.35 C 294.071,93.46 295.341,92.38 296.621,91.29 C 299.721,88.65 302.971,86.19 305.9,83.35 C 308.97,80.36 312.06,77.33 314.921,74.14 C 315.841,73.1 316.751,72.04 317.631,70.96 C 318.591,69.78 319.531,68.58 320.421,67.35 C 320.981,66.6 321.521,65.84 322.051,65.08 C 323.072,63.61 323.951,62.11 324.641,60.5 C 325.061,59.56 325.412,58.58 325.681,57.56 C 325.751,57.31 325.862,57.04 325.891,56.78 C 325.912,56.66 325.921,56.53 325.921,56.4 C 326.131,54.28 325.65,51.77 324.701,49.21 C 324.02,47.37 323.091,45.51 321.991,43.76 C 321.98,43.75 321.98,43.74 321.97,43.73 C 321.91,43.64 321.861,43.55 321.8,43.46"
   id="path2791"
   style="fill:none;stroke:#000000" />
		<path
   d="M 215.941,65.77 C 216.002,65.69 216.061,65.6 216.112,65.5 C 217.542,63.25 219.712,57.25 219.721,57.25 C 221.121,44.36 213.131,10.33 201.492,9 C 197.042,8.49 193.552,0.6 186.492,0.5"
   id="path2793"
   style="fill:none;stroke:#000000" />
		<path
   d="M 37.102,245.11 C 37.222,245.2 37.282,245.259 37.282,245.259"
   id="path2795"
   style="fill:none;stroke:#000000" />
		<path
   d="M 340.492,310.81 C 340.492,310.81 340.691,310.781 341.032,310.741 C 342.702,310.541 347.752,309.941 349.681,309.951 C 352.471,309.951 360.822,311.051 360.822,311.051"
   id="path2797"
   style="fill:none;stroke:#000000" />
		<path
   d="M 360.822,311.05 C 360.822,311.05 353.181,307.91 350.502,307.27 C 349.012,306.901 344.912,306.531 343.702,306.43 C 343.481,306.41 343.362,306.401 343.362,306.401"
   id="path2799"
   style="fill:none;stroke:#000000" />
		<path
   d="M 345.162,299.64 C 345.162,299.64 346.641,295.691 347.561,294.62 C 349.271,292.599 356.231,288.49 356.671,288.23"
   id="path2801"
   style="fill:none;stroke:#000000" />
		<path
   d="M 356.691,288.22 C 356.691,288.22 356.681,288.22 356.671,288.231 C 356.171,288.361 348.121,290.491 345.461,291.42 C 343.991,291.93 340.321,293.5 338.831,294.14 C 338.431,294.31 338.19,294.42 338.19,294.42"
   id="path2803"
   style="fill:none;stroke:#000000" />
		<path
   d="M 336.511,316.14 C 336.511,316.14 336.541,316.151 336.601,316.17 C 337.291,316.4 341.702,317.88 343.072,318.72 C 344.601,319.67 348.282,323.34 348.582,323.651"
   id="path2805"
   style="fill:none;stroke:#000000" />
		<path
   d="M 348.582,323.65 C 348.222,323.5 342.392,321.019 340.302,320.53 C 338.652,320.15 333.552,319.83 333.552,319.83"
   id="path2807"
   style="fill:none;stroke:#000000" />
		<path
   d="M 348.582,323.65 C 348.592,323.66 348.602,323.66 348.602,323.66"
   id="path2809"
   style="fill:none;stroke:#000000" />
		<path
   d="M 33.461,126.17 C 33.461,126.17 30.191,128.96 28.831,130.6 C 27.241,132.51 23.381,138.72 23.141,139.1"
   id="path2811"
   style="fill:none;stroke:#000000" />
		<path
   d="M 23.131,139.12 C 23.131,139.12 23.131,139.11 23.141,139.1 C 23.261,138.67 25.191,131.76 26.231,129.56 C 26.931,128.07 29.381,124.67 29.381,124.67"
   id="path2813"
   style="fill:none;stroke:#000000" />
		<path
   d="M 24.461,119.17 C 24.461,119.17 20.181,119.5 18.801,119.5 C 16.481,119.5 10.951,122.67 9.491,123.54 C 9.261,123.67 9.131,123.75 9.131,123.75"
   id="path2815"
   style="fill:none;stroke:#000000" />
		<path
   d="M 9.381,123.67 C 9.381,123.67 9.421,123.62 9.491,123.54 C 10.231,122.67 14.501,117.7 16.661,116.46 C 18.011,115.68 21.081,113.71 22.021,113.09 C 22.031,113.1 22.031,113.09 22.041,113.08 C 22.211,112.98 22.301,112.92 22.301,112.92"
   id="path2817"
   style="fill:none;stroke:#000000" />
		<path
   d="M 41.491,127.04 C 41.491,127.04 41.471,127.09 41.441,127.17 C 41.171,127.93 39.801,131.78 39.671,133.22 C 39.501,134.94 40.321,140.1 40.321,140.1"
   id="path2819"
   style="fill:none;stroke:#000000" />
		<path
   d="M 40.321,140.1 C 40.321,140.1 41.861,134.19 42.731,132.36 C 43.331,131.11 45.581,127.96 46.061,127.3 C 46.121,127.22 46.151,127.18 46.151,127.18"
   id="path2821"
   style="fill:none;stroke:#000000" />
		<path
   d="M 324.591,60.51 C 324.591,60.51 324.612,60.51 324.641,60.5 C 325.112,60.42 328.961,59.77 330.961,59.77 C 333.521,59.76 341.161,60.8 341.161,60.8"
   id="path2823"
   style="fill:none;stroke:#000000" />
		<path
   d="M 341.162,60.8 C 341.162,60.8 334.252,57.72 331.822,57.09 C 330.231,56.68 326.042,56.41 326.042,56.41"
   id="path2825"
   style="fill:none;stroke:#000000" />
		<path
   d="M 324.931,49.12 C 324.931,49.12 327.911,46.03 328.801,44.96 C 330.271,43.18 336.201,40.95 337.822,40.36 C 338.082,40.27 338.231,40.22 338.231,40.22"
   id="path2827"
   style="fill:none;stroke:#000000" />
		<path
   d="M 338.011,40.36 C 338.011,40.36 337.941,40.36 337.822,40.36 C 336.622,40.38 330.141,40.5 327.811,41.38 C 326.301,41.95 322.651,43.1 321.721,43.39 C 321.581,43.44 321.501,43.46 321.501,43.46"
   id="path2829"
   style="fill:none;stroke:#000000" />
		<path
   d="M 320.151,67.26 C 320.151,67.26 320.252,67.29 320.422,67.35 C 321.412,67.72 324.932,69.02 326.072,69.79 C 327.452,70.72 330.681,74.36 330.941,74.67"
   id="path2831"
   style="fill:none;stroke:#000000" />
		<path
   d="M 330.941,74.67 C 330.622,74.52 325.372,72.08 323.462,71.6 C 322.212,71.28 318.732,71.03 317.632,70.96 C 317.422,70.95 317.292,70.94 317.292,70.94"
   id="path2833"
   style="fill:none;stroke:#000000" />
		<path
   d="M 330.941,74.67 C 330.952,74.68 330.962,74.68 330.962,74.68"
   id="path2835"
   style="fill:none;stroke:#000000" />
		<path
   d="M 119.271,119.29 C 123.921,110.55 129.451,103.61 135.821,99.83 C 142.041,96.13 172.301,93.66 186.181,93.99 C 186.331,93.99 186.481,94 186.631,94"
   id="path2837"
   style="fill:none;stroke:#ffffff;stroke-width:3" />
		<path
   d="M 118.872,120.06 C 118.962,119.88 119.052,119.71 119.142,119.54"
   id="path2839"
   style="fill:none;stroke:#ffffff;stroke-width:3" />
		<path
   d="M 102.031,210.22 C 101.991,209.941 101.951,209.66 101.921,209.39 C 101.681,207.38 101.511,205.201 101.411,202.87 C 100.481,180.13 106.521,143.81 118.851,120.1"
   id="path2841"
   style="fill:none;stroke:#ffffff;stroke-width:3" />
		<path
   d="M 103.471,216.42 C 102.811,214.26 102.331,212.21 102.051,210.32"
   id="path2843"
   style="fill:none;stroke:#ffffff;stroke-width:3" />
		<path
   d="M 110.381,232.81 C 107.561,227.441 105.271,222.14 103.751,217.371"
   id="path2845"
   style="fill:none;stroke:#ffffff;stroke-width:3" />
		<path
   d="M 185.641,278.08 C 179.612,277.99 173.641,277.61 168.011,276.97 C 158.471,275.87 149.931,273.97 143.861,271.321 C 137.761,268.651 130.961,262.381 124.641,254.571 C 122.871,252.381 121.131,250.071 119.471,247.691 C 116.231,243.081 113.241,238.18 110.661,233.34"
   id="path2847"
   style="fill:none;stroke:#ffffff;stroke-width:3" />
		<path
   d="M 163.202,130.3 C 161.521,127.91 158.061,122.82 156.612,119.5 C 156.322,118.83 156.112,118.24 156.012,117.75 C 154.792,111.85 159.732,98.4 168.632,95.35 C 170.842,94.59 181.382,93.94 186.182,94.01"
   id="path2849"
   style="fill:none;stroke:#ffffff;stroke-width:3" />
		<path
   d="M 185.992,131.24 C 180.292,131.2 164.132,131.62 164.132,131.62 C 164.132,131.62 163.782,131.14 163.222,130.34"
   id="path2851"
   style="fill:none;stroke:#ffffff;stroke-width:3" />
		<path
   d="M 162.881,176.58 C 162.881,176.58 179.161,175.05 185.031,175.13"
   id="path2853"
   style="fill:none;stroke:#ffffff;stroke-width:3" />
		<polyline
   points="167.961,220.75 148.461,200.17 162.751,176.78   "
   id="polyline2855"
   style="fill:none;stroke:#ffffff;stroke-width:3" />
		<path
   d="M 185.801,220.5 C 180.031,220.46 171.601,220.66 168.862,220.73"
   id="path2857"
   style="fill:none;stroke:#ffffff;stroke-width:3" />
		<path
   d="M 164.381,132.25 C 164.381,132.25 180.331,131.68 186.111,131.74"
   id="path2859"
   style="fill:none;stroke:#ffffff;stroke-width:3" />
		<path
   d="M 186.151,174.84 C 179.561,174.79 163.011,176.12 163.011,176.12 L 151.051,156.33"
   id="path2861"
   style="fill:none;stroke:#ffffff;stroke-width:3" />
		<path
   d="M 186.032,253.97 C 181.252,253.901 176.672,253.491 173.832,252.781 C 168.432,251.441 155.302,243.671 155.302,243.671 L 167.962,220.751 C 167.962,220.751 168.292,220.741 168.862,220.731 C 171.912,220.68 181.872,220.501 186.242,220.51 C 186.582,220.51 186.891,220.51 187.162,220.52"
   id="path2863"
   style="fill:none;stroke:#ffffff;stroke-width:3" />
		<path
   d="M 186.992,253.98 C 186.811,253.98 186.632,253.98 186.452,253.969"
   id="path2865"
   style="fill:none;stroke:#ffffff;stroke-width:3" />
		<path
   d="M 186.231,278 C 184.421,277.99 180.681,277.88 176.662,277.62 C 173.682,277.43 170.512,277.21 168.012,276.93 C 167.172,276.83 166.412,276.731 165.752,276.62 C 163.102,276.18 171.412,255.84 177.132,253.88 C 178.552,253.39 183.152,254.14 186.232,254.191"
   id="path2867"
   style="fill:none;stroke:#ffffff;stroke-width:3" />
		<path
   d="M 127.881,201 C 122.031,200.96 103.881,200.92 101.381,200.25 C 101.381,200.25 102.141,184.55 102.631,180 C 103.251,174.25 104.881,161.25 106.881,155.25 C 107.321,153.92 125.251,153.93 129.881,154"
   id="path2869"
   style="fill:none;stroke:#ffffff;stroke-width:3" />
		<path
   d="M 127.881,201 C 133.381,200.94 148.531,200.08 148.801,199.58 C 151.451,194.66 161.511,178.75 162.751,176.78 C 162.841,176.65 162.881,176.58 162.881,176.58 L 151.011,156.62 C 151.011,156.62 134.411,154.03 129.881,154"
   id="path2871"
   style="fill:none;stroke:#ffffff;stroke-width:3" />
		<path
   d="M 132.141,153.95 C 127.961,153.9 123.241,153.55 120.631,153.62 C 116.131,153.75 108.071,154.97 107.511,154 C 106.681,152.59 115.871,126.23 118.851,120.1 C 118.861,120.09 118.871,120.07 118.871,120.06 C 118.971,119.86 119.061,119.69 119.141,119.54 C 119.191,119.45 119.241,119.36 119.271,119.29 C 119.311,119.24 119.331,119.2 119.361,119.16 C 120.331,117.66 132.101,115.26 135.631,115.33"
   id="path2873"
   style="fill:none;stroke:#ffffff;stroke-width:3" />
		<path
   d="M 132.141,153.95 C 132.151,153.95 132.161,153.95 132.171,153.95 C 133.981,154.13 144.251,155.25 144.251,155.25 C 144.251,155.25 147.631,155.88 151.051,156.33 L 164.381,132.25 L 163.221,130.34 L 163.201,130.3 L 156.611,119.5 L 155.631,117.88 C 155.631,117.88 139.631,114.17 135.631,115.33"
   id="path2875"
   style="fill:none;stroke:#ffffff;stroke-width:3" />
		<path
   d="M 134.211,252.58 C 132.631,253.33 129.461,255.08 125.631,255 C 125.341,254.99 125.001,254.84 124.641,254.57 C 122.991,253.36 120.781,249.889 119.471,247.69 C 118.891,246.73 118.491,246.009 118.381,245.83 C 117.411,244.23 114.101,239.61 110.661,233.34 C 110.571,233.16 110.471,232.99 110.381,232.81 C 107.941,228.31 105.471,223.01 103.751,217.371 C 103.641,217.06 103.551,216.741 103.471,216.421 C 102.881,214.421 102.401,212.381 102.051,210.321 C 102.041,210.291 102.031,210.26 102.031,210.22 C 101.621,207.79 101.391,205.321 101.411,202.87 C 101.411,202.3 101.431,201.74 101.461,201.17 C 101.491,200.72 122.641,201.09 128.051,201.17"
   id="path2877"
   style="fill:none;stroke:#ffffff;stroke-width:3" />
		<path
   d="M 134.211,252.58 C 135.641,252.03 135.061,252.15 155.301,243.67 L 167.631,221.08 L 148.461,200.17 C 148.461,200.17 133.341,201.2 128.051,201.17"
   id="path2879"
   style="fill:none;stroke:#ffffff;stroke-width:3" />
		<path
   d="M 253.211,119.3 C 248.571,110.56 243.041,103.62 236.671,99.83 C 231.031,96.48 206.041,94.24 191.061,94.09 C 189.301,94.07 187.681,94.08 186.251,94.12"
   id="path2881"
   style="fill:none;stroke:#ffffff;stroke-width:3" />
		<path
   d="M 270.452,210.22 C 270.492,209.941 270.532,209.66 270.561,209.39 C 270.801,207.38 270.971,205.201 271.072,202.87 C 272.002,180.11 265.962,143.77 253.612,120.06"
   id="path2883"
   style="fill:none;stroke:#ffffff;stroke-width:3" />
		<path
   d="M 269.011,216.42 C 269.671,214.26 270.151,212.21 270.431,210.32"
   id="path2885"
   style="fill:none;stroke:#ffffff;stroke-width:3" />
		<path
   d="M 262.101,232.81 C 264.921,227.441 267.211,222.14 268.731,217.371"
   id="path2887"
   style="fill:none;stroke:#ffffff;stroke-width:3" />
		<path
   d="M 186.841,278.08 C 192.641,277.99 198.391,277.64 203.831,277.04 C 213.631,275.95 222.411,274.03 228.621,271.32 C 234.721,268.65 241.52,262.38 247.841,254.57 C 249.612,252.38 251.351,250.07 253.011,247.69 C 256.251,243.08 259.241,238.179 261.822,233.339"
   id="path2889"
   style="fill:none;stroke:#ffffff;stroke-width:3" />
		<path
   d="M 215.912,119.42 C 216.182,118.78 216.382,118.22 216.481,117.75 C 217.691,111.85 212.752,98.4 203.851,95.35 C 202.231,94.79 196.101,94.29 191.061,94.09 C 189.401,94.03 187.851,94 186.631,94.01 C 186.521,94.01 186.411,94.01 186.301,94.01"
   id="path2891"
   style="fill:none;stroke:#ffffff;stroke-width:3" />
		<path
   d="M 209.282,130.3 C 210.971,127.9 214.471,122.75 215.901,119.43"
   id="path2893"
   style="fill:none;stroke:#ffffff;stroke-width:3" />
		<path
   d="M 186.501,131.24 C 192.19,131.2 208.351,131.62 208.351,131.62 C 208.351,131.62 208.702,131.14 209.261,130.34"
   id="path2895"
   style="fill:none;stroke:#ffffff;stroke-width:3" />
		<path
   d="M 208.101,132.25 C 208.101,132.25 192.162,131.68 186.372,131.74 C 186.282,131.74 186.191,131.74 186.112,131.74"
   id="path2897"
   style="fill:none;stroke:#ffffff;stroke-width:3" />
		<path
   d="M 186.332,174.84 C 192.922,174.79 209.481,176.12 209.481,176.12 L 221.431,156.33"
   id="path2899"
   style="fill:none;stroke:#ffffff;stroke-width:3" />
		<path
   d="M 185.492,253.98 C 185.672,253.98 185.851,253.98 186.032,253.969 C 186.172,253.969 186.311,253.969 186.452,253.969 C 188.042,253.94 189.612,253.889 191.101,253.789 C 194.091,253.589 196.761,253.259 198.662,252.779 C 204.052,251.439 217.182,243.669 217.182,243.669 L 204.522,220.749 C 204.522,220.749 191.432,220.489 186.243,220.509 C 185.902,220.509 185.593,220.509 185.323,220.519"
   id="path2901"
   style="fill:none;stroke:#ffffff;stroke-width:3" />
		<path
   d="M 186.231,278 C 186.242,278 186.242,278 186.252,278 C 188.062,277.99 191.802,277.88 195.822,277.62 C 198.551,277.45 201.441,277.25 203.832,277 C 204.922,276.88 205.912,276.76 206.731,276.62 C 209.381,276.18 201.072,255.84 195.351,253.88 C 194.601,253.62 192.941,253.71 191.101,253.85 C 189.471,253.991 187.691,254.161 186.251,254.191 C 186.241,254.191 186.241,254.191 186.23,254.191"
   id="path2903"
   style="fill:none;stroke:#ffffff;stroke-width:3" />
		<path
   d="M 244.601,201 C 244.551,201 244.492,201 244.431,201 C 238.801,200.92 223.952,200.08 223.681,199.58 C 220.851,194.33 209.601,176.58 209.601,176.58 L 221.481,156.62 C 221.481,156.62 237.051,154.19 242.141,154.01 C 242.301,154 242.461,154 242.601,154"
   id="path2905"
   style="fill:none;stroke:#ffffff;stroke-width:3" />
		<path
   d="M 240.341,153.95 C 240.931,153.94 241.531,153.93 242.141,153.91 C 245.811,153.81 249.612,153.56 251.851,153.62 C 256.351,153.75 264.412,154.97 264.981,154 C 265.801,152.59 256.572,126.1 253.612,120.06 C 253.462,119.75 253.322,119.5 253.212,119.3 C 253.182,119.25 253.151,119.2 253.122,119.16 C 252.151,117.66 240.382,115.26 236.851,115.33"
   id="path2907"
   style="fill:none;stroke:#ffffff;stroke-width:3" />
		<path
   d="M 240.341,153.95 C 240.331,153.95 240.321,153.95 240.311,153.95 C 238.501,154.13 228.231,155.25 228.231,155.25 C 228.231,155.25 224.851,155.88 221.431,156.33 L 208.101,132.25 L 209.261,130.34 L 209.282,130.3 L 215.901,119.43 L 215.912,119.42 L 216.851,117.88 C 216.851,117.88 232.851,114.17 236.851,115.33"
   id="path2909"
   style="fill:none;stroke:#ffffff;stroke-width:3" />
		<path
   d="M 238.271,252.58 C 239.851,253.33 243.021,255.08 246.851,255 C 247.141,254.99 247.481,254.84 247.841,254.57 C 249.491,253.36 251.701,249.889 253.011,247.69 C 253.591,246.73 253.991,246.009 254.101,245.83 C 255.072,244.23 258.381,239.61 261.822,233.34 C 261.912,233.16 262.011,232.99 262.101,232.81 C 264.541,228.31 267.011,223.01 268.731,217.371 C 268.841,217.06 268.931,216.741 269.011,216.421 C 269.601,214.421 270.081,212.381 270.431,210.321 C 270.441,210.291 270.452,210.26 270.452,210.22 C 270.862,207.79 271.092,205.321 271.072,202.87 C 271.072,202.3 271.051,201.74 271.021,201.17 C 270.992,200.72 249.841,201.09 244.431,201.17"
   id="path2911"
   style="fill:none;stroke:#ffffff;stroke-width:3" />
		<path
   d="M 238.271,252.58 C 236.841,252.03 237.421,252.15 217.181,243.67 L 204.851,221.08 L 224.021,200.17 C 224.021,200.17 239.141,201.2 244.431,201.17"
   id="path2913"
   style="fill:none;stroke:#ffffff;stroke-width:3" />
	</g>
</g>
</svg>