<?xml version="1.0" encoding="UTF-8" standalone="no"?>
<!-- Generator: Adobe Illustrator 13.0.0, SVG Export Plug-In . SVG Version: 6.00 Build 14948)  -->
<svg
   xmlns:dc="http://purl.org/dc/elements/1.1/"
   xmlns:cc="http://creativecommons.org/ns#"
   xmlns:rdf="http://www.w3.org/1999/02/22-rdf-syntax-ns#"
   xmlns:svg="http://www.w3.org/2000/svg"
   xmlns="http://www.w3.org/2000/svg"
   xmlns:sodipodi="http://sodipodi.sourceforge.net/DTD/sodipodi-0.dtd"
   xmlns:inkscape="http://www.inkscape.org/namespaces/inkscape"
   version="1.1"
   id="Слой_1"
   x="0px"
   y="0px"
   width="361.071px"
   height="329.157px"
   viewBox="0 0 361.071 329.157"
   enable-background="new 0 0 361.071 329.157"
   xml:space="preserve"
   sodipodi:version="0.32"
   inkscape:version="0.46"
   sodipodi:docname="Trtl3.svg"
   inkscape:output_extension="org.inkscape.output.svg.inkscape"><metadata
   id="metadata3212"><rdf:RDF><cc:Work
       rdf:about=""><dc:format>image/svg+xml</dc:format><dc:type
         rdf:resource="http://purl.org/dc/dcmitype/StillImage" /></cc:Work></rdf:RDF></metadata><defs
   id="defs3210"><inkscape:perspective
     sodipodi:type="inkscape:persp3d"
     inkscape:vp_x="0 : 164.57851 : 1"
     inkscape:vp_y="0 : 1000 : 0"
     inkscape:vp_z="361.07101 : 164.57851 : 1"
     inkscape:persp3d-origin="180.53551 : 109.719 : 1"
     id="perspective3214" /></defs><sodipodi:namedview
   inkscape:window-height="731"
   inkscape:window-width="640"
   inkscape:pageshadow="2"
   inkscape:pageopacity="0.0"
   guidetolerance="10.0"
   gridtolerance="10.0"
   objecttolerance="10.0"
   borderopacity="1.0"
   bordercolor="#666666"
   pagecolor="#ffffff"
   id="base"
   showgrid="false"
   inkscape:zoom="1.4983202"
   inkscape:cx="180.53551"
   inkscape:cy="164.57851"
   inkscape:window-x="0"
   inkscape:window-y="0"
   inkscape:current-layer="Слой_1" />
<g
   id="XMLID_1_">
	<g
   id="g2987">
		<path
   d="M10.57,307.27c-2.68,0.641-10.32,3.78-10.32,3.78s8.35-1.1,11.14-1.1c1.93-0.01,6.98,0.59,8.65,0.79    c-0.98-1.32-1.93-2.78-2.67-4.311C16.16,306.53,12.06,306.9,10.57,307.27z"
   id="path2989" />
		<path
   d="M18,318.72c-1.53,0.95-5.21,4.62-5.51,4.931c0.36-0.15,6.19-2.631,8.28-3.12c1.65-0.38,6.75-0.7,6.75-0.7    c-1.16-1.32-2.18-2.561-3.05-3.66C23.78,316.4,19.37,317.88,18,318.72z"
   id="path2991" />
		<path
   d="M13.51,294.62c0.92,1.07,2.4,5.02,2.4,5.02h0.04c0.09-0.83,0.29-1.67,0.64-2.5c0.52-1.27,2.72-2.21,5.65-3    c-1.49-0.64-5.16-2.21-6.63-2.72c-2.66-0.93-10.71-3.06-11.21-3.189C4.84,288.49,11.8,292.6,13.51,294.62z"
   id="path2993" />
		<path
   d="M17.37,306.43c0.74,1.53,1.69,2.99,2.67,4.311c1.63,2.2,3.34,4.04,4.35,5.319c0.03,0.04,0.06,0.07,0.08,0.11    c0.87,1.1,1.89,2.34,3.05,3.66c2.43,2.75,5.46,5.79,8.88,8.3l0.12-0.16c5.3,3.61,26.65-8.08,30.91-10    c7.36-3.319,29.33-19.51,30.93-21.76c5.23-7.37,6.08-9.13,0.33-16.38c-3.17-4-8.35-10.85-11-14.25    c-3.64-2.91-12.5-20.25-15.25-23.5c-4.36-5.15-13.41,18.56-18.1,26.229c-3.08,5.03-7.23,12.511-11.3,19.671    c-1.77,3.1-13.54,4.189-20.8,6.159c-2.93,0.79-5.13,1.73-5.65,3c-0.35,0.83-0.55,1.67-0.64,2.5    C15.69,301.98,16.33,304.28,17.37,306.43z"
   id="path2995" />
		<path
   d="M35,69.79c-1.38,0.93-4.61,4.57-4.87,4.88c0.32-0.15,5.57-2.59,7.48-3.07c1.25-0.32,4.73-0.57,5.83-0.64    c-0.96-1.18-1.9-2.38-2.79-3.61C39.66,67.72,36.14,69.02,35,69.79z"
   id="path2997" />
		<path
   d="M35.03,56.41c0,0-4.19,0.27-5.78,0.68c-2.43,0.63-9.34,3.71-9.34,3.71s7.64-1.04,10.2-1.03c2,0,5.85,0.65,6.32,0.73    c-0.42-0.94-0.77-1.92-1.04-2.94c-0.07-0.25-0.18-0.52-0.21-0.78c-0.02-0.12-0.03-0.25-0.03-0.38L35.03,56.41z"
   id="path2999" />
		<path
   d="M43.44,70.96c0.88,1.08,1.79,2.14,2.71,3.18c2.86,3.19,5.95,6.22,9.02,9.21c2.93,2.84,6.18,5.3,9.28,7.94    c1.28,1.09,2.55,2.17,3.99,3.06c0.91,0.55,1.87,1.04,2.85,1.51c1.08,0.51,2.33,1.3,3.5,1.58c1.76,0.39,10.23,5.44,11.9,4.81    c2.75-1.02,9-13.75,12.08-16.75c4.92-7.04,15.26-11.96,16.17-12.67c2.25-1.75-11.49-15.73-17.88-20.87    c-10.08-8.09-46.3-10.41-56.08-9.72c-0.48,0.04-0.92,0.21-1.63,1.15c-0.08,0.1-0.16,0.22-0.25,0.34    c-0.01,0.01-0.01,0.02-0.02,0.03c-1.1,1.75-2.03,3.61-2.71,5.45c-0.95,2.56-1.43,5.07-1.22,7.19c0,0.13,0.01,0.26,0.03,0.38    c0.03,0.26,0.14,0.53,0.21,0.78c0.27,1.02,0.62,2,1.04,2.94c0.69,1.61,1.57,3.11,2.59,4.58c0.53,0.76,1.07,1.52,1.63,2.27    C41.54,68.58,42.48,69.78,43.44,70.96z"
   id="path3001" />
		<path
   d="M39.35,43.39c-0.93-0.29-4.58-1.44-6.09-2.01c-2.33-0.88-8.81-1-10.01-1.02c1.62,0.59,7.55,2.82,9.02,4.6    c0.89,1.07,3.87,4.16,3.87,4.16l0.23,0.09c0.68-1.84,1.61-3.7,2.71-5.45c0.01-0.01,0.01-0.02,0.02-0.03    C39.19,43.61,39.27,43.49,39.35,43.39z"
   id="path3003" />
		<path
   d="M90.05,201.17c-0.03,0.57-0.05,1.13-0.05,1.7c0.1,2.33,0.27,4.51,0.51,6.52c0.03,0.271,0.07,0.551,0.11,0.83    c0,0.04,0.01,0.07,0.02,0.101c0.35,2.06,0.83,4.1,1.42,6.1c0.08,0.32,0.17,0.64,0.28,0.95c1.52,4.77,3.81,10.07,6.63,15.439    c0.09,0.181,0.19,0.351,0.28,0.53c3.44,6.271,6.75,10.891,7.72,12.49c0.11,0.18,0.51,0.9,1.09,1.86c1.66,2.38,3.4,4.689,5.17,6.88    c0.36,0.27,0.7,0.42,0.99,0.43c3.83,0.08,7-1.67,8.58-2.42c1.43-0.55,0.85-0.43,21.09-8.91l12.33-22.59l-19.17-20.91    c0,0-15.12,1.03-20.41,1C111.23,201.09,90.08,200.72,90.05,201.17z"
   id="path3005" />
		<path
   d="M107.46,120.06C95.11,143.77,89.07,180.11,90,202.87c0-0.57,0.02-1.13,0.05-1.7c0.03-0.45,21.18-0.08,26.59,0V201    c5.63-0.08,20.48-0.92,20.75-1.42c2.83-5.25,14.08-23,14.08-23l-11.88-19.96c0,0-15.57-2.43-20.66-2.61v-0.1    c-3.67-0.1-7.47-0.35-9.71-0.29c-4.5,0.13-12.56,1.35-13.13,0.38C95.27,152.59,104.5,126.1,107.46,120.06z"
   id="path3007" />
		<path
   d="M96.09,154c0.57,0.97,8.63-0.25,13.13-0.38c2.24-0.06,6.04,0.19,9.71,0.29c0.61,0.02,1.21,0.03,1.8,0.04    c0.01,0,0.02,0,0.03,0c1.81,0.18,12.08,1.3,12.08,1.3s3.38,0.63,6.8,1.08l13.33-24.08l-1.16-1.91l-0.02-0.04    c-1.69-2.4-5.19-7.55-6.62-10.87l-0.01-0.01l-0.94-1.54c0,0-16-3.71-20-2.55c-3.53-0.07-15.3,2.33-16.27,3.83    c-0.03,0.04-0.06,0.09-0.09,0.14c-0.11,0.2-0.25,0.45-0.4,0.76C104.5,126.1,95.27,152.59,96.09,154z"
   id="path3009" />
		<path
   d="M107.86,119.3c0.03-0.05,0.06-0.1,0.09-0.14c0.97-1.5,12.74-3.9,16.27-3.83c4-1.16,20,2.55,20,2.55l0.94,1.54    c-0.27-0.64-0.47-1.2-0.57-1.67c-1.21-5.9,3.73-19.35,12.63-22.4c1.62-0.56,7.75-1.06,12.79-1.26    c-14.98,0.15-39.97,2.39-45.61,5.74C118.03,103.62,112.5,110.56,107.86,119.3z"
   id="path3011" />
		<path
   d="M159.58,9c-11.64,1.33-19.63,35.36-18.229,48.25c0.01,0,2.18,6,3.61,8.25c8.56-0.93,22.6-1.78,31.56-2    c8.689,0.22,21.14,1.13,29.31,1.98c1.42-2.26,3.57-8.23,3.591-8.23C210.82,44.36,202.83,10.33,191.19,9    c-4.45-0.51-9.55-8.4-16.61-8.5C167.52,0.6,164.03,8.49,159.58,9z"
   id="path3013" />
		<path
   d="M174.83,220.51c-5.189-0.02-18.28,0.24-18.28,0.24l-12.66,22.92c0,0,13.13,7.771,18.52,9.11    c1.9,0.479,4.57,0.81,7.561,1.01c1.489,0.1,3.06,0.15,4.649,0.18c0.141,0,0.28,0,0.42,0c4.78-0.069,9.36-0.479,12.2-1.189    c5.4-1.34,18.53-9.11,18.53-9.11l-12.66-22.92c0,0-0.33-0.01-0.9-0.02C189.16,220.68,179.2,220.5,174.83,220.51z"
   id="path3015" />
		<path
   d="M165.72,253.88c-5.721,1.96-14.03,22.3-11.38,22.74c0.82,0.14,1.81,0.26,2.9,0.38c2.391,0.25,5.28,0.45,8.01,0.62    c4.021,0.26,7.761,0.37,9.57,0.38c0.01,0,0.01,0,0.021,0c1.81-0.01,5.55-0.12,9.569-0.38c2.98-0.19,6.15-0.41,8.65-0.69    c0.84-0.1,1.6-0.199,2.26-0.31c2.65-0.44-5.66-20.78-11.38-22.74c-1.42-0.49-6.02,0.26-9.1,0.311c-0.011,0-0.011,0-0.021,0    c-1.439-0.03-3.22-0.2-4.85-0.341C168.13,253.71,166.47,253.62,165.72,253.88z"
   id="path3017" />
		<path
   d="M132.45,271.32c6.21,2.71,14.99,4.63,24.79,5.72V277c-1.09-0.12-2.08-0.24-2.9-0.38c-2.65-0.44,5.66-20.78,11.38-22.74    c0.75-0.26,2.41-0.17,4.25-0.03v-0.06c-2.99-0.2-5.66-0.53-7.561-1.01c-5.39-1.34-18.52-9.11-18.52-9.11    c-20.24,8.48-19.66,8.36-21.09,8.91c-1.58,0.75-4.75,2.5-8.58,2.42c-0.29-0.01-0.63-0.16-0.99-0.43    C119.55,262.38,126.35,268.65,132.45,271.32z"
   id="path3019" />
		<path
   d="M174.92,174.84c6.59-0.05,23.14,1.28,23.14,1.28l11.96-19.79l-13.33-24.08c0,0-15.95-0.57-21.73-0.51    c-0.079,0-0.17,0-0.26,0c-5.79-0.06-21.73,0.51-21.73,0.51l-13.33,24.08l11.95,19.79c0,0,16.56-1.33,23.15-1.28H174.92z"
   id="path3021" />
		<path
   d="M157.24,277.04c-9.8-1.09-18.58-3.01-24.79-5.72c-6.1-2.67-12.9-8.94-19.22-16.75c-1.65-1.21-3.86-4.681-5.17-6.88    c-3.24-4.61-6.23-9.511-8.81-14.351c-0.09-0.18-0.19-0.35-0.28-0.53c-2.44-4.5-4.91-9.8-6.63-15.439    c-0.11-0.311-0.2-0.63-0.28-0.95c-0.66-2.16-1.14-4.21-1.42-6.1c-0.01-0.03-0.02-0.061-0.02-0.101    c-0.41-2.43-0.64-4.899-0.62-7.35c-0.93-22.76,5.11-59.1,17.46-82.81c0.15-0.31,0.29-0.56,0.4-0.76    c4.64-8.74,10.17-15.68,16.54-19.47c5.64-3.35,30.63-5.59,45.61-5.74c1.66-0.06,3.21-0.09,4.43-0.08V94c0.15,0,0.3-0.01,0.45-0.01    c13.88-0.33,44.14,2.14,50.359,5.84c6.37,3.78,11.9,10.72,16.551,19.46c0.029,0.07,0.08,0.16,0.13,0.25    c0.08,0.15,0.17,0.32,0.27,0.52c0,0.01,0.01,0.03,0.021,0.04c12.33,23.71,18.37,60.03,17.439,82.77    c0.021,2.45-0.21,4.92-0.62,7.35c0,0.04-0.01,0.07-0.02,0.101c-0.28,1.89-0.76,3.939-1.42,6.1c-0.08,0.32-0.17,0.64-0.28,0.95    c-1.72,5.64-4.189,10.939-6.63,15.439c-0.09,0.181-0.19,0.351-0.28,0.53c-2.58,4.84-5.569,9.74-8.81,14.351    c-1.311,2.199-3.521,5.67-5.17,6.88c-6.32,7.81-13.12,14.08-19.221,16.75c-6.069,2.649-14.609,4.55-24.149,5.649v-0.04    c-2.5,0.28-5.67,0.5-8.65,0.69c-4.02,0.26-7.76,0.37-9.569,0.38c-0.011,0-0.011,0-0.021,0c-1.81-0.01-5.55-0.12-9.57-0.38    c-2.729-0.17-5.619-0.37-8.01-0.62V277.04z M113.28,77.5C81.04,96.67,65.72,179.52,70.19,216.76    c2.84,23.601,31.54,69.2,53.32,78.73c12.23,5.359,32.35,8.26,52.93,8.59c0.06,0,0.11,0,0.17,0c20.59-0.33,40.7-3.23,52.93-8.59    c21.78-9.53,50.49-55.13,53.32-78.73c4.47-37.24-10.84-120.09-43.09-139.26c-8-4.76-46.21-8.75-63.58-8.25    C159.19,69.5,121.11,72.85,113.28,77.5z"
   id="path3023" />
		<path
   d="M174.89,94.01c4.8-0.07,15.34,0.58,17.55,1.34c8.9,3.05,13.84,16.5,12.62,22.4c-0.101,0.49-0.311,1.08-0.601,1.75    l0.98-1.62c0,0,16-3.71,20-2.55c3.53-0.07,15.3,2.33,16.27,3.83c0.03,0.04,0.051,0.08,0.091,0.13    c-4.65-8.74-10.181-15.68-16.551-19.46c-6.22-3.7-36.479-6.17-50.359-5.84V94.01z"
   id="path3025" />
		<path
   d="M212.61,200.17l-19.17,20.91l12.33,22.59c20.24,8.48,19.66,8.36,21.09,8.91c1.58,0.75,4.75,2.5,8.58,2.42    c0.29-0.01,0.63-0.16,0.99-0.43c1.77-2.19,3.51-4.5,5.17-6.88c0.58-0.96,0.979-1.681,1.09-1.86c0.97-1.6,4.28-6.22,7.72-12.49    c0.09-0.18,0.19-0.35,0.28-0.53c2.82-5.369,5.11-10.67,6.63-15.439c0.11-0.311,0.2-0.63,0.28-0.95c0.59-2,1.07-4.04,1.42-6.1    c0.01-0.03,0.02-0.061,0.02-0.101c0.04-0.279,0.08-0.56,0.11-0.83c0.24-2.01,0.41-4.189,0.51-6.52c0-0.57-0.02-1.13-0.05-1.7    c-0.03-0.45-21.18-0.08-26.59,0C227.73,201.2,212.61,200.17,212.61,200.17z"
   id="path3027" />
		<path
   d="M151.81,130.34l1.16,1.91c0,0,15.94-0.57,21.73-0.51c0.09,0,0.181,0,0.26,0c5.78-0.06,21.73,0.51,21.73,0.51l1.16-1.91    l0.02-0.04l6.59-10.8c0.29-0.67,0.5-1.26,0.601-1.75c1.22-5.9-3.72-19.35-12.62-22.4c-2.21-0.76-12.75-1.41-17.55-1.34v-0.02    c-0.15,0-0.3,0.01-0.45,0.01v0.01c-1.22-0.01-2.77,0.02-4.43,0.08c-5.04,0.2-11.17,0.7-12.79,1.26    c-8.9,3.05-13.84,16.5-12.63,22.4c0.1,0.47,0.3,1.03,0.57,1.67l0.01,0.01l6.62,10.87L151.81,130.34z"
   id="path3029" />
		<path
   d="M197.85,130.34l-1.16,1.91l13.33,24.08c3.42-0.45,6.8-1.08,6.8-1.08s10.271-1.12,12.08-1.3c0.01,0,0.021,0,0.03,0    c4.18-0.05,8.899-0.4,11.51-0.33c4.5,0.13,12.56,1.35,13.12,0.38c0.83-1.41-8.36-27.77-11.34-33.9    c-0.011-0.01-0.021-0.03-0.021-0.04c-0.09-0.18-0.18-0.35-0.27-0.52c-0.05-0.09-0.101-0.18-0.13-0.25    c-0.04-0.05-0.061-0.09-0.091-0.13c-0.97-1.5-12.739-3.9-16.27-3.83c-4-1.16-20,2.55-20,2.55l-0.98,1.62    c-1.449,3.32-4.909,8.41-6.59,10.8L197.85,130.34z"
   id="path3031" />
		<path
   d="M210.06,156.62l-11.87,19.96c0,0,0.04,0.07,0.13,0.2c1.24,1.97,11.3,17.88,13.95,22.8c0.27,0.5,15.42,1.36,20.92,1.42    c5.85-0.04,24-0.08,26.5-0.75c0,0-0.76-15.7-1.25-20.25c-0.62-5.75-2.25-18.75-4.25-24.75c-0.44-1.33-18.37-1.32-23-1.25    C226.66,154.03,210.06,156.62,210.06,156.62z"
   id="path3033" />
		<path
   d="M174.62,253.97c-1.59-0.029-3.16-0.08-4.649-0.18v0.06c1.63,0.141,3.41,0.311,4.85,0.341c0.01,0,0.01,0,0.021,0    c3.08-0.051,7.68-0.801,9.1-0.311c5.72,1.96,14.03,22.3,11.38,22.74c-0.66,0.11-1.42,0.21-2.26,0.31v0.04    c9.54-1.1,18.08-3,24.149-5.649c6.101-2.67,12.9-8.94,19.221-16.75c-0.36,0.27-0.7,0.42-0.99,0.43c-3.83,0.08-7-1.67-8.58-2.42    c-1.43-0.55-0.85-0.43-21.09-8.91c0,0-13.13,7.771-18.53,9.11c-2.84,0.71-7.42,1.12-12.2,1.189    C174.9,253.97,174.76,253.97,174.62,253.97z"
   id="path3035" />
		<path
   d="M315.01,127.3c1.54,0,3.08-0.05,4.62-0.13c0.96-0.05,1.92-0.11,2.88-0.19c1.75-0.14,3.43-0.41,5.08-0.87    c1.029-0.28,2.04-0.64,3.04-1.09c0.239-0.11,0.51-0.2,0.729-0.34c0.08-0.05,0.16-0.1,0.23-0.16c1.77-1.16,3.42-3.11,4.81-5.47    c1.01-1.72,1.88-3.66,2.55-5.66c0-0.02,0.01-0.03,0.01-0.05c0.03-0.09,0.051-0.18,0.07-0.26c0.32-1.23,0.18-1.7-0.109-2.11    c-5.69-7.99-30.48-34.5-43.131-37.15c-8.02-1.68-43.06,0.55-44.649,5.84c-0.9,3.02,5.91,8.48,8.67,12.64    c0.92,1.55,1.92,3.01,2.89,4.51c3.21,4.92,3.84,7.4,5.01,10.08c1.33,3.06,2.681,6.17,3.641,8.95c0.58,1.69,2.03,2.95,3.46,4.05    c0.95,0.73,2.35,1.2,3.439,1.71c0.971,0.46,1.96,0.89,2.98,1.24c1.59,0.56,3.24,0.85,4.89,1.14c4.021,0.72,7.971,1.67,12.03,2.13    c4.26,0.47,8.55,0.93,12.83,1.11C312.32,127.28,313.66,127.3,315.01,127.3z"
   id="path3037" />
		<path
   d="M259.69,200.25c-2.5,0.67-20.65,0.71-26.5,0.75c-5.5-0.06-20.65-0.92-20.92-1.42c-2.65-4.92-12.71-20.83-13.95-22.8    c-0.09-0.13-0.13-0.2-0.13-0.2l11.87-19.96c0,0,16.6-2.59,21.13-2.62c4.63-0.07,22.56-0.08,23,1.25c2,6,3.63,19,4.25,24.75    C258.93,184.55,259.69,200.25,259.69,200.25z M137.05,200.17l19.17,20.91l-12.33,22.59l12.66-22.92c0,0,13.09-0.26,18.28-0.24    c4.37-0.01,14.33,0.17,17.38,0.221c0.57,0.01,0.9,0.02,0.9,0.02l19.5-20.58c0,0,15.12,1.03,20.41,1c5.41-0.08,26.56-0.45,26.59,0    c0.03,0.57,0.05,1.13,0.05,1.7c0.931-22.74-5.109-59.06-17.439-82.77c2.979,6.13,12.17,32.49,11.34,33.9    c-0.561,0.97-8.62-0.25-13.12-0.38c-2.61-0.07-7.33,0.28-11.51,0.33c-0.01,0-0.021,0-0.03,0c-1.81,0.18-12.08,1.3-12.08,1.3    s-3.38,0.63-6.8,1.08l-11.96,19.79c0,0-16.55-1.33-23.14-1.28h-0.181c-6.59-0.05-23.15,1.28-23.15,1.28l-11.95-19.79    c-3.42-0.45-6.8-1.08-6.8-1.08s-10.27-1.12-12.08-1.3c-0.01,0-0.02,0-0.03,0c-0.59-0.01-1.19-0.02-1.8-0.04v0.1    c5.09,0.18,20.66,2.61,20.66,2.61l11.88,19.96c0,0-11.25,17.75-14.08,23c-0.27,0.5-15.12,1.34-20.75,1.42v0.17    C121.93,201.2,137.05,200.17,137.05,200.17z"
   id="path3039" />
		<path
   d="M320.19,239.25c0,0-1.83-3.79-2.01-5.17c-0.34-2.67,1.26-10.69,1.26-10.69s-3.74,7.311-4.79,9.841    c-0.59,1.409-1.86,5.22-2.31,6.55c2.42-1.42,4.479-2.25,5.699-1.69c0.761,0.351,1.44,0.78,2.051,1.28L320.19,239.25z"
   id="path3041" />
		<path
   d="M318.34,132.36c0.869,1.83,2.409,7.74,2.409,7.74s0.82-5.16,0.65-6.88c-0.13-1.44-1.5-5.29-1.77-6.05    c-1.54,0.08-3.08,0.13-4.62,0.13C315.49,127.96,317.74,131.11,318.34,132.36z"
   id="path3043" />
		<path
   d="M312.34,239.78c-5.92,3.489-14.011,10.56-17.271,9.54c-7.53-2.351-8.64-2.94-14.13-4.24c-4.25-1-12.75,15.88-16.5,20.25    c-4.54,7.32-6.27,8.46-9.75,13.75c-1.44,2.189-5.39,4.66-4.5,7.25c0.89,2.6,6.62,5.31,15.75,6.37c2.6,0.3,27.92-2.9,34.85-5.48    c4.011-1.5,25.53-7.52,26.341-13.64c0.42-4.19,0.199-8.51-0.2-12.18c-0.19-1.71-0.42-3.271-0.641-4.62    c-0.26-1.601-0.47-4.101-0.989-6.79c0,0,0.01,0,0-0.01c-0.311-1.61-0.73-3.29-1.341-4.881c-0.85-2.22-2.069-4.27-3.869-5.729    c-0.61-0.5-1.29-0.93-2.051-1.28C316.82,237.53,314.76,238.36,312.34,239.78z"
   id="path3045" />
		<path
   d="M326.29,256.78c0.221,1.35,0.45,2.91,0.641,4.62l0.09-0.011c0,0,3.41-3.22,4.71-4.06c1.71-1.09,7.37-3.37,7.37-3.37    s-5.22-0.15-6.91,0.23C330.62,254.55,326.29,256.78,326.29,256.78z"
   id="path3047" />
		<path
   d="M332.24,130.6c1.59,1.91,5.45,8.12,5.69,8.5c-0.12-0.43-2.05-7.34-3.09-9.54c-0.7-1.49-3.15-4.89-3.15-4.89l-0.1-0.15    c-0.07,0.06-0.15,0.11-0.23,0.16c-0.22,0.14-0.49,0.23-0.729,0.34c-1,0.45-2.011,0.81-3.04,1.09l0.02,0.06    C327.61,126.17,330.88,128.96,332.24,130.6z"
   id="path3049" />
		<path
   d="M336.4,119.05l0.21,0.12c0,0,4.28,0.33,5.66,0.33c2.32,0,7.85,3.17,9.31,4.04c-0.739-0.87-5.01-5.84-7.17-7.08    c-1.35-0.78-4.42-2.75-5.359-3.37c-0.03,0.08-0.061,0.17-0.091,0.25c0,0.02-0.01,0.03-0.01,0.05    C338.28,115.39,337.41,117.33,336.4,119.05z"
   id="path3051" />
		<path
   d="M337.92,236.8c-0.41,0.17-7.021,2.96-9.07,4.26c-1.21,0.761-4.141,3.37-4.891,4.04c0.61,1.591,1.03,3.271,1.341,4.881    c0.84-1.19,3.67-5.15,4.909-6.471C331.91,241.7,337.57,237.09,337.92,236.8z"
   id="path3053" />
		<path
   d="M339.03,113.08c-0.02,0.08-0.04,0.17-0.07,0.26c0.03-0.08,0.061-0.17,0.091-0.25    C339.04,113.1,339.04,113.09,339.03,113.08z"
   id="path3055" />
	</g>
	<g
   id="g3057">
		<path
   fill="none"
   stroke="#000000"
   d="M205.63,65.77c0.06-0.09,0.13-0.18,0.199-0.29c1.42-2.26,3.57-8.23,3.591-8.23    C210.82,44.36,202.83,10.33,191.19,9c-4.45-0.51-9.55-8.4-16.61-8.5"
   id="path3059" />
		<path
   fill="none"
   stroke="#000000"
   d="M206.06,65.5c-0.08-0.01-0.15-0.02-0.23-0.02c-8.17-0.85-20.62-1.76-29.31-1.98"
   id="path3061" />
		<path
   fill="none"
   stroke="#000000"
   d="M176.61,304.08c20.59-0.33,40.7-3.23,52.93-8.59c21.78-9.53,50.49-55.13,53.32-78.73    c4.47-37.24-10.84-120.09-43.09-139.26c-8-4.76-46.21-8.75-63.58-8.25"
   id="path3063" />
		<path
   fill="none"
   stroke="#000000"
   d="M259.81,92.3c-2.76-4.16-9.57-9.62-8.67-12.64c1.59-5.29,36.63-7.52,44.649-5.84    c12.65,2.65,37.44,29.16,43.131,37.15c0.289,0.41,0.43,0.88,0.109,2.11c-0.02,0.08-0.04,0.17-0.07,0.26"
   id="path3065" />
		<path
   fill="none"
   stroke="#000000"
   d="M144.94,65.5c0.01,0,0.01,0,0.02,0c8.56-0.93,22.6-1.78,31.56-2"
   id="path3067" />
		<path
   fill="none"
   stroke="#000000"
   d="M176.61,304.08c-0.06,0-0.11,0-0.17,0c-20.58-0.33-40.7-3.23-52.93-8.59    c-21.78-9.53-50.48-55.13-53.32-78.73C65.72,179.52,81.04,96.67,113.28,77.5c7.83-4.65,45.91-8,62.91-8.25"
   id="path3069" />
		<path
   fill="none"
   stroke="#000000"
   d="M259.81,92.3c0.92,1.55,1.92,3.01,2.89,4.51c3.21,4.92,3.84,7.4,5.01,10.08    c1.33,3.06,2.681,6.17,3.641,8.95c0.58,1.69,2.03,2.95,3.46,4.05c0.95,0.73,2.35,1.2,3.439,1.71c0.971,0.46,1.96,0.89,2.98,1.24    c1.59,0.56,3.24,0.85,4.89,1.14c4.021,0.72,7.971,1.67,12.03,2.13c4.26,0.47,8.55,0.93,12.83,1.11c1.34,0.06,2.68,0.08,4.03,0.08    c1.54,0,3.08-0.05,4.62-0.13c0.96-0.05,1.92-0.11,2.88-0.19c1.75-0.14,3.43-0.41,5.08-0.87c1.029-0.28,2.04-0.64,3.04-1.09    c0.239-0.11,0.51-0.2,0.729-0.34c0.08-0.05,0.16-0.1,0.23-0.16c1.77-1.16,3.42-3.11,4.81-5.47c1.01-1.72,1.88-3.66,2.55-5.66    c0-0.02,0.01-0.03,0.01-0.05c0.03-0.08,0.061-0.17,0.091-0.25c0-0.01,0.01-0.03,0.01-0.04"
   id="path3071" />
		<path
   fill="none"
   stroke="#000000"
   d="M87.69,265.58c-3.64-2.91-12.5-20.25-15.25-23.5c-4.36-5.15-13.41,18.56-18.1,26.229    c-3.08,5.03-7.23,12.511-11.3,19.671c-1.77,3.1-13.54,4.189-20.8,6.159c-2.93,0.79-5.13,1.73-5.65,3    c-0.35,0.83-0.55,1.67-0.64,2.5c-0.26,2.341,0.38,4.641,1.42,6.79c0.74,1.53,1.69,2.99,2.67,4.311c1.63,2.2,3.34,4.04,4.35,5.319    c0.03,0.04,0.06,0.07,0.08,0.11c0.87,1.1,1.89,2.34,3.05,3.66c2.43,2.75,5.46,5.79,8.88,8.3c0.04,0.03,0.08,0.061,0.12,0.09"
   id="path3073" />
		<path
   fill="none"
   stroke="#000000"
   d="M87.69,265.58c2.65,3.4,7.83,10.25,11,14.25c5.75,7.25,4.9,9.01-0.33,16.38    c-1.6,2.25-23.57,18.44-30.93,21.76c-4.26,1.92-25.61,13.61-30.91,10"
   id="path3075" />
		<path
   fill="none"
   stroke="#000000"
   d="M325.3,249.99c0.52,2.689,0.729,5.189,0.989,6.79c0.221,1.35,0.45,2.91,0.641,4.62    c0.399,3.67,0.62,7.989,0.2,12.18"
   id="path3077" />
		<path
   fill="none"
   stroke="#000000"
   d="M264.44,265.33c3.75-4.37,12.25-21.25,16.5-20.25c5.49,1.3,6.6,1.89,14.13,4.24    c3.26,1.02,11.351-6.051,17.271-9.54c2.42-1.42,4.479-2.25,5.699-1.69c0.761,0.351,1.44,0.78,2.051,1.28    c1.8,1.46,3.02,3.51,3.869,5.729c0.61,1.591,1.03,3.271,1.341,4.881"
   id="path3079" />
		<path
   fill="none"
   stroke="#000000"
   d="M264.44,265.33c-4.54,7.32-6.27,8.46-9.75,13.75c-1.44,2.189-5.39,4.66-4.5,7.25    c0.89,2.6,6.62,5.31,15.75,6.37c2.6,0.3,27.92-2.9,34.85-5.48c4.011-1.5,25.53-7.52,26.341-13.64"
   id="path3081" />
		<path
   fill="none"
   stroke="#000000"
   d="M98.77,85.5c4.92-7.04,15.26-11.96,16.17-12.67c2.25-1.75-11.49-15.73-17.88-20.87    c-10.08-8.09-46.3-10.41-56.08-9.72c-0.48,0.04-0.92,0.21-1.63,1.15c-0.08,0.1-0.16,0.22-0.25,0.34"
   id="path3083" />
		<path
   fill="none"
   stroke="#000000"
   d="M98.77,85.5c-3.08,3-9.33,15.73-12.08,16.75c-1.67,0.63-10.14-4.42-11.9-4.81    c-1.17-0.28-2.42-1.07-3.5-1.58c-0.98-0.47-1.94-0.96-2.85-1.51c-1.44-0.89-2.71-1.97-3.99-3.06c-3.1-2.64-6.35-5.1-9.28-7.94    c-3.07-2.99-6.16-6.02-9.02-9.21c-0.92-1.04-1.83-2.1-2.71-3.18c-0.96-1.18-1.9-2.38-2.79-3.61c-0.56-0.75-1.1-1.51-1.63-2.27    c-1.02-1.47-1.9-2.97-2.59-4.58c-0.42-0.94-0.77-1.92-1.04-2.94c-0.07-0.25-0.18-0.52-0.21-0.78c-0.02-0.12-0.03-0.25-0.03-0.38    c-0.21-2.12,0.27-4.63,1.22-7.19c0.68-1.84,1.61-3.7,2.71-5.45c0.01-0.01,0.01-0.02,0.02-0.03c0.06-0.09,0.11-0.18,0.17-0.27"
   id="path3085" />
		<path
   fill="none"
   stroke="#000000"
   d="M145.13,65.77c-0.06-0.08-0.12-0.17-0.17-0.27c-1.43-2.25-3.6-8.25-3.61-8.25    c-1.4-12.89,6.59-46.92,18.229-48.25c4.45-0.51,7.94-8.4,15-8.5"
   id="path3087" />
		<path
   fill="none"
   stroke="#000000"
   d="M323.959,245.1c-0.119,0.101-0.18,0.16-0.18,0.16"
   id="path3089" />
		<path
   fill="none"
   stroke="#000000"
   d="M20.58,310.81c0,0-0.2-0.029-0.54-0.069c-1.67-0.2-6.72-0.8-8.65-0.79    c-2.79,0-11.14,1.1-11.14,1.1"
   id="path3091" />
		<path
   fill="none"
   stroke="#000000"
   d="M0.25,311.05c0,0,7.64-3.14,10.32-3.78c1.49-0.369,5.59-0.739,6.8-0.84    c0.22-0.02,0.34-0.029,0.34-0.029"
   id="path3093" />
		<path
   fill="none"
   stroke="#000000"
   d="M15.91,299.64c0,0-1.48-3.949-2.4-5.02c-1.71-2.021-8.67-6.13-9.11-6.39"
   id="path3095" />
		<path
   fill="none"
   stroke="#000000"
   d="M4.38,288.22c0,0,0.01,0,0.02,0.011c0.5,0.13,8.55,2.26,11.21,3.189    c1.47,0.51,5.14,2.08,6.63,2.72c0.4,0.17,0.64,0.28,0.64,0.28"
   id="path3097" />
		<path
   fill="none"
   stroke="#000000"
   d="M24.56,316.14c0,0-0.03,0.011-0.09,0.03c-0.69,0.23-5.1,1.71-6.47,2.55    c-1.53,0.95-5.21,4.62-5.51,4.931"
   id="path3099" />
		<path
   fill="none"
   stroke="#000000"
   d="M12.49,323.65c0.36-0.15,6.19-2.631,8.28-3.12c1.65-0.38,6.75-0.7,6.75-0.7"
   id="path3101" />
		<path
   fill="none"
   stroke="#000000"
   d="M12.49,323.65c-0.01,0.01-0.02,0.01-0.02,0.01"
   id="path3103" />
		<path
   fill="none"
   stroke="#000000"
   d="M327.61,126.17c0,0,3.271,2.79,4.63,4.43c1.59,1.91,5.45,8.12,5.69,8.5"
   id="path3105" />
		<path
   fill="none"
   stroke="#000000"
   d="M337.94,139.12c0,0,0-0.01-0.01-0.02c-0.12-0.43-2.05-7.34-3.09-9.54    c-0.7-1.49-3.15-4.89-3.15-4.89"
   id="path3107" />
		<path
   fill="none"
   stroke="#000000"
   d="M336.61,119.17c0,0,4.28,0.33,5.66,0.33c2.32,0,7.85,3.17,9.31,4.04    c0.23,0.13,0.36,0.21,0.36,0.21"
   id="path3109" />
		<path
   fill="none"
   stroke="#000000"
   d="M351.69,123.67c0,0-0.04-0.05-0.11-0.13c-0.739-0.87-5.01-5.84-7.17-7.08    c-1.35-0.78-4.42-2.75-5.359-3.37c-0.011,0.01-0.011,0-0.021-0.01c-0.17-0.1-0.26-0.16-0.26-0.16"
   id="path3111" />
		<path
   fill="none"
   stroke="#000000"
   d="M319.58,127.04c0,0,0.021,0.05,0.051,0.13c0.27,0.76,1.64,4.61,1.77,6.05    c0.17,1.72-0.65,6.88-0.65,6.88"
   id="path3113" />
		<path
   fill="none"
   stroke="#000000"
   d="M320.75,140.1c0,0-1.54-5.91-2.409-7.74c-0.601-1.25-2.851-4.4-3.33-5.06    c-0.061-0.08-0.09-0.12-0.09-0.12"
   id="path3115" />
		<path
   fill="none"
   stroke="#000000"
   d="M36.48,60.51c0,0-0.02,0-0.05-0.01c-0.47-0.08-4.32-0.73-6.32-0.73    c-2.56-0.01-10.2,1.03-10.2,1.03"
   id="path3117" />
		<path
   fill="none"
   stroke="#000000"
   d="M19.91,60.8c0,0,6.91-3.08,9.34-3.71c1.59-0.41,5.78-0.68,5.78-0.68"
   id="path3119" />
		<path
   fill="none"
   stroke="#000000"
   d="M36.14,49.12c0,0-2.98-3.09-3.87-4.16c-1.47-1.78-7.4-4.01-9.02-4.6    c-0.26-0.09-0.41-0.14-0.41-0.14"
   id="path3121" />
		<path
   fill="none"
   stroke="#000000"
   d="M23.06,40.36c0,0,0.07,0,0.19,0c1.2,0.02,7.68,0.14,10.01,1.02    c1.51,0.57,5.16,1.72,6.09,2.01c0.14,0.05,0.22,0.07,0.22,0.07"
   id="path3123" />
		<path
   fill="none"
   stroke="#000000"
   d="M40.92,67.26c0,0-0.1,0.03-0.27,0.09c-0.99,0.37-4.51,1.67-5.65,2.44    c-1.38,0.93-4.61,4.57-4.87,4.88"
   id="path3125" />
		<path
   fill="none"
   stroke="#000000"
   d="M30.13,74.67c0.32-0.15,5.57-2.59,7.48-3.07c1.25-0.32,4.73-0.57,5.83-0.64    c0.21-0.01,0.34-0.02,0.34-0.02"
   id="path3127" />
		<path
   fill="none"
   stroke="#000000"
   d="M30.13,74.67c-0.01,0.01-0.02,0.01-0.02,0.01"
   id="path3129" />
		<path
   fill="none"
   stroke="#FFFFFF"
   stroke-width="3"
   d="M241.8,119.29c-4.65-8.74-10.181-15.68-16.551-19.46    c-6.22-3.7-36.479-6.17-50.359-5.84c-0.15,0-0.3,0.01-0.45,0.01"
   id="path3131" />
		<path
   fill="none"
   stroke="#FFFFFF"
   stroke-width="3"
   d="M242.2,120.06c-0.09-0.18-0.18-0.35-0.27-0.52"
   id="path3133" />
		<path
   fill="none"
   stroke="#FFFFFF"
   stroke-width="3"
   d="M259.04,210.22c0.04-0.279,0.08-0.56,0.11-0.83    c0.24-2.01,0.41-4.189,0.51-6.52c0.931-22.74-5.109-59.06-17.439-82.77"
   id="path3135" />
		<path
   fill="none"
   stroke="#FFFFFF"
   stroke-width="3"
   d="M257.6,216.42c0.66-2.16,1.14-4.21,1.42-6.1"
   id="path3137" />
		<path
   fill="none"
   stroke="#FFFFFF"
   stroke-width="3"
   d="M250.69,232.81c2.82-5.369,5.11-10.67,6.63-15.439"
   id="path3139" />
		<path
   fill="none"
   stroke="#FFFFFF"
   stroke-width="3"
   d="M175.43,278.08c6.029-0.09,12-0.47,17.63-1.11    c9.54-1.1,18.08-3,24.149-5.649c6.101-2.67,12.9-8.94,19.221-16.75c1.77-2.19,3.51-4.5,5.17-6.88    c3.24-4.61,6.229-9.511,8.81-14.351"
   id="path3141" />
		<path
   fill="none"
   stroke="#FFFFFF"
   stroke-width="3"
   d="M197.87,130.3c1.681-2.39,5.141-7.48,6.59-10.8    c0.29-0.67,0.5-1.26,0.601-1.75c1.22-5.9-3.72-19.35-12.62-22.4c-2.21-0.76-12.75-1.41-17.55-1.34"
   id="path3143" />
		<path
   fill="none"
   stroke="#FFFFFF"
   stroke-width="3"
   d="M175.08,131.24c5.7-0.04,21.86,0.38,21.86,0.38s0.35-0.48,0.91-1.28"
   id="path3145" />
		<path
   fill="none"
   stroke="#FFFFFF"
   stroke-width="3"
   d="M198.19,176.58c0,0-16.28-1.53-22.15-1.45"
   id="path3147" />
		<polyline
   fill="none"
   stroke="#FFFFFF"
   stroke-width="3"
   points="193.11,220.75 212.61,200.17 198.32,176.78   "
   id="polyline3149" />
		<path
   fill="none"
   stroke="#FFFFFF"
   stroke-width="3"
   d="M175.27,220.5c5.77-0.04,14.2,0.16,16.939,0.23"
   id="path3151" />
		<path
   fill="none"
   stroke="#FFFFFF"
   stroke-width="3"
   d="M196.69,132.25c0,0-15.95-0.57-21.73-0.51"
   id="path3153" />
		<path
   fill="none"
   stroke="#FFFFFF"
   stroke-width="3"
   d="M174.92,174.84c6.59-0.05,23.14,1.28,23.14,1.28l11.96-19.79"
   id="path3155" />
		<path
   fill="none"
   stroke="#FFFFFF"
   stroke-width="3"
   d="M175.04,253.97c4.78-0.069,9.36-0.479,12.2-1.189    c5.4-1.34,18.53-9.11,18.53-9.11l-12.66-22.92c0,0-0.33-0.01-0.9-0.02c-3.05-0.051-13.01-0.23-17.38-0.221    c-0.34,0-0.649,0-0.92,0.01"
   id="path3157" />
		<path
   fill="none"
   stroke="#FFFFFF"
   stroke-width="3"
   d="M174.08,253.98c0.181,0,0.36,0,0.54-0.011"
   id="path3159" />
		<path
   fill="none"
   stroke="#FFFFFF"
   stroke-width="3"
   d="M174.84,278c1.81-0.01,5.55-0.12,9.569-0.38    c2.98-0.19,6.15-0.41,8.65-0.69c0.84-0.1,1.6-0.199,2.26-0.31c2.65-0.44-5.66-20.78-11.38-22.74c-1.42-0.49-6.02,0.26-9.1,0.311"
   id="path3161" />
		<path
   fill="none"
   stroke="#FFFFFF"
   stroke-width="3"
   d="M233.19,201c5.85-0.04,24-0.08,26.5-0.75c0,0-0.76-15.7-1.25-20.25    c-0.62-5.75-2.25-18.75-4.25-24.75c-0.44-1.33-18.37-1.32-23-1.25"
   id="path3163" />
		<path
   fill="none"
   stroke="#FFFFFF"
   stroke-width="3"
   d="M233.19,201c-5.5-0.06-20.65-0.92-20.92-1.42    c-2.65-4.92-12.71-20.83-13.95-22.8c-0.09-0.13-0.13-0.2-0.13-0.2l11.87-19.96c0,0,16.6-2.59,21.13-2.62"
   id="path3165" />
		<path
   fill="none"
   stroke="#FFFFFF"
   stroke-width="3"
   d="M228.93,153.95c4.18-0.05,8.899-0.4,11.51-0.33    c4.5,0.13,12.56,1.35,13.12,0.38c0.83-1.41-8.36-27.77-11.34-33.9c-0.011-0.01-0.021-0.03-0.021-0.04    c-0.1-0.2-0.189-0.37-0.27-0.52c-0.05-0.09-0.101-0.18-0.13-0.25c-0.04-0.05-0.061-0.09-0.091-0.13    c-0.97-1.5-12.739-3.9-16.27-3.83"
   id="path3167" />
		<path
   fill="none"
   stroke="#FFFFFF"
   stroke-width="3"
   d="M228.93,153.95c-0.01,0-0.021,0-0.03,0c-1.81,0.18-12.08,1.3-12.08,1.3    s-3.38,0.63-6.8,1.08l-13.33-24.08l1.16-1.91l0.02-0.04l6.59-10.8l0.98-1.62c0,0,16-3.71,20-2.55"
   id="path3169" />
		<path
   fill="none"
   stroke="#FFFFFF"
   stroke-width="3"
   d="M226.86,252.58c1.58,0.75,4.75,2.5,8.58,2.42    c0.29-0.01,0.63-0.16,0.99-0.43c1.649-1.21,3.859-4.681,5.17-6.88c0.58-0.96,0.979-1.681,1.09-1.86c0.97-1.6,4.28-6.22,7.72-12.49    c0.09-0.18,0.19-0.35,0.28-0.53c2.44-4.5,4.91-9.8,6.63-15.439c0.11-0.311,0.2-0.63,0.28-0.95c0.59-2,1.07-4.04,1.42-6.1    c0.01-0.03,0.02-0.061,0.02-0.101c0.41-2.43,0.641-4.899,0.62-7.35c0-0.57-0.02-1.13-0.05-1.7c-0.03-0.45-21.18-0.08-26.59,0"
   id="path3171" />
		<path
   fill="none"
   stroke="#FFFFFF"
   stroke-width="3"
   d="M226.86,252.58c-1.43-0.55-0.85-0.43-21.09-8.91l-12.33-22.59l19.17-20.91    c0,0,15.12,1.03,20.41,1"
   id="path3173" />
		<path
   fill="none"
   stroke="#FFFFFF"
   stroke-width="3"
   d="M107.86,119.3c4.64-8.74,10.17-15.68,16.54-19.47    c5.64-3.35,30.63-5.59,45.61-5.74c1.76-0.02,3.38-0.01,4.81,0.03"
   id="path3175" />
		<path
   fill="none"
   stroke="#FFFFFF"
   stroke-width="3"
   d="M90.62,210.22c-0.04-0.279-0.08-0.56-0.11-0.83    c-0.24-2.01-0.41-4.189-0.51-6.52c-0.93-22.76,5.11-59.1,17.46-82.81"
   id="path3177" />
		<path
   fill="none"
   stroke="#FFFFFF"
   stroke-width="3"
   d="M92.06,216.42c-0.66-2.16-1.14-4.21-1.42-6.1"
   id="path3179" />
		<path
   fill="none"
   stroke="#FFFFFF"
   stroke-width="3"
   d="M98.97,232.81c-2.82-5.369-5.11-10.67-6.63-15.439"
   id="path3181" />
		<path
   fill="none"
   stroke="#FFFFFF"
   stroke-width="3"
   d="M174.23,278.08c-5.8-0.09-11.55-0.44-16.99-1.04    c-9.8-1.09-18.58-3.01-24.79-5.72c-6.1-2.67-12.9-8.94-19.22-16.75c-1.77-2.19-3.51-4.5-5.17-6.88    c-3.24-4.61-6.23-9.511-8.81-14.351"
   id="path3183" />
		<path
   fill="none"
   stroke="#FFFFFF"
   stroke-width="3"
   d="M145.16,119.42c-0.27-0.64-0.47-1.2-0.57-1.67    c-1.21-5.9,3.73-19.35,12.63-22.4c1.62-0.56,7.75-1.06,12.79-1.26c1.66-0.06,3.21-0.09,4.43-0.08c0.11,0,0.22,0,0.33,0"
   id="path3185" />
		<path
   fill="none"
   stroke="#FFFFFF"
   stroke-width="3"
   d="M151.79,130.3c-1.69-2.4-5.19-7.55-6.62-10.87"
   id="path3187" />
		<path
   fill="none"
   stroke="#FFFFFF"
   stroke-width="3"
   d="M174.57,131.24c-5.689-0.04-21.85,0.38-21.85,0.38s-0.35-0.48-0.91-1.28"
   id="path3189" />
		<path
   fill="none"
   stroke="#FFFFFF"
   stroke-width="3"
   d="M152.97,132.25c0,0,15.94-0.57,21.73-0.51c0.09,0,0.181,0,0.26,0"
   id="path3191" />
		<path
   fill="none"
   stroke="#FFFFFF"
   stroke-width="3"
   d="M174.74,174.84c-6.59-0.05-23.15,1.28-23.15,1.28l-11.95-19.79"
   id="path3193" />
		<path
   fill="none"
   stroke="#FFFFFF"
   stroke-width="3"
   d="M175.58,253.98c-0.18,0-0.359,0-0.54-0.011c-0.14,0-0.279,0-0.42,0    c-1.59-0.029-3.16-0.08-4.649-0.18c-2.99-0.2-5.66-0.53-7.561-1.01c-5.39-1.34-18.52-9.11-18.52-9.11l12.66-22.92    c0,0,13.09-0.26,18.28-0.24c0.341,0,0.65,0,0.92,0.01"
   id="path3195" />
		<path
   fill="none"
   stroke="#FFFFFF"
   stroke-width="3"
   d="M174.84,278c-0.011,0-0.011,0-0.021,0c-1.81-0.01-5.55-0.12-9.57-0.38    c-2.729-0.17-5.619-0.37-8.01-0.62c-1.09-0.12-2.08-0.24-2.9-0.38c-2.65-0.44,5.66-20.78,11.38-22.74    c0.75-0.26,2.41-0.17,4.25-0.03c1.63,0.141,3.41,0.311,4.85,0.341c0.01,0,0.01,0,0.021,0"
   id="path3197" />
		<path
   fill="none"
   stroke="#FFFFFF"
   stroke-width="3"
   d="M116.47,201c0.05,0,0.11,0,0.17,0c5.63-0.08,20.48-0.92,20.75-1.42    c2.83-5.25,14.08-23,14.08-23l-11.88-19.96c0,0-15.57-2.43-20.66-2.61c-0.16-0.01-0.32-0.01-0.46-0.01"
   id="path3199" />
		<path
   fill="none"
   stroke="#FFFFFF"
   stroke-width="3"
   d="M120.73,153.95c-0.59-0.01-1.19-0.02-1.8-0.04    c-3.67-0.1-7.47-0.35-9.71-0.29c-4.5,0.13-12.56,1.35-13.13,0.38c-0.82-1.41,8.41-27.9,11.37-33.94c0.15-0.31,0.29-0.56,0.4-0.76    c0.03-0.05,0.06-0.1,0.09-0.14c0.97-1.5,12.74-3.9,16.27-3.83"
   id="path3201" />
		<path
   fill="none"
   stroke="#FFFFFF"
   stroke-width="3"
   d="M120.73,153.95c0.01,0,0.02,0,0.03,0c1.81,0.18,12.08,1.3,12.08,1.3    s3.38,0.63,6.8,1.08l13.33-24.08l-1.16-1.91l-0.02-0.04l-6.62-10.87l-0.01-0.01l-0.94-1.54c0,0-16-3.71-20-2.55"
   id="path3203" />
		<path
   fill="none"
   stroke="#FFFFFF"
   stroke-width="3"
   d="M122.8,252.58c-1.58,0.75-4.75,2.5-8.58,2.42    c-0.29-0.01-0.63-0.16-0.99-0.43c-1.65-1.21-3.86-4.681-5.17-6.88c-0.58-0.96-0.98-1.681-1.09-1.86    c-0.97-1.6-4.28-6.22-7.72-12.49c-0.09-0.18-0.19-0.35-0.28-0.53c-2.44-4.5-4.91-9.8-6.63-15.439c-0.11-0.311-0.2-0.63-0.28-0.95    c-0.59-2-1.07-4.04-1.42-6.1c-0.01-0.03-0.02-0.061-0.02-0.101c-0.41-2.43-0.64-4.899-0.62-7.35c0-0.57,0.02-1.13,0.05-1.7    c0.03-0.45,21.18-0.08,26.59,0"
   id="path3205" />
		<path
   fill="none"
   stroke="#FFFFFF"
   stroke-width="3"
   d="M122.8,252.58c1.43-0.55,0.85-0.43,21.09-8.91l12.33-22.59l-19.17-20.91    c0,0-15.12,1.03-20.41,1"
   id="path3207" />
	</g>
</g>
</svg>