<?xml version="1.0" encoding="UTF-8" standalone="no"?>
<!-- Generator: Adobe Illustrator 13.0.0, SVG Export Plug-In . SVG Version: 6.00 Build 14948)  -->
<svg
   xmlns:dc="http://purl.org/dc/elements/1.1/"
   xmlns:cc="http://creativecommons.org/ns#"
   xmlns:rdf="http://www.w3.org/1999/02/22-rdf-syntax-ns#"
   xmlns:svg="http://www.w3.org/2000/svg"
   xmlns="http://www.w3.org/2000/svg"
   xmlns:sodipodi="http://sodipodi.sourceforge.net/DTD/sodipodi-0.dtd"
   xmlns:inkscape="http://www.inkscape.org/namespaces/inkscape"
   version="1.1"
   id="Слой_1"
   x="0px"
   y="0px"
   width="361.074px"
   height="329.157px"
   viewBox="0 0 361.074 329.157"
   enable-background="new 0 0 361.074 329.157"
   xml:space="preserve"
   sodipodi:version="0.32"
   inkscape:version="0.46"
   sodipodi:docname="Trtl2.svg"
   inkscape:output_extension="org.inkscape.output.svg.inkscape"><metadata
   id="metadata2918"><rdf:RDF><cc:Work
       rdf:about=""><dc:format>image/svg+xml</dc:format><dc:type
         rdf:resource="http://purl.org/dc/dcmitype/StillImage" /></cc:Work></rdf:RDF></metadata><defs
   id="defs2916"><inkscape:perspective
     sodipodi:type="inkscape:persp3d"
     inkscape:vp_x="0 : 164.57851 : 1"
     inkscape:vp_y="0 : 1000 : 0"
     inkscape:vp_z="361.07401 : 164.57851 : 1"
     inkscape:persp3d-origin="180.537 : 109.719 : 1"
     id="perspective2920" /></defs><sodipodi:namedview
   inkscape:window-height="731"
   inkscape:window-width="640"
   inkscape:pageshadow="2"
   inkscape:pageopacity="0.0"
   guidetolerance="10.0"
   gridtolerance="10.0"
   objecttolerance="10.0"
   borderopacity="1.0"
   bordercolor="#666666"
   pagecolor="#ffffff"
   id="base"
   showgrid="false"
   inkscape:zoom="1.4983078"
   inkscape:cx="180.537"
   inkscape:cy="164.57851"
   inkscape:window-x="632"
   inkscape:window-y="0"
   inkscape:current-layer="Слой_1" />
<g
   id="XMLID_1_">
	<g
   id="g2695">
		<path
   d="M34.781,256.78c-0.22,1.35-0.45,2.91-0.64,4.62l-0.09-0.011c0,0-3.41-3.22-4.71-4.06c-1.71-1.09-7.37-3.37-7.37-3.37    s5.22-0.15,6.91,0.23C30.451,254.55,34.781,256.78,34.781,256.78z"
   id="path2697" />
		<path
   d="M176.662,277.62c4.02,0.26,7.76,0.37,9.569,0.38c0.011,0,0.011,0,0.021,0c1.81-0.01,5.55-0.12,9.57-0.38    c2.729-0.17,5.619-0.37,8.01-0.62v0.04c9.8-1.09,18.58-3.01,24.79-5.72c6.1-2.67,12.899-8.94,19.22-16.75    c1.65-1.21,3.86-4.681,5.17-6.88c3.24-4.61,6.23-9.511,8.811-14.351c0.09-0.18,0.189-0.35,0.279-0.53    c2.44-4.5,4.91-9.8,6.63-15.439c0.11-0.311,0.2-0.63,0.28-0.95c0.66-2.16,1.14-4.21,1.42-6.1c0.01-0.03,0.021-0.061,0.021-0.101    c0.41-2.43,0.64-4.899,0.62-7.35c0.93-22.76-5.11-59.1-17.46-82.81c-0.15-0.31-0.29-0.56-0.4-0.76    c-4.64-8.74-10.17-15.68-16.54-19.47c-5.64-3.35-30.63-5.59-45.61-5.74c-1.66-0.06-3.21-0.09-4.43-0.08V94    c-0.15,0-0.3-0.01-0.45-0.01c-13.88-0.33-44.14,2.14-50.36,5.84c-6.37,3.78-11.9,10.72-16.55,19.46    c-0.03,0.07-0.08,0.16-0.13,0.25c-0.08,0.15-0.17,0.32-0.27,0.52c0,0.01-0.01,0.03-0.02,0.04    c-12.33,23.71-18.37,60.03-17.44,82.77c-0.02,2.45,0.21,4.92,0.62,7.35c0,0.04,0.01,0.07,0.02,0.101    c0.28,1.89,0.76,3.939,1.42,6.1c0.08,0.32,0.17,0.64,0.28,0.95c1.72,5.64,4.19,10.939,6.63,15.439    c0.09,0.181,0.19,0.351,0.28,0.53c2.58,4.84,5.57,9.74,8.81,14.351c1.31,2.199,3.52,5.67,5.17,6.88    c6.32,7.81,13.12,14.08,19.22,16.75c6.07,2.649,14.61,4.55,24.15,5.649v-0.04C170.511,277.21,173.681,277.43,176.662,277.62z     M247.792,77.5c32.24,19.17,47.56,102.02,43.09,139.26c-2.84,23.601-31.54,69.2-53.32,78.73c-12.229,5.359-32.35,8.26-52.93,8.59    c-0.06,0-0.11,0-0.17,0c-20.59-0.33-40.7-3.23-52.93-8.59c-21.78-9.53-50.49-55.13-53.32-78.73    c-4.47-37.24,10.84-120.09,43.09-139.26c8-4.76,46.21-8.75,63.58-8.25C201.881,69.5,239.961,72.85,247.792,77.5z"
   id="path2699" />
		<path
   d="M48.731,239.78c5.92,3.489,14.01,10.56,17.27,9.54c7.53-2.351,8.64-2.94,14.13-4.24c4.25-1,12.75,15.88,16.5,20.25    c4.54,7.32,6.27,8.46,9.75,13.75c1.44,2.189,5.39,4.66,4.5,7.25c-0.89,2.6-6.62,5.31-15.75,6.37c-2.6,0.3-27.92-2.9-34.85-5.48    c-4.01-1.5-25.53-7.52-26.34-13.64c-0.42-4.19-0.2-8.51,0.2-12.18c0.19-1.71,0.42-3.271,0.64-4.62    c0.26-1.601,0.47-4.101,0.99-6.79c0.31-1.61,0.73-3.29,1.33-4.88c0.86-2.221,2.08-4.28,3.88-5.74c0.61-0.5,1.29-0.93,2.05-1.28    C44.251,237.53,46.312,238.36,48.731,239.78z"
   id="path2701" />
		<path
   d="M228.622,271.32c-6.21,2.71-14.99,4.63-24.79,5.72V277c1.09-0.12,2.08-0.24,2.899-0.38c2.65-0.44-5.659-20.78-11.38-22.74    c-0.75-0.26-2.41-0.17-4.25-0.03v-0.06c2.99-0.2,5.66-0.53,7.561-1.01c5.39-1.34,18.52-9.11,18.52-9.11    c20.24,8.48,19.66,8.36,21.09,8.91c1.58,0.75,4.75,2.5,8.58,2.42c0.29-0.01,0.63-0.16,0.99-0.43    C241.521,262.38,234.721,268.65,228.622,271.32z"
   id="path2703" />
		<path
   d="M173.832,252.78c2.84,0.71,7.42,1.12,12.2,1.189c0.14,0,0.279,0,0.42,0c1.59-0.029,3.16-0.08,4.649-0.18v0.06    c-1.63,0.141-3.41,0.311-4.85,0.341c-0.01,0-0.01,0-0.021,0c-3.08-0.051-7.68-0.801-9.1-0.311c-5.72,1.96-14.03,22.3-11.38,22.74    c0.66,0.11,1.42,0.21,2.26,0.31v0.04c-9.54-1.1-18.08-3-24.15-5.649c-6.1-2.67-12.9-8.94-19.22-16.75    c0.36,0.27,0.7,0.42,0.99,0.43c3.83,0.08,7-1.67,8.58-2.42c1.43-0.55,0.85-0.43,21.09-8.91    C155.301,243.67,168.431,251.44,173.832,252.78z"
   id="path2705" />
		<path
   d="M333.551,319.83c-2.43,2.75-5.46,5.79-8.88,8.3l-0.12-0.16c-5.3,3.61-26.65-8.08-30.91-10    c-7.359-3.319-29.33-19.51-30.93-21.76c-5.23-7.37-6.08-9.13-0.33-16.38c3.17-4,8.35-10.85,11-14.25    c3.64-2.91,12.5-20.25,15.25-23.5c4.36-5.15,13.41,18.56,18.1,26.229c3.08,5.03,7.23,12.511,11.301,19.671    c1.77,3.1,13.54,4.189,20.8,6.159c2.93,0.79,5.13,1.73,5.649,3c0.351,0.83,0.551,1.67,0.641,2.5c0.26,2.341-0.38,4.641-1.42,6.79    c-0.74,1.53-1.69,2.99-2.67,4.311c-1.631,2.2-3.341,4.04-4.351,5.319c-0.03,0.04-0.06,0.07-0.08,0.11    C335.731,317.27,334.711,318.51,333.551,319.83z"
   id="path2707" />
		<path
   d="M350.501,307.27c2.68,0.641,10.32,3.78,10.32,3.78s-8.351-1.1-11.141-1.1c-1.93-0.01-6.979,0.59-8.649,0.79    c0.979-1.32,1.93-2.78,2.67-4.311C344.912,306.53,349.011,306.9,350.501,307.27z"
   id="path2709" />
		<path
   d="M356.671,288.23c-0.44,0.26-7.4,4.369-9.11,6.39c-0.92,1.07-2.399,5.02-2.399,5.02h-0.04c-0.09-0.83-0.29-1.67-0.641-2.5    c-0.52-1.27-2.72-2.21-5.649-3c1.49-0.64,5.16-2.21,6.63-2.72C348.122,290.49,356.171,288.36,356.671,288.23z"
   id="path2711" />
		<path
   d="M343.072,318.72c1.529,0.95,5.21,4.62,5.51,4.931c-0.36-0.15-6.19-2.631-8.28-3.12c-1.65-0.38-6.75-0.7-6.75-0.7    c1.16-1.32,2.18-2.561,3.05-3.66C337.292,316.4,341.702,317.88,343.072,318.72z"
   id="path2713" />
		<path
   d="M331.822,57.09c2.43,0.63,9.34,3.71,9.34,3.71s-7.641-1.04-10.2-1.03c-2,0-5.85,0.65-6.32,0.73    c0.42-0.94,0.771-1.92,1.04-2.94c0.07-0.25,0.181-0.52,0.21-0.78c0.021-0.12,0.03-0.25,0.03-0.38l0.12,0.01    C326.042,56.41,330.231,56.68,331.822,57.09z"
   id="path2715" />
		<path
   d="M321.971,43.73c-0.09-0.12-0.17-0.24-0.25-0.34c0.93-0.29,4.58-1.44,6.09-2.01c2.33-0.88,8.811-1,10.011-1.02    c-1.62,0.59-7.551,2.82-9.021,4.6c-0.89,1.07-3.87,4.16-3.87,4.16l-0.229,0.09c-0.681-1.84-1.61-3.7-2.71-5.45    C321.981,43.75,321.981,43.74,321.971,43.73z"
   id="path2717" />
		<path
   d="M326.072,69.79c1.38,0.93,4.609,4.57,4.869,4.88c-0.319-0.15-5.569-2.59-7.479-3.07c-1.25-0.32-4.73-0.57-5.83-0.64    c0.96-1.18,1.9-2.38,2.79-3.61C321.412,67.72,324.931,69.02,326.072,69.79z"
   id="path2719" />
		<path
   d="M317.631,70.96c-0.88,1.08-1.79,2.14-2.71,3.18c-2.86,3.19-5.95,6.22-9.021,9.21c-2.93,2.84-6.18,5.3-9.279,7.94    c-1.28,1.09-2.55,2.17-3.99,3.06c-0.91,0.55-1.87,1.04-2.85,1.51c-1.08,0.51-2.33,1.3-3.5,1.58c-1.761,0.39-10.23,5.44-11.9,4.81    c-2.75-1.02-9-13.75-12.08-16.75c-4.92-7.04-15.26-11.96-16.17-12.67c-2.25-1.75,11.49-15.73,17.88-20.87    c10.08-8.09,46.3-10.41,56.08-9.72c0.48,0.04,0.92,0.21,1.63,1.15c0.08,0.1,0.16,0.22,0.25,0.34c0.01,0.01,0.01,0.02,0.021,0.03    c1.1,1.75,2.029,3.61,2.71,5.45c0.949,2.56,1.43,5.07,1.22,7.19c0,0.13-0.01,0.26-0.03,0.38c-0.029,0.26-0.14,0.53-0.21,0.78    c-0.27,1.02-0.62,2-1.04,2.94c-0.689,1.61-1.569,3.11-2.59,4.58c-0.53,0.76-1.07,1.52-1.63,2.27    C319.532,68.58,318.591,69.78,317.631,70.96z"
   id="path2721" />
		<path
   d="M242.141,154.01v-0.1c3.67-0.1,7.471-0.35,9.71-0.29c4.5,0.13,12.561,1.35,13.13,0.38c0.82-1.41-8.409-27.9-11.369-33.94    c12.35,23.71,18.39,60.05,17.46,82.81c0-0.57-0.021-1.13-0.051-1.7c-0.029-0.45-21.18-0.08-26.59,0V201    c-5.63-0.08-20.479-0.92-20.75-1.42c-2.83-5.25-14.08-23-14.08-23l11.88-19.96C221.481,156.62,237.051,154.19,242.141,154.01z"
   id="path2723" />
		<path
   d="M271.021,201.17c0.03,0.57,0.051,1.13,0.051,1.7c-0.101,2.33-0.271,4.51-0.511,6.52c-0.029,0.271-0.069,0.551-0.109,0.83    c0,0.04-0.011,0.07-0.021,0.101c-0.35,2.06-0.83,4.1-1.42,6.1c-0.08,0.32-0.17,0.64-0.28,0.95c-1.52,4.77-3.81,10.07-6.63,15.439    c-0.09,0.181-0.189,0.351-0.279,0.53c-3.44,6.271-6.75,10.891-7.721,12.49c-0.109,0.18-0.51,0.9-1.09,1.86    c-1.66,2.38-3.399,4.689-5.17,6.88c-0.36,0.27-0.7,0.42-0.99,0.43c-3.83,0.08-7-1.67-8.58-2.42c-1.43-0.55-0.85-0.43-21.09-8.91    l-12.33-22.59l19.17-20.91c0,0,15.12,1.03,20.41,1C249.841,201.09,270.992,200.72,271.021,201.17z"
   id="path2725" />
		<path
   d="M253.612,120.06c2.96,6.04,12.189,32.53,11.369,33.94c-0.569,0.97-8.63-0.25-13.13-0.38c-2.239-0.06-6.04,0.19-9.71,0.29    c-0.609,0.02-1.21,0.03-1.8,0.04c-0.01,0-0.02,0-0.03,0c-1.81,0.18-12.08,1.3-12.08,1.3s-3.38,0.63-6.8,1.08l-13.33-24.08    l1.16-1.91l0.021-0.04c1.689-2.4,5.189-7.55,6.619-10.87l0.011-0.01l0.939-1.54c0,0,16-3.71,20-2.55    c3.53-0.07,15.3,2.33,16.271,3.83c0.029,0.04,0.06,0.09,0.09,0.14C253.322,119.5,253.461,119.75,253.612,120.06z"
   id="path2727" />
		<path
   d="M253.211,119.3c-0.03-0.05-0.061-0.1-0.09-0.14c-0.971-1.5-12.74-3.9-16.271-3.83c-4-1.16-20,2.55-20,2.55l-0.939,1.54    c0.27-0.64,0.47-1.2,0.569-1.67c1.21-5.9-3.729-19.35-12.63-22.4c-1.62-0.56-7.75-1.06-12.79-1.26    c14.98,0.15,39.971,2.39,45.61,5.74C243.042,103.62,248.572,110.56,253.211,119.3z"
   id="path2729" />
		<path
   d="M162.751,176.78c0.09-0.13,0.13-0.2,0.13-0.2l-11.87-19.96c0,0-16.6-2.59-21.13-2.62c-4.63-0.07-22.56-0.08-23,1.25    c-2,6-3.63,19-4.25,24.75c-0.49,4.55-1.25,20.25-1.25,20.25c2.5,0.67,20.65,0.71,26.5,0.75c5.5-0.06,20.65-0.92,20.92-1.42    C151.451,194.66,161.511,178.75,162.751,176.78z M168.862,220.73c-0.57,0.01-0.9,0.02-0.9,0.02l-19.5-20.58    c0,0-15.12,1.03-20.41,1c-5.41-0.08-26.56-0.45-26.59,0c-0.03,0.57-0.05,1.13-0.05,1.7c-0.93-22.74,5.11-59.06,17.44-82.77    c-2.98,6.13-12.17,32.49-11.34,33.9c0.56,0.97,8.62-0.25,13.12-0.38c2.61-0.07,7.33,0.28,11.51,0.33c0.01,0,0.02,0,0.03,0    c1.81,0.18,12.08,1.3,12.08,1.3s3.38,0.63,6.8,1.08l11.96,19.79c0,0,16.55-1.33,23.14-1.28h0.181    c6.59-0.05,23.149,1.28,23.149,1.28l11.95-19.79c3.42-0.45,6.8-1.08,6.8-1.08s10.271-1.12,12.08-1.3c0.011,0,0.021,0,0.03,0    c0.59-0.01,1.19-0.02,1.8-0.04v0.1c-5.09,0.18-20.66,2.61-20.66,2.61l-11.88,19.96c0,0,11.25,17.75,14.08,23    c0.271,0.5,15.12,1.34,20.75,1.42v0.17c-5.29,0.03-20.41-1-20.41-1l-19.17,20.91l12.33,22.59l-12.66-22.92    c0,0-13.09-0.26-18.279-0.24C181.872,220.5,171.912,220.68,168.862,220.73z"
   id="path2731" />
		<path
   d="M208.101,132.25l13.33,24.08l-11.95,19.79c0,0-16.56-1.33-23.149-1.28h-0.181c-6.59-0.05-23.14,1.28-23.14,1.28    l-11.96-19.79l13.33-24.08c0,0,15.95-0.57,21.73-0.51c0.079,0,0.17,0,0.26,0C192.162,131.68,208.101,132.25,208.101,132.25z"
   id="path2733" />
		<path
   d="M201.492,9c11.64,1.33,19.63,35.36,18.229,48.25c-0.01,0-2.18,6-3.609,8.25c-8.561-0.93-22.601-1.78-31.561-2    c-8.689,0.22-21.14,1.13-29.31,1.98c-1.42-2.26-3.57-8.23-3.59-8.23c-1.4-12.89,6.59-46.92,18.23-48.25    c4.45-0.51,9.55-8.4,16.61-8.5C193.551,0.6,197.042,8.49,201.492,9z"
   id="path2735" />
		<path
   d="M186.242,220.51c5.189-0.02,18.279,0.24,18.279,0.24l12.66,22.92c0,0-13.13,7.771-18.52,9.11    c-1.9,0.479-4.57,0.81-7.561,1.01c-1.489,0.1-3.06,0.15-4.649,0.18c-0.141,0-0.28,0-0.42,0c-4.78-0.069-9.36-0.479-12.2-1.189    c-5.4-1.34-18.53-9.11-18.53-9.11l12.66-22.92c0,0,0.33-0.01,0.9-0.02C171.912,220.68,181.872,220.5,186.242,220.51z"
   id="path2737" />
		<path
   d="M209.261,130.34l-1.16,1.91c0,0-15.939-0.57-21.729-0.51c-0.09,0-0.181,0-0.26,0c-5.78-0.06-21.73,0.51-21.73,0.51    l-1.16-1.91l-0.02-0.04l-6.59-10.8c-0.29-0.67-0.5-1.26-0.6-1.75c-1.22-5.9,3.72-19.35,12.62-22.4    c2.21-0.76,12.75-1.41,17.55-1.34v-0.02c0.15,0,0.3,0.01,0.45,0.01v0.01c1.22-0.01,2.77,0.02,4.43,0.08    c5.04,0.2,11.17,0.7,12.79,1.26c8.9,3.05,13.84,16.5,12.63,22.4c-0.1,0.47-0.3,1.03-0.569,1.67l-0.011,0.01l-6.619,10.87    L209.261,130.34z"
   id="path2739" />
		<path
   d="M195.351,253.88c5.721,1.96,14.03,22.3,11.38,22.74c-0.819,0.14-1.81,0.26-2.899,0.38c-2.391,0.25-5.28,0.45-8.01,0.62    c-4.021,0.26-7.761,0.37-9.57,0.38c-0.01,0-0.01,0-0.021,0c-1.81-0.01-5.55-0.12-9.569-0.38c-2.98-0.19-6.15-0.41-8.65-0.69    c-0.84-0.1-1.6-0.199-2.26-0.31c-2.65-0.44,5.66-20.78,11.38-22.74c1.42-0.49,6.02,0.26,9.1,0.311c0.011,0,0.011,0,0.021,0    c1.439-0.03,3.22-0.2,4.85-0.341C192.941,253.71,194.601,253.62,195.351,253.88z"
   id="path2741" />
		<path
   d="M186.181,93.99v0.02c-4.8-0.07-15.34,0.58-17.55,1.34c-8.9,3.05-13.84,16.5-12.62,22.4c0.1,0.49,0.31,1.08,0.6,1.75    l-0.98-1.62c0,0-16-3.71-20-2.55c-3.53-0.07-15.3,2.33-16.27,3.83c-0.03,0.04-0.05,0.08-0.09,0.13    c4.65-8.74,10.18-15.68,16.55-19.46C142.042,96.13,172.301,93.66,186.181,93.99z"
   id="path2743" />
		<path
   d="M148.461,200.17l19.17,20.91l-12.33,22.59c-20.24,8.48-19.66,8.36-21.09,8.91c-1.58,0.75-4.75,2.5-8.58,2.42    c-0.29-0.01-0.63-0.16-0.99-0.43c-1.77-2.19-3.51-4.5-5.17-6.88c-0.58-0.96-0.98-1.681-1.09-1.86c-0.97-1.6-4.28-6.22-7.72-12.49    c-0.09-0.18-0.19-0.35-0.28-0.53c-2.82-5.369-5.11-10.67-6.63-15.439c-0.11-0.311-0.2-0.63-0.28-0.95c-0.59-2-1.07-4.04-1.42-6.1    c-0.01-0.03-0.02-0.061-0.02-0.101c-0.04-0.279-0.08-0.56-0.11-0.83c-0.24-2.01-0.41-4.189-0.51-6.52c0-0.57,0.02-1.13,0.05-1.7    c0.03-0.45,21.18-0.08,26.59,0C133.341,201.2,148.461,200.17,148.461,200.17z"
   id="path2745" />
		<path
   d="M163.221,130.34l1.16,1.91l-13.33,24.08c-3.42-0.45-6.8-1.08-6.8-1.08s-10.27-1.12-12.08-1.3c-0.01,0-0.02,0-0.03,0    c-4.18-0.05-8.9-0.4-11.51-0.33c-4.5,0.13-12.56,1.35-13.12,0.38c-0.83-1.41,8.36-27.77,11.34-33.9c0.01-0.01,0.02-0.03,0.02-0.04    c0.09-0.18,0.18-0.35,0.27-0.52c0.05-0.09,0.1-0.18,0.13-0.25c0.04-0.05,0.06-0.09,0.09-0.13c0.97-1.5,12.74-3.9,16.27-3.83    c4-1.16,20,2.55,20,2.55l0.98,1.62c1.45,3.32,4.91,8.41,6.59,10.8L163.221,130.34z"
   id="path2747" />
		<path
   d="M151.011,156.62l11.87,19.96c0,0-0.04,0.07-0.13,0.2c-1.24,1.97-11.3,17.88-13.95,22.8c-0.27,0.5-15.42,1.36-20.92,1.42    c-5.85-0.04-24-0.08-26.5-0.75c0,0,0.76-15.7,1.25-20.25c0.62-5.75,2.25-18.75,4.25-24.75c0.44-1.33,18.37-1.32,23-1.25    C134.411,154.03,151.011,156.62,151.011,156.62z"
   id="path2749" />
		<path
   d="M46.062,127.3c-1.54,0-3.08-0.05-4.62-0.13c-0.96-0.05-1.92-0.11-2.88-0.19c-1.75-0.14-3.43-0.41-5.08-0.87    c-1.03-0.28-2.04-0.64-3.04-1.09c-0.24-0.11-0.51-0.2-0.73-0.34c-0.08-0.05-0.16-0.1-0.23-0.16c-1.77-1.16-3.42-3.11-4.81-5.47    c-1.01-1.72-1.88-3.66-2.55-5.66c0-0.02-0.01-0.03-0.01-0.05c-0.03-0.09-0.05-0.18-0.07-0.26c-0.32-1.23-0.18-1.7,0.11-2.11    c5.69-7.99,30.48-34.5,43.13-37.15c8.02-1.68,43.06,0.55,44.65,5.84c0.9,3.02-5.91,8.48-8.67,12.64    c-0.92,1.55-1.92,3.01-2.89,4.51c-3.21,4.92-3.84,7.4-5.01,10.08c-1.33,3.06-2.68,6.17-3.64,8.95c-0.58,1.69-2.03,2.95-3.46,4.05    c-0.95,0.73-2.35,1.2-3.44,1.71c-0.97,0.46-1.96,0.89-2.98,1.24c-1.59,0.56-3.24,0.85-4.89,1.14c-4.02,0.72-7.97,1.67-12.03,2.13    c-4.26,0.47-8.55,0.93-12.83,1.11C48.751,127.28,47.411,127.3,46.062,127.3z"
   id="path2751" />
		<path
   d="M46.421,233.23c0.59,1.409,1.86,5.22,2.31,6.55c-2.42-1.42-4.48-2.25-5.7-1.69c-0.76,0.351-1.44,0.78-2.05,1.28l-0.1-0.12    c0,0,1.83-3.79,2.01-5.17c0.34-2.67-1.26-10.69-1.26-10.69S45.372,230.7,46.421,233.23z"
   id="path2753" />
		<path
   d="M46.062,127.3c-0.48,0.66-2.73,3.81-3.33,5.06c-0.87,1.83-2.41,7.74-2.41,7.74s-0.82-5.16-0.65-6.88    c0.13-1.44,1.5-5.29,1.77-6.05C42.981,127.25,44.521,127.3,46.062,127.3z"
   id="path2755" />
		<path
   d="M37.102,245.11c-0.6,1.59-1.02,3.27-1.33,4.88c-0.83-1.17-3.67-5.16-4.91-6.48c-1.7-1.81-7.36-6.42-7.71-6.71    c0.41,0.17,7.02,2.96,9.07,4.26C33.431,241.82,36.352,244.43,37.102,245.11z"
   id="path2757" />
		<path
   d="M33.481,126.11l-0.02,0.06c0,0-3.27,2.79-4.63,4.43c-1.59,1.91-5.45,8.12-5.69,8.5c0.12-0.43,2.05-7.34,3.09-9.54    c0.7-1.49,3.15-4.89,3.15-4.89l0.1-0.15c0.07,0.06,0.15,0.11,0.23,0.16c0.22,0.14,0.49,0.23,0.73,0.34    C31.441,125.47,32.451,125.83,33.481,126.11z"
   id="path2759" />
		<path
   d="M24.671,119.05l-0.21,0.12c0,0-4.28,0.33-5.66,0.33c-2.32,0-7.85,3.17-9.31,4.04c0.74-0.87,5.01-5.84,7.17-7.08    c1.35-0.78,4.42-2.75,5.36-3.37c0.03,0.08,0.06,0.17,0.09,0.25c0,0.02,0.01,0.03,0.01,0.05    C22.792,115.39,23.661,117.33,24.671,119.05z"
   id="path2761" />
		<path
   d="M22.042,113.08c0.02,0.08,0.04,0.17,0.07,0.26c-0.03-0.08-0.06-0.17-0.09-0.25C22.031,113.1,22.031,113.09,22.042,113.08z    "
   id="path2763" />
	</g>
	<g
   id="g2765">
		<path
   fill="none"
   stroke="#000000"
   d="M155.441,65.77c-0.06-0.09-0.13-0.18-0.2-0.29c-1.42-2.26-3.57-8.23-3.59-8.23    c-1.4-12.89,6.59-46.92,18.23-48.25c4.45-0.51,9.55-8.4,16.61-8.5"
   id="path2767" />
		<path
   fill="none"
   stroke="#000000"
   d="M155.011,65.5c0.08-0.01,0.15-0.02,0.23-0.02c8.17-0.85,20.621-1.76,29.31-1.98"
   id="path2769" />
		<path
   fill="none"
   stroke="#000000"
   d="M184.461,304.08c-20.59-0.33-40.7-3.23-52.93-8.59c-21.78-9.53-50.49-55.13-53.32-78.73    c-4.47-37.24,10.84-120.09,43.09-139.26c8-4.76,46.21-8.75,63.58-8.25"
   id="path2771" />
		<path
   fill="none"
   stroke="#000000"
   d="M101.261,92.3c2.76-4.16,9.57-9.62,8.67-12.64c-1.59-5.29-36.63-7.52-44.65-5.84    c-12.65,2.65-37.44,29.16-43.13,37.15c-0.29,0.41-0.43,0.88-0.11,2.11c0.02,0.08,0.04,0.17,0.07,0.26"
   id="path2773" />
		<path
   fill="none"
   stroke="#000000"
   d="M216.131,65.5c-0.01,0-0.01,0-0.02,0c-8.561-0.93-22.601-1.78-31.561-2"
   id="path2775" />
		<path
   fill="none"
   stroke="#000000"
   d="M184.461,304.08c0.06,0,0.11,0,0.17,0c20.58-0.33,40.7-3.23,52.93-8.59    c21.78-9.53,50.48-55.13,53.32-78.73c4.47-37.24-10.85-120.09-43.09-139.26c-7.83-4.65-45.91-8-62.91-8.25"
   id="path2777" />
		<path
   fill="none"
   stroke="#000000"
   d="M101.261,92.3c-0.92,1.55-1.92,3.01-2.89,4.51c-3.21,4.92-3.84,7.4-5.01,10.08    c-1.33,3.06-2.68,6.17-3.64,8.95c-0.58,1.69-2.03,2.95-3.46,4.05c-0.95,0.73-2.35,1.2-3.44,1.71c-0.97,0.46-1.96,0.89-2.98,1.24    c-1.59,0.56-3.24,0.85-4.89,1.14c-4.02,0.72-7.97,1.67-12.03,2.13c-4.26,0.47-8.55,0.93-12.83,1.11    c-1.34,0.06-2.68,0.08-4.03,0.08c-1.54,0-3.08-0.05-4.62-0.13c-0.96-0.05-1.92-0.11-2.88-0.19c-1.75-0.14-3.43-0.41-5.08-0.87    c-1.03-0.28-2.04-0.64-3.04-1.09c-0.24-0.11-0.51-0.2-0.73-0.34c-0.08-0.05-0.16-0.1-0.23-0.16c-1.77-1.16-3.42-3.11-4.81-5.47    c-1.01-1.72-1.88-3.66-2.55-5.66c0-0.02-0.01-0.03-0.01-0.05c-0.03-0.08-0.06-0.17-0.09-0.25c0-0.01-0.01-0.03-0.01-0.04"
   id="path2779" />
		<path
   fill="none"
   stroke="#000000"
   d="M273.381,265.58c3.64-2.91,12.5-20.25,15.25-23.5c4.36-5.15,13.41,18.56,18.1,26.229    c3.08,5.03,7.23,12.511,11.301,19.671c1.77,3.1,13.54,4.189,20.8,6.159c2.93,0.79,5.13,1.73,5.649,3    c0.351,0.83,0.551,1.67,0.641,2.5c0.26,2.341-0.38,4.641-1.42,6.79c-0.74,1.53-1.69,2.99-2.67,4.311    c-1.631,2.2-3.341,4.04-4.351,5.319c-0.03,0.04-0.06,0.07-0.08,0.11c-0.87,1.1-1.89,2.34-3.05,3.66c-2.43,2.75-5.46,5.79-8.88,8.3    c-0.04,0.03-0.08,0.061-0.12,0.09"
   id="path2781" />
		<path
   fill="none"
   stroke="#000000"
   d="M273.381,265.58c-2.65,3.4-7.83,10.25-11,14.25c-5.75,7.25-4.9,9.01,0.33,16.38    c1.6,2.25,23.57,18.44,30.93,21.76c4.26,1.92,25.61,13.61,30.91,10"
   id="path2783" />
		<path
   fill="none"
   stroke="#000000"
   d="M96.631,265.33c-3.75-4.37-12.25-21.25-16.5-20.25c-5.49,1.3-6.6,1.89-14.13,4.24    c-3.26,1.02-11.35-6.051-17.27-9.54c-2.42-1.42-4.48-2.25-5.7-1.69c-0.76,0.351-1.44,0.78-2.05,1.28    c-1.8,1.46-3.02,3.52-3.88,5.74c-0.6,1.59-1.02,3.27-1.33,4.88c-0.52,2.689-0.73,5.189-0.99,6.79c-0.22,1.35-0.45,2.91-0.64,4.62    c-0.4,3.67-0.62,7.989-0.2,12.18"
   id="path2785" />
		<path
   fill="none"
   stroke="#000000"
   d="M96.631,265.33c4.54,7.32,6.27,8.46,9.75,13.75c1.44,2.189,5.39,4.66,4.5,7.25    c-0.89,2.6-6.62,5.31-15.75,6.37c-2.6,0.3-27.92-2.9-34.85-5.48c-4.01-1.5-25.53-7.52-26.34-13.64"
   id="path2787" />
		<path
   fill="none"
   stroke="#000000"
   d="M262.301,85.5c-4.92-7.04-15.26-11.96-16.17-12.67c-2.25-1.75,11.49-15.73,17.88-20.87    c10.08-8.09,46.3-10.41,56.08-9.72c0.48,0.04,0.92,0.21,1.63,1.15c0.08,0.1,0.16,0.22,0.25,0.34"
   id="path2789" />
		<path
   fill="none"
   stroke="#000000"
   d="M262.301,85.5c3.08,3,9.33,15.73,12.08,16.75c1.67,0.63,10.14-4.42,11.9-4.81    c1.17-0.28,2.42-1.07,3.5-1.58c0.979-0.47,1.939-0.96,2.85-1.51c1.44-0.89,2.71-1.97,3.99-3.06c3.1-2.64,6.35-5.1,9.279-7.94    c3.07-2.99,6.16-6.02,9.021-9.21c0.92-1.04,1.83-2.1,2.71-3.18c0.96-1.18,1.9-2.38,2.79-3.61c0.56-0.75,1.1-1.51,1.63-2.27    c1.021-1.47,1.9-2.97,2.59-4.58c0.42-0.94,0.771-1.92,1.04-2.94c0.07-0.25,0.181-0.52,0.21-0.78c0.021-0.12,0.03-0.25,0.03-0.38    c0.21-2.12-0.271-4.63-1.22-7.19c-0.681-1.84-1.61-3.7-2.71-5.45c-0.011-0.01-0.011-0.02-0.021-0.03    c-0.06-0.09-0.109-0.18-0.17-0.27"
   id="path2791" />
		<path
   fill="none"
   stroke="#000000"
   d="M215.941,65.77c0.061-0.08,0.12-0.17,0.171-0.27c1.43-2.25,3.6-8.25,3.609-8.25    c1.4-12.89-6.59-46.92-18.229-48.25c-4.45-0.51-7.94-8.4-15-8.5"
   id="path2793" />
		<path
   fill="none"
   stroke="#000000"
   d="M37.102,245.11c0.12,0.09,0.18,0.149,0.18,0.149"
   id="path2795" />
		<path
   fill="none"
   stroke="#000000"
   d="M340.492,310.81c0,0,0.199-0.029,0.54-0.069c1.67-0.2,6.72-0.8,8.649-0.79    c2.79,0,11.141,1.1,11.141,1.1"
   id="path2797" />
		<path
   fill="none"
   stroke="#000000"
   d="M360.822,311.05c0,0-7.641-3.14-10.32-3.78c-1.49-0.369-5.59-0.739-6.8-0.84    c-0.221-0.02-0.34-0.029-0.34-0.029"
   id="path2799" />
		<path
   fill="none"
   stroke="#000000"
   d="M345.162,299.64c0,0,1.479-3.949,2.399-5.02c1.71-2.021,8.67-6.13,9.11-6.39"
   id="path2801" />
		<path
   fill="none"
   stroke="#000000"
   d="M356.691,288.22c0,0-0.01,0-0.02,0.011c-0.5,0.13-8.55,2.26-11.21,3.189    c-1.47,0.51-5.14,2.08-6.63,2.72c-0.4,0.17-0.641,0.28-0.641,0.28"
   id="path2803" />
		<path
   fill="none"
   stroke="#000000"
   d="M336.511,316.14c0,0,0.03,0.011,0.09,0.03c0.69,0.23,5.101,1.71,6.471,2.55    c1.529,0.95,5.21,4.62,5.51,4.931"
   id="path2805" />
		<path
   fill="none"
   stroke="#000000"
   d="M348.582,323.65c-0.36-0.15-6.19-2.631-8.28-3.12c-1.65-0.38-6.75-0.7-6.75-0.7"
   id="path2807" />
		<path
   fill="none"
   stroke="#000000"
   d="M348.582,323.65c0.01,0.01,0.02,0.01,0.02,0.01"
   id="path2809" />
		<path
   fill="none"
   stroke="#000000"
   d="M33.461,126.17c0,0-3.27,2.79-4.63,4.43c-1.59,1.91-5.45,8.12-5.69,8.5"
   id="path2811" />
		<path
   fill="none"
   stroke="#000000"
   d="M23.131,139.12c0,0,0-0.01,0.01-0.02c0.12-0.43,2.05-7.34,3.09-9.54    c0.7-1.49,3.15-4.89,3.15-4.89"
   id="path2813" />
		<path
   fill="none"
   stroke="#000000"
   d="M24.461,119.17c0,0-4.28,0.33-5.66,0.33c-2.32,0-7.85,3.17-9.31,4.04    c-0.23,0.13-0.36,0.21-0.36,0.21"
   id="path2815" />
		<path
   fill="none"
   stroke="#000000"
   d="M9.381,123.67c0,0,0.04-0.05,0.11-0.13c0.74-0.87,5.01-5.84,7.17-7.08    c1.35-0.78,4.42-2.75,5.36-3.37c0.01,0.01,0.01,0,0.02-0.01c0.17-0.1,0.26-0.16,0.26-0.16"
   id="path2817" />
		<path
   fill="none"
   stroke="#000000"
   d="M41.491,127.04c0,0-0.02,0.05-0.05,0.13c-0.27,0.76-1.64,4.61-1.77,6.05    c-0.17,1.72,0.65,6.88,0.65,6.88"
   id="path2819" />
		<path
   fill="none"
   stroke="#000000"
   d="M40.321,140.1c0,0,1.54-5.91,2.41-7.74c0.6-1.25,2.85-4.4,3.33-5.06    c0.06-0.08,0.09-0.12,0.09-0.12"
   id="path2821" />
		<path
   fill="none"
   stroke="#000000"
   d="M324.591,60.51c0,0,0.021,0,0.05-0.01c0.471-0.08,4.32-0.73,6.32-0.73    c2.56-0.01,10.2,1.03,10.2,1.03"
   id="path2823" />
		<path
   fill="none"
   stroke="#000000"
   d="M341.162,60.8c0,0-6.91-3.08-9.34-3.71c-1.591-0.41-5.78-0.68-5.78-0.68"
   id="path2825" />
		<path
   fill="none"
   stroke="#000000"
   d="M324.931,49.12c0,0,2.98-3.09,3.87-4.16c1.47-1.78,7.4-4.01,9.021-4.6    c0.26-0.09,0.409-0.14,0.409-0.14"
   id="path2827" />
		<path
   fill="none"
   stroke="#000000"
   d="M338.011,40.36c0,0-0.07,0-0.189,0c-1.2,0.02-7.681,0.14-10.011,1.02    c-1.51,0.57-5.16,1.72-6.09,2.01c-0.14,0.05-0.22,0.07-0.22,0.07"
   id="path2829" />
		<path
   fill="none"
   stroke="#000000"
   d="M320.151,67.26c0,0,0.101,0.03,0.271,0.09c0.99,0.37,4.51,1.67,5.65,2.44    c1.38,0.93,4.609,4.57,4.869,4.88"
   id="path2831" />
		<path
   fill="none"
   stroke="#000000"
   d="M330.941,74.67c-0.319-0.15-5.569-2.59-7.479-3.07c-1.25-0.32-4.73-0.57-5.83-0.64    c-0.21-0.01-0.34-0.02-0.34-0.02"
   id="path2833" />
		<path
   fill="none"
   stroke="#000000"
   d="M330.941,74.67c0.011,0.01,0.021,0.01,0.021,0.01"
   id="path2835" />
		<path
   fill="none"
   stroke="#FFFFFF"
   stroke-width="3"
   d="M119.271,119.29c4.65-8.74,10.18-15.68,16.55-19.46    c6.22-3.7,36.48-6.17,50.36-5.84c0.15,0,0.3,0.01,0.45,0.01"
   id="path2837" />
		<path
   fill="none"
   stroke="#FFFFFF"
   stroke-width="3"
   d="M118.872,120.06c0.09-0.18,0.18-0.35,0.27-0.52"
   id="path2839" />
		<path
   fill="none"
   stroke="#FFFFFF"
   stroke-width="3"
   d="M102.031,210.22c-0.04-0.279-0.08-0.56-0.11-0.83    c-0.24-2.01-0.41-4.189-0.51-6.52c-0.93-22.74,5.11-59.06,17.44-82.77"
   id="path2841" />
		<path
   fill="none"
   stroke="#FFFFFF"
   stroke-width="3"
   d="M103.471,216.42c-0.66-2.16-1.14-4.21-1.42-6.1"
   id="path2843" />
		<path
   fill="none"
   stroke="#FFFFFF"
   stroke-width="3"
   d="M110.381,232.81c-2.82-5.369-5.11-10.67-6.63-15.439"
   id="path2845" />
		<path
   fill="none"
   stroke="#FFFFFF"
   stroke-width="3"
   d="M185.641,278.08c-6.029-0.09-12-0.47-17.63-1.11    c-9.54-1.1-18.08-3-24.15-5.649c-6.1-2.67-12.9-8.94-19.22-16.75c-1.77-2.19-3.51-4.5-5.17-6.88    c-3.24-4.61-6.23-9.511-8.81-14.351"
   id="path2847" />
		<path
   fill="none"
   stroke="#FFFFFF"
   stroke-width="3"
   d="M163.202,130.3c-1.681-2.39-5.141-7.48-6.59-10.8    c-0.29-0.67-0.5-1.26-0.6-1.75c-1.22-5.9,3.72-19.35,12.62-22.4c2.21-0.76,12.75-1.41,17.55-1.34"
   id="path2849" />
		<path
   fill="none"
   stroke="#FFFFFF"
   stroke-width="3"
   d="M185.992,131.24c-5.7-0.04-21.86,0.38-21.86,0.38s-0.35-0.48-0.91-1.28"
   id="path2851" />
		<path
   fill="none"
   stroke="#FFFFFF"
   stroke-width="3"
   d="M162.881,176.58c0,0,16.28-1.53,22.15-1.45"
   id="path2853" />
		<polyline
   fill="none"
   stroke="#FFFFFF"
   stroke-width="3"
   points="167.961,220.75 148.461,200.17 162.751,176.78   "
   id="polyline2855" />
		<path
   fill="none"
   stroke="#FFFFFF"
   stroke-width="3"
   d="M185.801,220.5c-5.77-0.04-14.2,0.16-16.939,0.23"
   id="path2857" />
		<path
   fill="none"
   stroke="#FFFFFF"
   stroke-width="3"
   d="M164.381,132.25c0,0,15.95-0.57,21.73-0.51"
   id="path2859" />
		<path
   fill="none"
   stroke="#FFFFFF"
   stroke-width="3"
   d="M186.151,174.84c-6.59-0.05-23.14,1.28-23.14,1.28l-11.96-19.79"
   id="path2861" />
		<path
   fill="none"
   stroke="#FFFFFF"
   stroke-width="3"
   d="M186.032,253.97c-4.78-0.069-9.36-0.479-12.2-1.189    c-5.4-1.34-18.53-9.11-18.53-9.11l12.66-22.92c0,0,0.33-0.01,0.9-0.02c3.05-0.051,13.01-0.23,17.38-0.221    c0.34,0,0.649,0,0.92,0.01"
   id="path2863" />
		<path
   fill="none"
   stroke="#FFFFFF"
   stroke-width="3"
   d="M186.992,253.98c-0.181,0-0.36,0-0.54-0.011"
   id="path2865" />
		<path
   fill="none"
   stroke="#FFFFFF"
   stroke-width="3"
   d="M186.231,278c-1.81-0.01-5.55-0.12-9.569-0.38    c-2.98-0.19-6.15-0.41-8.65-0.69c-0.84-0.1-1.6-0.199-2.26-0.31c-2.65-0.44,5.66-20.78,11.38-22.74c1.42-0.49,6.02,0.26,9.1,0.311    "
   id="path2867" />
		<path
   fill="none"
   stroke="#FFFFFF"
   stroke-width="3"
   d="M127.881,201c-5.85-0.04-24-0.08-26.5-0.75c0,0,0.76-15.7,1.25-20.25    c0.62-5.75,2.25-18.75,4.25-24.75c0.44-1.33,18.37-1.32,23-1.25"
   id="path2869" />
		<path
   fill="none"
   stroke="#FFFFFF"
   stroke-width="3"
   d="M127.881,201c5.5-0.06,20.65-0.92,20.92-1.42    c2.65-4.92,12.71-20.83,13.95-22.8c0.09-0.13,0.13-0.2,0.13-0.2l-11.87-19.96c0,0-16.6-2.59-21.13-2.62"
   id="path2871" />
		<path
   fill="none"
   stroke="#FFFFFF"
   stroke-width="3"
   d="M132.141,153.95c-4.18-0.05-8.9-0.4-11.51-0.33    c-4.5,0.13-12.56,1.35-13.12,0.38c-0.83-1.41,8.36-27.77,11.34-33.9c0.01-0.01,0.02-0.03,0.02-0.04c0.1-0.2,0.19-0.37,0.27-0.52    c0.05-0.09,0.1-0.18,0.13-0.25c0.04-0.05,0.06-0.09,0.09-0.13c0.97-1.5,12.74-3.9,16.27-3.83"
   id="path2873" />
		<path
   fill="none"
   stroke="#FFFFFF"
   stroke-width="3"
   d="M132.141,153.95c0.01,0,0.02,0,0.03,0c1.81,0.18,12.08,1.3,12.08,1.3    s3.38,0.63,6.8,1.08l13.33-24.08l-1.16-1.91l-0.02-0.04l-6.59-10.8l-0.98-1.62c0,0-16-3.71-20-2.55"
   id="path2875" />
		<path
   fill="none"
   stroke="#FFFFFF"
   stroke-width="3"
   d="M134.211,252.58c-1.58,0.75-4.75,2.5-8.58,2.42    c-0.29-0.01-0.63-0.16-0.99-0.43c-1.65-1.21-3.86-4.681-5.17-6.88c-0.58-0.96-0.98-1.681-1.09-1.86    c-0.97-1.6-4.28-6.22-7.72-12.49c-0.09-0.18-0.19-0.35-0.28-0.53c-2.44-4.5-4.91-9.8-6.63-15.439c-0.11-0.311-0.2-0.63-0.28-0.95    c-0.59-2-1.07-4.04-1.42-6.1c-0.01-0.03-0.02-0.061-0.02-0.101c-0.41-2.43-0.64-4.899-0.62-7.35c0-0.57,0.02-1.13,0.05-1.7    c0.03-0.45,21.18-0.08,26.59,0"
   id="path2877" />
		<path
   fill="none"
   stroke="#FFFFFF"
   stroke-width="3"
   d="M134.211,252.58c1.43-0.55,0.85-0.43,21.09-8.91l12.33-22.59l-19.17-20.91    c0,0-15.12,1.03-20.41,1"
   id="path2879" />
		<path
   fill="none"
   stroke="#FFFFFF"
   stroke-width="3"
   d="M253.211,119.3c-4.64-8.74-10.17-15.68-16.54-19.47    c-5.64-3.35-30.63-5.59-45.61-5.74c-1.76-0.02-3.38-0.01-4.81,0.03"
   id="path2881" />
		<path
   fill="none"
   stroke="#FFFFFF"
   stroke-width="3"
   d="M270.452,210.22c0.04-0.279,0.08-0.56,0.109-0.83    c0.24-2.01,0.41-4.189,0.511-6.52c0.93-22.76-5.11-59.1-17.46-82.81"
   id="path2883" />
		<path
   fill="none"
   stroke="#FFFFFF"
   stroke-width="3"
   d="M269.011,216.42c0.66-2.16,1.14-4.21,1.42-6.1"
   id="path2885" />
		<path
   fill="none"
   stroke="#FFFFFF"
   stroke-width="3"
   d="M262.101,232.81c2.82-5.369,5.11-10.67,6.63-15.439"
   id="path2887" />
		<path
   fill="none"
   stroke="#FFFFFF"
   stroke-width="3"
   d="M186.841,278.08c5.8-0.09,11.55-0.44,16.99-1.04    c9.8-1.09,18.58-3.01,24.79-5.72c6.1-2.67,12.899-8.94,19.22-16.75c1.771-2.19,3.51-4.5,5.17-6.88    c3.24-4.61,6.23-9.511,8.811-14.351"
   id="path2889" />
		<path
   fill="none"
   stroke="#FFFFFF"
   stroke-width="3"
   d="M215.912,119.42c0.27-0.64,0.47-1.2,0.569-1.67    c1.21-5.9-3.729-19.35-12.63-22.4c-1.62-0.56-7.75-1.06-12.79-1.26c-1.66-0.06-3.21-0.09-4.43-0.08c-0.11,0-0.22,0-0.33,0"
   id="path2891" />
		<path
   fill="none"
   stroke="#FFFFFF"
   stroke-width="3"
   d="M209.282,130.3c1.689-2.4,5.189-7.55,6.619-10.87"
   id="path2893" />
		<path
   fill="none"
   stroke="#FFFFFF"
   stroke-width="3"
   d="M186.501,131.24c5.689-0.04,21.85,0.38,21.85,0.38s0.351-0.48,0.91-1.28"
   id="path2895" />
		<path
   fill="none"
   stroke="#FFFFFF"
   stroke-width="3"
   d="M208.101,132.25c0,0-15.939-0.57-21.729-0.51c-0.09,0-0.181,0-0.26,0"
   id="path2897" />
		<path
   fill="none"
   stroke="#FFFFFF"
   stroke-width="3"
   d="M186.332,174.84c6.59-0.05,23.149,1.28,23.149,1.28l11.95-19.79"
   id="path2899" />
		<path
   fill="none"
   stroke="#FFFFFF"
   stroke-width="3"
   d="M185.492,253.98c0.18,0,0.359,0,0.54-0.011c0.14,0,0.279,0,0.42,0    c1.59-0.029,3.16-0.08,4.649-0.18c2.99-0.2,5.66-0.53,7.561-1.01c5.39-1.34,18.52-9.11,18.52-9.11l-12.66-22.92    c0,0-13.09-0.26-18.279-0.24c-0.341,0-0.65,0-0.92,0.01"
   id="path2901" />
		<path
   fill="none"
   stroke="#FFFFFF"
   stroke-width="3"
   d="M186.231,278c0.011,0,0.011,0,0.021,0c1.81-0.01,5.55-0.12,9.57-0.38    c2.729-0.17,5.619-0.37,8.01-0.62c1.09-0.12,2.08-0.24,2.899-0.38c2.65-0.44-5.659-20.78-11.38-22.74    c-0.75-0.26-2.41-0.17-4.25-0.03c-1.63,0.141-3.41,0.311-4.85,0.341c-0.01,0-0.01,0-0.021,0"
   id="path2903" />
		<path
   fill="none"
   stroke="#FFFFFF"
   stroke-width="3"
   d="M244.601,201c-0.05,0-0.109,0-0.17,0c-5.63-0.08-20.479-0.92-20.75-1.42    c-2.83-5.25-14.08-23-14.08-23l11.88-19.96c0,0,15.57-2.43,20.66-2.61c0.16-0.01,0.32-0.01,0.46-0.01"
   id="path2905" />
		<path
   fill="none"
   stroke="#FFFFFF"
   stroke-width="3"
   d="M240.341,153.95c0.59-0.01,1.19-0.02,1.8-0.04    c3.67-0.1,7.471-0.35,9.71-0.29c4.5,0.13,12.561,1.35,13.13,0.38c0.82-1.41-8.409-27.9-11.369-33.94    c-0.15-0.31-0.29-0.56-0.4-0.76c-0.03-0.05-0.061-0.1-0.09-0.14c-0.971-1.5-12.74-3.9-16.271-3.83"
   id="path2907" />
		<path
   fill="none"
   stroke="#FFFFFF"
   stroke-width="3"
   d="M240.341,153.95c-0.01,0-0.02,0-0.03,0c-1.81,0.18-12.08,1.3-12.08,1.3    s-3.38,0.63-6.8,1.08l-13.33-24.08l1.16-1.91l0.021-0.04l6.619-10.87l0.011-0.01l0.939-1.54c0,0,16-3.71,20-2.55"
   id="path2909" />
		<path
   fill="none"
   stroke="#FFFFFF"
   stroke-width="3"
   d="M238.271,252.58c1.58,0.75,4.75,2.5,8.58,2.42    c0.29-0.01,0.63-0.16,0.99-0.43c1.65-1.21,3.86-4.681,5.17-6.88c0.58-0.96,0.98-1.681,1.09-1.86c0.971-1.6,4.28-6.22,7.721-12.49    c0.09-0.18,0.189-0.35,0.279-0.53c2.44-4.5,4.91-9.8,6.63-15.439c0.11-0.311,0.2-0.63,0.28-0.95c0.59-2,1.07-4.04,1.42-6.1    c0.01-0.03,0.021-0.061,0.021-0.101c0.41-2.43,0.64-4.899,0.62-7.35c0-0.57-0.021-1.13-0.051-1.7c-0.029-0.45-21.18-0.08-26.59,0"
   id="path2911" />
		<path
   fill="none"
   stroke="#FFFFFF"
   stroke-width="3"
   d="M238.271,252.58c-1.43-0.55-0.85-0.43-21.09-8.91l-12.33-22.59    l19.17-20.91c0,0,15.12,1.03,20.41,1"
   id="path2913" />
	</g>
</g>
</svg>